<?xml version="1.0" encoding="UTF-8" standalone="no"?>
<!-- Created with Inkscape (http://www.inkscape.org/) -->

<svg
   xmlns:dc="http://purl.org/dc/elements/1.1/"
   xmlns:cc="http://creativecommons.org/ns#"
   xmlns:rdf="http://www.w3.org/1999/02/22-rdf-syntax-ns#"
   xmlns:svg="http://www.w3.org/2000/svg"
   xmlns="http://www.w3.org/2000/svg"
   xmlns:sodipodi="http://sodipodi.sourceforge.net/DTD/sodipodi-0.dtd"
   xmlns:inkscape="http://www.inkscape.org/namespaces/inkscape"
   width="240"
   height="100"
   viewBox="0 0 240 100"
   version="1.1"
   id="svg8"
   inkscape:version="0.92.3 (2405546, 2018-03-11)"
   sodipodi:docname="temp.svg">
  <metadata
     id="metadata6">
    <rdf:RDF>
      <cc:Work
         rdf:about="">
        <dc:format>image/svg+xml</dc:format>
        <dc:type
           rdf:resource="http://purl.org/dc/dcmitype/StillImage" />
        <dc:title></dc:title>
      </cc:Work>
    </rdf:RDF>
  </metadata>
  <defs
     id="defs2" />
  <sodipodi:namedview
     id="base"
     pagecolor="#ffffff"
     bordercolor="#666666"
     borderopacity="1.0"
     inkscape:pageopacity="0.0"
     inkscape:pageshadow="2"
     inkscape:zoom="4.3192439"
     inkscape:cx="125.18257"
     inkscape:cy="46.021854"
     inkscape:document-units="px"
     showgrid="true"
     units="px"
     inkscape:current-layer="svg8">
    <inkscape:grid
       type="xygrid"
       id="grid815"
       spacingx="10"
       spacingy="10" />
  </sodipodi:namedview>
  <path
     style="fill:#000000;stroke-width:1"
     d="m 8.8540246,9.9265762 v -2.505021 l 0.949368,0.34957 c 0.5221514,0.192263 1.1234174,0.413091 1.3361464,0.490729 0.236633,0.08636 0.386779,0.244436 0.386779,0.4072 0,0.340562 -0.05959,0.336025 -1.098132,-0.08361 -0.4759364,-0.192308 -0.9022494,-0.349651 -0.9473664,-0.349651 -0.04512,0 -0.0622,0.202037 -0.03796,0.448969 0.04088,0.416433 0.11542,0.47582 1.0286024,0.819497 0.750512,0.282456 0.995212,0.441689 1.029472,0.6699118 0.05535,0.368716 -0.09306,0.374086 -0.855197,0.03095 -1.2916574,-0.5815498 -1.2291284,-0.6267458 -1.2291284,0.888383 0,1.244856 -0.0196,1.338096 -0.281294,1.338096 -0.270824,0 -0.281294,-0.09324 -0.281294,-2.5050188 z"
     id="path877"
     inkscape:connector-curvature="0" />
  <path
     id="path859"
     style="fill:#000000;stroke-width:1"
     d="m 20.411258,8.8651827 c 0,-0.109322 -0.725717,-0.546432 -0.907221,-0.546432 -0.04252,0 -0.07731,0.317888 -0.07731,0.706418 v 0.706418 l 0.492265,-0.373368 c 0.270745,-0.205352 0.492264,-0.427218 0.492264,-0.493036 z m -0.236831,1.9384423 c -0.217844,-0.163463 -0.475194,-0.356578 -0.571889,-0.429144 -0.135056,-0.101355 -0.175809,0.03479 -0.175809,0.58733 v 0.719268 l 0.571889,-0.290124 0.571889,-0.290123 z M 18.864141,9.9271417 c 0,-1.435897 0.05074,-2.589744 0.112749,-2.564102 0.383985,0.158774 2.558895,1.439605 2.555917,1.50521 -0.002,0.04393 -0.318451,0.292234 -0.703235,0.551788 -0.384784,0.259553 -0.699486,0.511302 -0.699336,0.55944 1.4e-4,0.04814 0.321392,0.3051683 0.713872,0.5711783 0.662077,0.448731 0.69506,0.497523 0.456831,0.675765 -0.204713,0.153166 -1.858073,1.049359 -2.331312,1.263674 -0.05802,0.02627 -0.105486,-1.127055 -0.105486,-2.5629533 z"
     inkscape:connector-curvature="0" />
  <path
     style="fill:#000000;stroke-width:1"
     d="m 30.019511,11.144076 -1.260947,-1.2597296 1.289757,-1.28254 c 1.132097,-1.125765 1.317666,-1.259507 1.518088,-1.094102 0.203803,0.168195 0.110723,0.306078 -0.86646,1.283528 l -1.094791,1.09509 1.088669,1.0889646 c 0.853667,0.853899 1.051814,1.125614 0.917938,1.258741 -0.0939,0.09338 -0.206861,0.169776 -0.251019,0.169776 -0.04416,0 -0.647715,-0.566878 -1.341235,-1.259728 z"
     id="path843"
     inkscape:connector-curvature="0" />
  <path
     id="path891"
     style="fill:#000000;stroke-width:1"
     d="m 41.766327,8.8547706 c -0.0987,-0.09815 -1.058972,0.816011 -1.058972,1.008119 0,0.07782 0.237342,0.3835554 0.527427,0.6794104 l 0.527426,0.537916 0.04139,-1.073614 c 0.02276,-0.5904884 0.006,-1.1088114 -0.03727,-1.1518314 z m -2.423687,0.50294 c -0.286431,-0.29169 -0.57123,-0.530346 -0.632887,-0.530346 -0.06166,0 -0.112102,0.5166 -0.112102,1.148002 v 1.1480014 l 0.632886,-0.617656 0.632885,-0.6176544 z m -1.307577,0.568867 v -2.565488 l 1.087894,1.081808 1.087893,1.081807 1.092135,-1.079654 1.092134,-1.079655 v 2.510701 2.5107014 l -1.022998,-1.010486 c -0.562649,-0.555766 -1.094372,-1.010485 -1.181605,-1.010485 -0.08723,0 -0.607899,0.478404 -1.157031,1.06312 l -0.998422,1.063119 z"
     inkscape:connector-curvature="0" />
  <path
     style="fill:#000000;stroke-width:1"
     d="m 48.604015,10.051547 c -0.05475,-1.2389599 -0.07066,-2.2813909 -0.03533,-2.3165119 0.03532,-0.03512 0.403053,0.191587 0.817185,0.5038 0.414134,0.312211 0.788398,0.567928 0.831699,0.56826 0.0433,2.8e-4 0.412394,-0.282616 0.820204,-0.628769 0.407812,-0.346154 0.767952,-0.629371 0.800314,-0.629371 0.03236,0 0.05884,1.06993 0.05884,2.377622 0,2.2843819 -0.01103,2.3776229 -0.281294,2.3776229 -0.266291,0 -0.281293,-0.09324 -0.281293,-1.748252 0,-0.9615379 -0.04149,-1.7482519 -0.09221,-1.7482519 -0.05071,0 -0.303879,0.160546 -0.562588,0.356768 l -0.470378,0.356768 -0.492265,-0.373368 -0.492264,-0.373368 v 1.7648519 c 0,1.624727 -0.02069,1.764852 -0.26053,1.764852 -0.238705,0 -0.268871,-0.188712 -0.360085,-2.252653 z"
     id="path839"
     inkscape:connector-curvature="0" />
  <path
     style="fill:#000000;stroke-width:1"
     d="m 58.974254,9.9265781 c 0.03677,-2.376547 0.05041,-2.482517 0.319701,-2.482517 0.224066,0 0.272092,0.07825 0.236066,0.384615 -0.05613,0.477374 0.07626,0.479999 0.989877,0.01962 0.687487,-0.346427 0.733687,-0.352262 0.908359,-0.11472 0.167239,0.227435 0.09109,0.290876 -0.834488,0.695272 -0.924474,0.403911 -1.022589,0.485532 -1.062594,0.883951 -0.05375,0.535333 0.05672,0.543598 0.988723,0.07396 0.692794,-0.3491 0.732484,-0.353896 0.911711,-0.110162 0.171257,0.232898 0.09944,0.29741 -0.834488,0.7496069 l -1.021873,0.494778 -0.04159,0.944056 c -0.03671,0.833274 -0.07422,0.944056 -0.319701,0.944056 -0.26805,0 -0.276724,-0.08983 -0.239706,-2.4825179 z"
     id="path841"
     inkscape:connector-curvature="0" />
  <path
     style="fill:#000000;stroke-width:1"
     d="m 69.00255,12.370497 c -0.21314,-0.123648 -0.181282,-0.255635 0.324455,-1.344176 l 0.560803,-1.2070652 -0.559016,-1.158505 c -0.458176,-0.949521 -0.520974,-1.173023 -0.348116,-1.238984 0.115996,-0.04426 0.23646,-0.08048 0.267698,-0.08048 0.03124,0 0.248492,0.377623 0.482786,0.839161 0.234294,0.461539 0.455813,0.839161 0.492264,0.839161 0.03645,0 0.257971,-0.377622 0.492265,-0.839161 0.438413,-0.863635 0.500802,-0.918156 0.820221,-0.716801 0.147094,0.09272 0.06196,0.36599 -0.396518,1.272755 l -0.583827,1.15468 0.56528,1.1714842 c 0.531955,1.102422 0.549847,1.179698 0.303487,1.310808 -0.229276,0.122018 -0.31728,0.02227 -0.708471,-0.803024 l -0.446678,-0.942349 -0.481922,0.944056 c -0.265056,0.51923 -0.49687,0.942142 -0.515143,0.939802 -0.01827,-0.0023 -0.139578,-0.06595 -0.269568,-0.141362 z"
     id="path873"
     inkscape:connector-curvature="0" />
  <path
     style="fill:#000000;stroke-width:1"
     d="m 78.840399,9.9265771 c 0,-2.424242 0.01042,-2.517482 0.281294,-2.517482 0.242301,0 0.281294,0.09324 0.281294,0.672625 0,0.641566 0.03572,0.703292 0.773559,1.336732 l 0.773558,0.6641059 V 8.7458261 c 0,-1.243491 0.01962,-1.336731 0.281294,-1.336731 0.264565,0 0.281353,0.09357 0.282294,1.573426 5.62e-4,0.865385 0.04188,2.0038909 0.09184,2.5300139 0.09028,0.950724 0.08877,0.956296 -0.247132,0.909091 -0.298411,-0.04194 -0.342983,-0.129349 -0.380798,-0.746797 -0.03787,-0.618393 -0.118621,-0.776162 -0.697946,-1.363636 -0.360318,-0.3653849 -0.704969,-0.6643359 -0.765895,-0.6643359 -0.06092,0 -0.110772,0.6293709 -0.110772,1.3986019 0,1.30536 -0.01875,1.398601 -0.281294,1.398601 -0.270876,0 -0.281294,-0.09324 -0.281294,-2.5174829 z"
     id="path849"
     inkscape:connector-curvature="0" />
  <path
     style="fill:#000000;stroke-width:1"
     d="m 89.905012,11.836802 c 0,-0.333991 0.04146,-1.466858 0.09213,-2.5174819 0.08346,-1.730376 0.11656,-1.910225 0.351618,-1.910225 0.24261,0 0.259489,0.163753 0.259489,2.517482 V 12.44406 h -0.351617 c -0.321071,0 -0.351618,-0.05276 -0.351618,-0.607258 z"
     id="path889"
     inkscape:connector-curvature="0" />
  <path
     id="path857"
     style="fill:#000000;stroke-width:1"
     d="m 100.33918,10.508826 c -0.14888,-0.178385 -0.0896,-0.302516 0.36651,-0.7669566 l 0.54413,-0.554125 -0.74002,-0.745133 c -0.662114,-0.666693 -0.716071,-0.764893 -0.512567,-0.932842 0.198767,-0.164039 0.349727,-0.06556 1.197197,0.781015 l 0.96975,0.968726 -0.82369,0.731074 c -0.71508,0.6346846 -0.8471,0.7030126 -1.00131,0.5182416 z m -1.027244,0.952585 -0.946235,-0.948207 0.766971,-0.7532046 c 0.663818,-0.651905 0.797187,-0.728267 0.991648,-0.567783 0.20107,0.165945 0.17229,0.238769 -0.274069,0.693321 -0.274308,0.2793456 -0.498742,0.5705506 -0.498742,0.6471216 0,0.07657 0.31458,0.447338 0.699071,0.823926 0.53676,0.525735 0.66338,0.727463 0.54536,0.868868 -0.0845,0.10129 -0.19511,0.184164 -0.24573,0.184164 -0.0506,0 -0.517845,-0.426692 -1.038274,-0.948206 z"
     inkscape:connector-curvature="0" />
  <path
     style="fill:#000000;stroke-width:1"
     d="m 109.74759,11.959957 c -1.09192,-0.791019 -1.11422,-0.816056 -0.96415,-1.082706 0.11146,-0.198049 0.18344,-0.182487 0.61232,0.132369 l 0.48602,0.356806 0.039,-2.0399424 0.0389,-2.039941 0.59395,0.425715 c 1.16531,0.835228 1.373,1.044361 1.2408,1.249424 -0.10352,0.160558 -0.19957,0.142188 -0.54852,-0.104895 -0.23267,-0.164749 -0.45904,-0.299542 -0.50305,-0.299542 -0.044,0 -0.0975,0.902108 -0.11894,2.0046844 l -0.0389,2.004684 z"
     id="path875"
     inkscape:connector-curvature="0" />
  <path
     style="fill:#000000;stroke-width:1"
     d="M 119.31277,10.007257 V 7.4523616 l 0.98382,0.671778 c 1.04919,0.716414 1.04483,0.71133 0.85914,1.002797 -0.098,0.153823 -0.22806,0.119231 -0.66591,-0.177109 l -0.54414,-0.368267 -0.0703,1.7461364 c -0.0569,1.413552 -0.11721,1.79264 -0.31646,1.990296 -0.23441,0.232512 -0.24615,0.122271 -0.24615,-2.310736 z"
     id="path837"
     inkscape:connector-curvature="0" />
  <path
     id="path879"
     style="fill:#000000;stroke-width:1"
     d="m 131.48536,8.8076961 c 0,-0.303649 -0.10376,-0.342959 -0.4048,-0.153355 -0.22692,0.142927 -0.0915,0.433076 0.20213,0.433076 0.11147,0 0.20267,-0.125875 0.20267,-0.279721 z m -1.84457,0.152751 c 0.15565,-0.09802 0.13444,-0.154812 -0.10548,-0.282499 -0.26091,-0.138852 -0.3003,-0.122478 -0.3003,0.124828 0,0.308629 0.10271,0.348538 0.40578,0.157671 z m -1.10901,0.96613 c 0,-1.384615 0.0483,-2.517482 0.10736,-2.517482 0.059,0 0.4363,0.22028 0.83833,0.48951 0.40204,0.269231 0.80118,0.489511 0.88699,0.489511 0.0858,0 0.42058,-0.178101 0.74394,-0.395779 0.32336,-0.217679 0.66705,-0.441673 0.76374,-0.497765 0.13794,-0.08002 0.17581,0.44201 0.17581,2.423751 0,2.4324959 -0.0104,2.5257369 -0.28129,2.5257369 -0.25964,0 -0.28153,-0.09423 -0.2843,-1.223776 l -0.003,-1.2237769 -0.5469,-0.384615 c -0.30079,-0.211538 -0.5856,-0.384615 -0.63292,-0.384615 -0.0473,0 -0.33784,0.165706 -0.6456,0.368236 l -0.55958,0.368235 v 1.2401569 c 0,1.146914 -0.0212,1.240155 -0.28129,1.240155 -0.27088,0 -0.2813,-0.09324 -0.2813,-2.5174829 z"
     inkscape:connector-curvature="0" />
  <path
     style="fill:#000000;stroke-width:1"
     d="m 140.01963,12.413511 c -0.0516,-0.05128 -0.0938,-0.631288 -0.0938,-1.288902 V 9.9289467 l -0.63811,-0.644228 c -0.44159,-0.445821 -0.61022,-0.71651 -0.54754,-0.87893 0.12592,-0.326305 0.22867,-0.297684 0.70223,0.195588 l 0.41309,0.430288 0.0703,-0.814904 c 0.0616,-0.713336 0.10977,-0.820475 0.38678,-0.859597 0.30781,-0.04346 0.31652,-0.0106 0.31652,1.194656 v 1.239348 l 0.63291,0.6176813 c 0.68905,0.672472 0.68953,0.673409 0.49625,0.977404 -0.10978,0.172649 -0.21742,0.126199 -0.63076,-0.27219 l -0.4984,-0.480365 v 0.936526 c 0,0.814908 -0.0335,0.936527 -0.25785,0.936527 -0.14182,0 -0.30005,-0.04196 -0.35162,-0.09324 z"
     id="path885"
     inkscape:connector-curvature="0" />
  <path
     id="path845"
     style="fill:#000000;stroke-width:1"
     d="m 150.87163,9.6270018 0.47969,-0.492152 -0.52243,-0.519504 -0.52243,-0.519505 -0.52242,0.519505 -0.52243,0.519504 0.47969,0.492152 c 0.26384,0.270682 0.51816,0.4921492 0.56516,0.4921492 0.047,0 0.30133,-0.2214672 0.56517,-0.4921492 z M 148.619,12.287346 c -0.16171,-0.193758 -0.0984,-0.31347 0.46896,-0.886226 0.36075,-0.364214 0.65592,-0.720819 0.65592,-0.792458 0,-0.07164 -0.30064,-0.436561 -0.66808,-0.8109392 l -0.66807,-0.680688 0.91421,-0.825313 c 0.50281,-0.453922 0.95303,-0.826348 1.00048,-0.827613 0.0474,-0.0013 0.49049,0.370838 0.98453,0.826895 l 0.89825,0.829198 -0.73703,0.741207 -0.73703,0.7412072 0.72509,0.730102 c 0.62846,0.632804 0.70014,0.759988 0.53791,0.954374 -0.16676,0.199803 -0.26904,0.143886 -0.93743,-0.512511 l -0.75025,-0.736784 -0.75024,0.736784 c -0.66801,0.656016 -0.77075,0.712226 -0.93722,0.512765 z"
     inkscape:connector-curvature="0" />
  <path
     style="fill:#000000;stroke-width:1"
     d="m 158.7805,9.8801816 c 0,-2.937037 -0.11509,-2.724118 1.16453,-2.154423 0.54374,0.24208 0.57624,0.241586 0.99973,-0.0152 0.5286,-0.32053 0.73303,-0.334346 0.84014,-0.05678 0.0571,0.147923 -0.13198,0.316962 -0.64193,0.573928 -0.69442,0.349916 -0.74147,0.355424 -1.19582,0.139971 -0.26013,-0.123354 -0.50246,-0.224278 -0.53851,-0.224278 -0.036,0 -0.0656,0.786713 -0.0656,1.748251 0,0.9615394 0.0304,1.7482524 0.0675,1.7482524 0.0371,0 0.31766,-0.09954 0.62344,-0.221207 0.54111,-0.215301 0.57311,-0.211211 1.19834,0.15315 0.67692,0.394482 0.71076,0.443492 0.51661,0.748212 -0.0981,0.153974 -0.24202,0.120389 -0.74819,-0.174591 -0.34471,-0.20088 -0.653,-0.339142 -0.68511,-0.307249 -0.0321,0.03189 -0.39064,0.188211 -0.79676,0.347375 l -0.7384,0.28939 z"
     id="path851"
     inkscape:connector-curvature="0" />
  <path
     style="fill:#000000;stroke-width:1"
     d="m 170.11371,12.38136 c -0.0516,-0.05128 -0.0938,-0.663092 -0.0938,-1.359581 V 9.7554385 l -0.804,-0.807941 c -0.73594,-0.739536 -0.78502,-0.826827 -0.5797,-1.031003 0.20533,-0.204178 0.26349,-0.1746 0.68691,0.34934 0.25442,0.314821 0.51528,0.572403 0.57969,0.572403 0.0644,0 0.1171,-0.340262 0.1171,-0.756137 0,-0.68728 0.0256,-0.749476 0.2813,-0.682989 0.23797,0.06188 0.28129,0.190772 0.28129,0.836965 v 0.763818 l 0.58578,-0.498601 c 0.57776,-0.49177 0.58855,-0.49467 0.78791,-0.211645 0.11116,0.157827 0.17984,0.301559 0.15261,0.319406 -0.0272,0.01785 -0.38178,0.278457 -0.7879,0.579135 l -0.7384,0.546687 v 1.3698625 c 0,1.04831 -0.044,1.369861 -0.18753,1.369861 -0.10314,0 -0.22972,-0.04196 -0.28129,-0.09324 z"
     id="path835"
     inkscape:connector-curvature="0" />
  <path
     id="path853"
     style="fill:#000000;stroke-width:1"
     d="m 180.19044,9.0454377 0.38572,-0.30171 -0.33159,-0.182844 c -0.53959,-0.297542 -0.6832,-0.235161 -0.6832,0.296754 0,0.569527 0.10209,0.600007 0.62907,0.1878 z m -1.19166,0.9576493 c 0,-2.7548593 10e-4,-2.7562943 1.55262,-1.9386103 0.53581,0.282391 0.97418,0.544909 0.97415,0.58337 -2e-5,0.03846 -0.41033,0.312831 -0.91179,0.609708 -0.50146,0.296878 -0.91175,0.592645 -0.91175,0.65726 0,0.06461 0.43955,0.4510853 0.97679,0.8588243 0.53723,0.407737 0.98026,0.816298 0.98452,0.907912 0.0185,0.398063 -0.32855,0.297843 -1.02885,-0.297102 -0.4135,-0.351284 -0.8208,-0.6387 -0.90511,-0.6387 -0.0857,0 -0.17203,0.3231 -0.19581,0.732956 -0.0329,0.566479 -0.0984,0.743524 -0.28864,0.779486 -0.22634,0.04279 -0.24613,-0.138586 -0.24613,-2.255104 z"
     inkscape:connector-curvature="0" />
  <path
     style="fill:#000000;stroke-width:1"
     d="m 189.91216,12.520046 c -0.22759,-0.165487 -0.20214,-0.243094 0.34024,-1.037319 0.91434,-1.338887 0.93417,-1.283594 -0.46024,-1.283594 -0.6658,0 -1.21055,-0.02792 -1.21055,-0.06204 0,-0.03412 0.43018,-0.719204 0.95596,-1.5224 0.86452,-1.320682 0.97998,-1.442878 1.20725,-1.277629 0.23389,0.17007 0.20147,0.25615 -0.46798,1.24268 l -0.71927,1.059952 h 1.27011 c 0.69856,0 1.27011,0.02986 1.27011,0.06637 0,0.0365 -0.43642,0.724825 -0.96982,1.529611 -0.86803,1.309673 -0.99564,1.444474 -1.21581,1.284378 z"
     id="path871"
     inkscape:connector-curvature="0" />
  <path
     style="fill:#000000;stroke-width:1"
     d="m 200.07664,11.871136 c -0.0483,-0.240384 -0.0879,-1.102808 -0.0879,-1.9164959 v -1.479434 l -0.56237,0.546076 c -0.45435,0.441176 -0.59619,0.511755 -0.7384,0.367411 -0.14172,-0.143852 -0.003,-0.34089 0.71105,-1.011202 l 0.88706,-0.832535 0.8007,0.66174 c 0.44039,0.363958 0.85814,0.709244 0.92835,0.767303 0.074,0.06121 0.0497,0.198976 -0.0579,0.327899 -0.10206,0.122287 -0.22279,0.169125 -0.2683,0.104084 -0.10013,-0.14312 -0.94027,-0.734146 -1.04357,-0.734146 -0.0404,0 -0.0369,0.818181 0.008,1.8181809 0.0787,1.759326 0.0721,1.818182 -0.20364,1.818182 -0.20662,0 -0.30911,-0.120134 -0.37285,-0.437063 z"
     id="path827"
     inkscape:connector-curvature="0" />
  <path
     style="fill:#000000;stroke-width:1"
     d="m 209.02765,9.9264641 -0.0372,-2.517374 1.30304,0.686255 c 1.50487,0.792546 1.47919,0.736465 1.39888,3.0550139 -0.0403,1.162046 -0.072,1.293706 -0.31199,1.293706 -0.24504,0 -0.27046,-0.135964 -0.30681,-1.640912 l -0.0396,-1.6409129 -0.60606,-0.332169 c -0.33334,-0.182694 -0.64888,-0.289595 -0.70121,-0.237557 -0.0523,0.05204 -0.0791,0.939924 -0.0594,1.9730819 0.0356,1.86976 0.0342,1.878469 -0.28332,1.878356 -0.31841,-1.14e-4 -0.3191,-0.005 -0.35625,-2.5174879 z"
     id="path887"
     inkscape:connector-curvature="0" />
  <path
     id="path831"
     style="fill:#000000;stroke-width:1"
     d="m 220.23536,9.1944911 0.40869,-0.300468 -0.33108,-0.258973 c -0.49505,-0.387224 -0.63834,-0.319778 -0.63834,0.300467 0,0.307692 0.0342,0.559441 0.076,0.559441 0.0418,0 0.25993,-0.13521 0.48471,-0.300467 z m -1.10882,0.66378 c 0.0391,-2.790664 -0.10014,-2.636675 1.48383,-1.640895 l 1.00605,0.63247 -0.93573,0.638554 -0.93573,0.6385549 -0.0411,1.082603 c -0.0372,0.980851 -0.0679,1.082603 -0.32626,1.082603 -0.27686,0 -0.28419,-0.07103 -0.25108,-2.4338899 z"
     inkscape:connector-curvature="0" />
  <path
     id="path867"
     style="fill:#000000;stroke-width:1"
     d="m 230.3473,10.086461 c 0.3507,-0.1934961 0.29054,-0.2993951 -0.36113,-0.6357581 -0.29948,-0.154573 -0.31646,-0.136807 -0.31646,0.331094 0,0.5356761 0.14265,0.5998151 0.67759,0.3046641 z m -1.24018,-0.1598826 c 0,-2.4941735 0.0101,-2.5874135 0.2813,-2.5874135 0.2392,0 0.28129,0.09324 0.28129,0.623124 0,0.622855 4.2e-4,0.623378 0.98453,1.204751 0.54149,0.319894 0.98453,0.625689 0.98453,0.679545 0,0.05385 -0.44289,0.3456321 -0.98419,0.6483951 l -0.98419,0.550479 -2.8e-4,0.734265 c -2.8e-4,0.640914 -0.0361,0.734266 -0.28163,0.734266 -0.27116,0 -0.2813,-0.09324 -0.2813,-2.5874116 z"
     inkscape:connector-curvature="0" />
</svg>
