<?xml version="1.0" encoding="UTF-8" standalone="no"?>
<!-- Created with Inkscape (http://www.inkscape.org/) -->

<svg
   xmlns:dc="http://purl.org/dc/elements/1.1/"
   xmlns:cc="http://creativecommons.org/ns#"
   xmlns:rdf="http://www.w3.org/1999/02/22-rdf-syntax-ns#"
   xmlns:svg="http://www.w3.org/2000/svg"
   xmlns="http://www.w3.org/2000/svg"
   xmlns:sodipodi="http://sodipodi.sourceforge.net/DTD/sodipodi-0.dtd"
   xmlns:inkscape="http://www.inkscape.org/namespaces/inkscape"
   width="30"
   height="30"
   viewBox="0 0 30 30"
   version="1.1"
   id="svg8"
   inkscape:version="0.92.3 (2405546, 2018-03-11)"
   sodipodi:docname="Bubbles-modeling.svg"
   inkscape:export-filename="D:\c\KTANE\KtaneStuff\DataFiles\SimonSpeaks\Bubbles.png"
   inkscape:export-xdpi="1920"
   inkscape:export-ydpi="1920">
  <sodipodi:namedview
     id="base"
     pagecolor="#ffffff"
     bordercolor="#666666"
     borderopacity="1.0"
     inkscape:pageopacity="0.0"
     inkscape:pageshadow="2"
     inkscape:zoom="90.473158"
     inkscape:cx="14.249978"
     inkscape:cy="4.9216284"
     inkscape:document-units="px"
     inkscape:current-layer="svg8"
     showgrid="true"
     units="px"
     showguides="false"
     inkscape:snap-nodes="true"
     inkscape:snap-global="false">
    <inkscape:grid
       spacingy="0.5"
       spacingx="0.5"
       id="grid815"
       type="xygrid" />
  </sodipodi:namedview>
  <defs
     id="defs2" />
  <metadata
     id="metadata5">
    <rdf:RDF>
      <cc:Work
         rdf:about="">
        <dc:format>image/svg+xml</dc:format>
        <dc:type
           rdf:resource="http://purl.org/dc/dcmitype/StillImage" />
        <dc:title></dc:title>
      </cc:Work>
    </rdf:RDF>
  </metadata>
  <path
     inkscape:connector-curvature="0"
     id="body7"
     d="m 5.0100017,20.25821 c -2.7027495,6.7e-4 -4.79263822,2.14004 -4.76224196,3.23928 0.0303963,1.09925 0.64515259,4.46783 0.64515259,4.46783 l 0.63594017,-2.50999 0.4239603,1.76579 0.4961235,-1.30573 0.3878785,3.03769 0.5833888,-2.779525 0.4426852,1.613785 0.384887,-0.84016 c 0.5992701,1.54069 1.7354037,2.76031 4.774062,2.76031 C 8.4498673,29.60056 7.3693318,28.81392 7.0991098,28.47917 6.610437,27.87381 6.2892279,27.13146 6.0796593,26.24933 l 0.3968993,0.62019 0.2480617,-0.70812 0.7780121,1.98002 0.4600419,-2.44007 0.3878784,1.16817 0.4239602,-1.73196 0.4961236,1.80186 c 0,0 0.5732842,-2.10055 0.5467099,-3.52958 -0.026575,-1.42903 -2.1037138,-3.15161 -4.807344,-3.15142 l -7e-7,-2.1e-4"
     style="opacity:1;vector-effect:none;fill:#ffda4f;fill-opacity:0.99425288;stroke:none;stroke-width:0.1;stroke-linecap:butt;stroke-linejoin:miter;stroke-miterlimit:100;stroke-dasharray:none;stroke-dashoffset:0;stroke-opacity:1;marker:none"
     sodipodi:nodetypes="csccccccccccccccccccscc"
     inkscape:label="#body7-3" />
  <path
     style="color:#000000;font-style:normal;font-variant:normal;font-weight:normal;font-stretch:normal;font-size:medium;line-height:normal;font-family:sans-serif;font-variant-ligatures:normal;font-variant-position:normal;font-variant-caps:normal;font-variant-numeric:normal;font-variant-alternates:normal;font-feature-settings:normal;text-indent:0;text-align:start;text-decoration:none;text-decoration-line:none;text-decoration-style:solid;text-decoration-color:#000000;letter-spacing:normal;word-spacing:normal;text-transform:none;writing-mode:lr-tb;direction:ltr;text-orientation:mixed;dominant-baseline:auto;baseline-shift:baseline;text-anchor:start;white-space:normal;shape-padding:0;clip-rule:nonzero;display:inline;overflow:visible;visibility:visible;opacity:1;isolation:auto;mix-blend-mode:normal;color-interpolation:sRGB;color-interpolation-filters:linearRGB;solid-color:#000000;solid-opacity:1;vector-effect:none;fill:#000000;fill-opacity:1;fill-rule:nonzero;stroke:none;stroke-width:0.1;stroke-linecap:butt;stroke-linejoin:miter;stroke-miterlimit:100;stroke-dasharray:none;stroke-dashoffset:0;stroke-opacity:1;marker:none;color-rendering:auto;image-rendering:auto;shape-rendering:auto;text-rendering:auto;enable-background:accumulate"
     d="m 5.0136718,20.197265 c -1.3645641,3.39e-4 -2.5772091,0.550156 -3.4414062,1.228516 -0.86419706,0.678361 -1.39109808,1.490099 -1.37499998,2.072266 0.0154166,0.557524 0.17835258,1.674146 0.3359375,2.654297 0.15758493,0.98015 0.31054688,1.822265 0.31054688,1.822265 l 0.0410156,0.226563 0.6425782,-2.53711 0.4140624,1.726563 0.4824219,-1.267578 0.4003907,3.130859 0.6015624,-2.867187 0.4257813,1.546875 0.4082031,-0.890625 c 0.3007063,0.739693 0.7121138,1.419767 1.4316406,1.904297 1.2821099,0.772172 2.2542211,0.820059 3.8691407,0.810593 L 9.03125,29.658203 C 8.7614448,29.607763 8.3472826,29.386754 7.9746094,29.136719 7.6019362,28.886684 7.2653468,28.60419 7.1386719,28.447266 6.79326,28.019375 6.3689236,27.194802 6.1796875,26.515625 l 0.3105471,0.466797 0.2363281,-0.677734 0.7929687,2.017578 0.4570313,-2.423828 0.3808594,1.152343 0.4199219,-1.716797 0.4941406,1.794922 0.046875,-0.175781 c 0,0 0.5756679,-2.101616 0.5488281,-3.544922 C 9.8534567,22.669849 9.3165773,21.873258 8.4472658,21.257812 7.5779543,20.642367 6.376107,20.19717 5.0136718,20.197265 Z m -0.00391,0.111329 c 1.3411953,-9.5e-5 2.5270971,0.428195 3.3789063,1.03125 0.8518092,0.603054 1.3660621,1.379637 1.3789062,2.070312 0.024642,1.325114 -0.4463558,3.054106 -0.5097656,3.292969 l -0.4863281,-1.763672 -0.4277344,1.75 -0.3945312,-1.1875 -0.4628907,2.458985 -0.7636719,-1.94336 -0.2578124,0.738281 -0.5019532,-0.78125 0.068359,0.28711 c 0.00127,0.0053 0.00458,0.0083 0.00586,0.01367 l 0.00195,0.002 c 0.2108676,0.878982 0.5304808,1.624174 1.0214844,2.232422 0.143547,0.177825 0.4812323,0.457232 0.859375,0.710937 C 8.2081462,29.41408 8.4988235,29.574664 8.7630016,29.6731 7.4175294,29.63423 6.4257053,29.319617 5.7480469,28.863281 5.0195185,28.37269 4.5923029,27.694238 4.2949219,26.929688 L 4.2519531,26.818359 3.875,27.642578 3.4140625,25.960938 2.8496094,28.650391 2.4726562,25.710938 1.9648438,27.050781 1.5292969,25.246094 0.90234375,27.724609 C 0.87029394,27.547337 0.76818479,26.988905 0.63085938,26.134766 0.47346708,25.155813 0.31185471,24.037819 0.296875,23.496094 0.28257685,22.97902 0.78593004,22.172162 1.6347656,21.505859 c 0.8488356,-0.666302 2.0368146,-1.196934 3.375,-1.197265 z"
     id="outline7"
     inkscape:connector-curvature="0"
     sodipodi:nodetypes="csssccccccccccccsccccccccccssccssccccccccccccccscccccccccsssc" />
  <path
     id="body1"
     d="M5.0 0.18388C2.3435104 0.18388 0.19 1.79899 0.19 3.79132C0.191338 5.518 1.8238928 7.00185 4.0840331 7.33066C4.6651165 9.14051 5.7671756 9.87735 9.2210204 9.87735C7.5094422 9.55738 6.3500324 8.94293 6.1109033 7.29778C8.2775232 6.91206 9.8078648 5.46141 9.81 3.79132C9.81 1.79899 7.6564896 0.18388 5.0 0.18388C5.0 0.18388 5.0 0.18388 5.0 0.18388"
     style="opacity:1;stroke-linejoin:miter;vector-effect:none;stroke-opacity:1;fill-opacity:0.99425288;stroke-dashoffset:0;stroke:none;stroke-linecap:butt;stroke-miterlimit:100;marker:none;stroke-dasharray:none;stroke-width:0.282842712475;fill:#ffda4f" />
  <path
     id="body8"
     d="M10.274809 21.98864C10.44102 21.8159 11.37685 21.98764 11.351802 21.25943C11.326752 20.53131 12.581732 20.67241 12.89716 21.09532C13.212588 21.51823 13.916643 21.63514 13.803193 20.97362C13.758623 20.41081 14.463893 20.26383 14.816968 20.5948C15.370845 21.18848 15.507712 20.00661 16.120669 20.19997C16.768725 20.30864 15.941328 21.31851 16.701333 21.33966C17.089177 21.37296 17.647907 20.88702 17.725818 21.52818C17.711398 22.0794 18.199656 22.43746 18.680681 22.11024C19.20076 21.86947 19.83918 22.60419 19.151807 22.8517C18.655953 23.13964 18.945175 23.64165 19.427713 23.65612C19.867246 23.88863 19.580979 24.43607 19.166919 24.44901C18.685239 24.94768 19.579161 25.20381 19.748597 25.55839C19.964276 26.14811 19.791657 26.78373 19.789437 27.39102C19.780837 27.63196 19.475915 27.86364 19.548056 27.46332C19.609576 26.86616 19.691967 26.09536 19.134745 25.69893C18.808059 26.0699 19.303297 26.7062 19.207995 27.16128C18.893 27.79132 18.739101 26.81171 18.775223 26.48414C18.816983 26.24519 18.514595 25.55272 18.472238 26.17745C18.440378 26.64358 18.888402 27.98966 18.448808 27.99734C18.009211 28.00534 18.228468 26.65461 17.877233 26.21596C17.592215 26.5918 17.961813 27.33946 17.978291 27.84026C18.107242 28.35778 17.474271 28.18099 17.609235 27.76386C17.602235 27.38802 17.703465 26.67535 17.248617 26.58182C17.025804 26.98676 17.451901 27.91554 17.173227 28.02897C16.860663 27.66779 17.067149 26.84535 16.660583 26.69133C16.346044 27.13811 16.758433 27.75433 16.512852 28.202C16.04796 27.96381 16.256801 27.37239 16.086807 26.97591C15.811699 26.4864 15.915657 27.35127 15.945362 27.51989C15.920952 28.02735 16.085025 28.57186 16.550679 28.83502C17.05673 29.19406 17.523067 28.93082 18.013643 29.31457C18.375789 29.63172 18.859701 29.42626 19.592155 29.76509C19.077988 29.79989 17.960285 29.87049 17.45732 29.77109C16.723738 29.55121 16.471237 29.73799 15.746445 29.49346C15.207803 29.2256 14.679297 28.84394 14.39002 28.3054C14.162902 27.78163 14.014724 27.22599 13.962187 26.65775C13.857982 26.40854 13.914567 27.16767 13.932027 27.31324C13.874757 27.82222 14.210981 29.03589 13.704223 28.83413C13.197465 28.63238 13.758653 27.63999 13.527385 27.07668C13.537495 26.82536 13.205077 26.51922 13.257005 26.95071C13.275105 27.50122 13.281455 28.07352 13.109556 28.60232C12.889302 28.99408 12.878516 28.10722 12.90151 27.92195C12.94786 27.341 12.8386 26.76652 12.89071 26.18424C12.85219 25.75082 12.682617 26.61499 12.634601 26.95424C12.576211 27.39121 12.749457 28.14688 12.336069 28.2839C12.260679 27.74757 12.307129 26.57029 12.410479 26.03669C12.403079 25.80854 12.351539 25.30023 12.197923 25.91545C11.954535 26.53477 12.04886 27.44904 11.523337 27.92286C10.951382 28.11921 11.455597 26.86988 11.583237 26.56497C11.654497 26.08249 11.614317 25.71455 11.521287 25.36028C11.410786 26.01558 11.310537 26.65547 11.023077 27.2627C11.040637 27.46854 10.757349 28.19859 10.709174 27.65069C10.669224 26.56063 10.782234 25.20679 10.687554 24.37809C10.592874 23.54939 10.211255 23.04455 10.171063 22.71796C10.130873 22.39136 10.108583 22.16176 10.274797 21.98902C10.274797 21.98902 10.274809 21.98864 10.274809 21.98864"
     style="opacity:1;stroke-linejoin:miter;vector-effect:none;stroke-opacity:1;fill-rule:evenodd;fill-opacity:0.99425288;stroke-dashoffset:0;stroke:none;stroke-linecap:butt;stroke-miterlimit:100;marker:none;stroke-dasharray:none;stroke-width:0.282842754901;fill:#ffda4f" />
  <path
     id="body2"
     d="M13.204511 0.61085C13.204511 0.61085 14.130725 1.91096 14.130725 1.91096C14.130725 1.91096 14.420925 0.42209 14.420925 0.42209C14.420925 0.42209 14.987371 1.57535 14.987371 1.57535C14.987371 1.57535 15.882126 0.43252 15.882126 0.43252C15.882126 0.43252 15.913586 1.6593 15.913586 1.6593C15.913586 1.6593 17.549355 0.87291 17.549355 0.87291C17.549355 0.87291 17.077498 1.87951 17.077498 1.87951C17.077498 1.87951 18.839097 1.56495 18.839097 1.56495C18.839097 1.56495 17.801012 2.76028 17.801012 2.76028C17.801012 2.76028 19.814267 3.07484 19.814267 3.07484C19.814267 3.07484 18.367239 3.92418 18.367239 3.92418C18.367239 3.92418 19.657752 4.82888 19.657752 4.82888C19.657752 4.82888 18.241415 5.18243 18.241415 5.18243C18.241415 5.18243 19.059299 6.66087 19.059299 6.66087C19.059299 6.66087 17.769558 5.81156 17.769558 5.81156C17.769558 5.81156 17.643729 7.19564 17.643729 7.19564C17.643729 7.19564 16.416902 6.12612 16.416902 6.12612C16.416902 6.12612 16.605644 7.54165 16.605644 7.54165C16.605644 7.54165 15.661931 6.31486 15.661931 6.31486C15.661931 6.31486 16.149517 7.98205 16.149517 7.98205C16.149517 7.98205 19.279498 9.33467 19.279498 9.33467C19.279498 9.33467 15.205804 8.29662 15.205804 8.29662C15.205804 8.29662 14.151992 6.31486 14.151992 6.31486C14.151992 6.31486 13.113907 7.38437 13.113907 7.38437C13.113907 7.38437 13.397022 5.90593 13.397022 5.90593C13.397022 5.90593 11.792709 6.5036 11.792709 6.5036C11.792709 6.5036 12.988079 5.30825 12.988079 5.30825C12.988079 5.30825 10.943369 5.30825 10.943369 5.30825C10.943369 5.30825 12.138739 4.67912 12.138739 4.67912C12.138739 4.67912 10.28277 4.08145 10.28277 4.08145C10.28277 4.08145 12.201653 3.82981 12.201653 3.82981C12.201653 3.82981 10.565884 2.50863 10.565884 2.50863C10.565884 2.50863 12.799338 3.13777 12.799338 3.13777C12.799338 3.13777 11.415225 1.28185 11.415225 1.28185C11.415225 1.28185 13.278064 2.30594 13.278064 2.30594C13.278064 2.30594 13.204514 0.61085 13.204514 0.61085"
     style="opacity:1;stroke-linejoin:miter;vector-effect:none;stroke-opacity:1;fill-rule:evenodd;fill-opacity:0.99425288;stroke-dashoffset:0;stroke:none;stroke-linecap:butt;stroke-miterlimit:100;marker:none;stroke-dasharray:none;stroke-width:0.282842740759;fill:#ffda4f" />
  <path
     id="body3"
     d="M26.115158 7.13441C28.210472 6.76433 29.690449 5.3725 29.692513 3.77013C29.692513 1.85859 27.609877 0.30897 25.040816 0.30897C22.471754 0.30897 20.389119 1.85859 20.389119 3.77013C20.390419 5.42679 21.969239 6.85048 24.154995 7.16595C24.716954 8.90242 25.429189 9.78615 28.769363 9.78615C27.114116 9.47916 26.346417 8.71285 26.115158 7.13441C26.115158 7.13441 26.115158 7.13441 26.115158 7.13441"
     style="opacity:1;stroke-linejoin:miter;vector-effect:none;stroke-opacity:1;fill-opacity:0.99425288;stroke-dashoffset:0;stroke:none;stroke-linecap:butt;stroke-miterlimit:100;marker:none;stroke-dasharray:0.4, 0.4;stroke-width:0.565685439091;fill:#ffda4f" />
  <path
     id="body5"
     d="M10.200119 10.20015C10.200119 10.20015 10.200119 11.25034 10.200119 11.25034C10.200119 11.25034 11.368888 11.53872 11.368888 11.53872C11.368888 11.53872 10.200119 11.80987 10.200119 11.80987C10.200119 11.80987 10.200119 15.70933 10.200119 15.70933C10.200119 15.70933 13.530624 15.70933 13.530624 15.70933C13.530624 15.70933 14.858673 18.54356 14.858673 18.54356C14.858673 18.54356 17.006797 17.60957 17.006797 17.60957C17.006797 17.60957 19.266409 19.5873 19.266409 19.5873C19.266409 19.5873 17.467418 16.94675 17.467418 16.94675C17.467418 16.94675 15.667986 17.30614 15.667986 17.30614C15.667986 17.30614 15.155708 15.70933 15.155708 15.70933C15.155708 15.70933 19.856158 15.70933 19.856158 15.70933C19.856158 15.70933 19.856158 14.60535 19.856158 14.60535C19.856158 14.60535 18.990881 14.37078 18.990881 14.37078C18.990881 14.37078 19.856158 14.09317 19.856158 14.09317C19.856158 14.09317 19.856158 10.20015 19.856158 10.20015C19.856158 10.20015 10.200119 10.20015 10.200119 10.20015"
     style="opacity:1;stroke-linejoin:miter;vector-effect:none;stroke-opacity:1;fill-opacity:0.99425288;stroke-dashoffset:0;stroke:none;stroke-linecap:butt;stroke-miterlimit:100;marker:none;stroke-dasharray:none;stroke-width:0.282842712475;fill:#ffda4f" />
  <path
     id="body6"
     d="M25.129618 10.21112C24.949144 10.20042 24.760809 10.23912 24.563777 10.33633C23.77565 10.72507 23.604933 11.79995 22.462742 11.4285C21.320549 11.05705 20.335347 12.44658 20.208651 12.86153C20.081954 13.27649 20.457428 14.11009 20.691008 14.57514C20.924587 15.0402 19.905771 16.62305 21.092199 16.59716C22.278627 16.57126 22.218796 17.24733 23.051773 17.70461C23.391316 17.891 23.735655 17.81003 24.079101 17.68611C24.774687 19.08757 26.12809 19.81192 29.081102 19.81192C27.561249 19.52781 26.375336 18.80036 25.960324 17.44031C26.780201 17.73744 27.847384 18.35077 27.972741 17.38921C28.116973 16.28298 28.595142 16.59304 29.524168 16.11945C30.453194 15.64586 28.902416 14.76059 29.171676 14.01628C29.440936 13.27196 29.862522 12.65001 29.002388 12.04064C28.142254 11.43128 26.962546 12.10784 26.488566 11.31021C26.133082 10.71198 25.671044 10.24373 25.129618 10.21109C25.129618 10.21109 25.129618 10.21112 25.129618 10.21112"
     style="opacity:1;stroke-linejoin:miter;vector-effect:none;stroke-opacity:1;fill-opacity:0.99425288;stroke-dashoffset:0;stroke:none;stroke-linecap:butt;stroke-miterlimit:100;marker:none;stroke-dasharray:none;stroke-width:0.282842740759;fill:#ffda4f" />
  <path
     id="body9"
     d="M25.024133 20.1434C25.024133 20.1434 20.18897 23.90436 20.18897 23.90436C20.18897 23.90436 25.024133 27.66531 25.024133 27.66531C25.024133 27.66531 26.180458 26.76495 26.180458 26.76495C26.180458 26.76495 29.498832 29.6307 29.498832 29.6307C29.498832 29.6307 27.361967 25.84779 27.361967 25.84779C27.361967 25.84779 29.859294 23.90436 29.859294 23.90436C29.859294 23.90436 25.024133 20.1434 25.024133 20.1434"
     style="opacity:1;stroke-linejoin:miter;vector-effect:none;stroke-opacity:1;fill-rule:evenodd;fill-opacity:0.99425288;stroke-dashoffset:0;stroke:none;stroke-linecap:butt;stroke-miterlimit:100;marker:none;stroke-dasharray:none;stroke-width:0.282842670048;fill:#ffda4f" />
  <path
     id="outline8"
     d="M16.130859 20.15271C15.965079 20.10201 15.821901 20.14371 15.707031 20.22301C15.591131 20.30301 15.499 20.41679 15.410156 20.51403C15.321316 20.61123 15.236815 20.68787 15.15625 20.70739C15.07568 20.72689 14.985639 20.70239 14.853516 20.5609C14.853516 20.5609 14.851516 20.5589 14.851516 20.5589C14.660166 20.37953 14.378537 20.3297 14.146438 20.4007C13.91434 20.4717 13.72991 20.67443 13.75386 20.97687C13.75386 20.97687 13.75386 20.97887 13.75386 20.97887C13.75386 20.97887 13.75386 20.98287 13.75386 20.98287C13.78081 21.14 13.75726 21.2403 13.71285 21.30123C13.66846 21.36213 13.60107 21.39083 13.511678 21.39103C13.332894 21.39156 13.085834 21.26379 12.937459 21.06486C12.762338 20.83007 12.359828 20.69273 11.996053 20.69572C11.814165 20.69672 11.640682 20.73572 11.509725 20.82658C11.378767 20.91738 11.29594 21.06581 11.302693 21.26212C11.308593 21.43355 11.259173 21.54196 11.1816 21.6215C11.10403 21.701 10.992345 21.75002 10.871053 21.78361C10.749761 21.81721 10.620158 21.83601 10.507771 21.85591C10.395385 21.87581 10.298917 21.89051 10.23824 21.95361C10.23824 21.95361 10.22457 21.96731 10.22457 21.96731C10.22457 21.96731 10.22457 21.98681 10.22457 21.98681C10.15078 22.07601 10.105427 22.1766 10.095664 22.2915C10.084844 22.41887 10.100964 22.5615 10.121054 22.72509C10.143114 22.90433 10.251752 23.11064 10.363241 23.37939C10.474731 23.64815 10.592022 23.97534 10.638632 24.3833C10.732102 25.20144 10.619982 26.55781 10.660112 27.65283C10.660112 27.65283 10.660112 27.65483 10.660112 27.65483C10.666412 27.72593 10.676132 27.77731 10.691362 27.81694C10.706592 27.85654 10.731302 27.89214 10.773392 27.89894C10.815482 27.90594 10.847242 27.88304 10.871052 27.85794C10.894852 27.83284 10.915562 27.79954 10.935502 27.76224C10.975382 27.68754 11.011362 27.59242 11.037064 27.50052C11.060064 27.41832 11.069294 27.34575 11.068314 27.28373C11.068314 27.28373 11.068314 27.28173 11.068314 27.28173C11.311511 26.76731 11.394166 26.22637 11.488236 25.68212C11.533006 25.94957 11.585146 26.2051 11.533156 26.55712C11.467396 26.7145 11.31322 27.09384 11.242141 27.42235C11.206121 27.58883 11.189141 27.73897 11.226511 27.85204C11.245201 27.90854 11.281671 27.95891 11.33784 27.98094C11.39401 28.00294 11.460883 27.99804 11.539011 27.97094C11.539011 27.97094 11.548811 27.96694 11.548811 27.96694C11.548811 27.96694 11.556611 27.95894 11.556611 27.95894C11.832356 27.71032 11.942397 27.35094 12.015595 26.98238C12.088795 26.61382 12.126284 26.23337 12.244111 25.93355C12.244111 25.93355 12.246111 25.92955 12.246111 25.92955C12.246111 25.92955 12.246111 25.92755 12.246111 25.92755C12.277911 25.80018 12.302461 25.74674 12.320331 25.71271C12.330031 25.74631 12.339361 25.78571 12.345721 25.83966C12.353721 25.90786 12.359541 25.98117 12.361351 26.03692C12.256883 26.58426 12.210277 27.74408 12.287131 28.29083C12.287131 28.29083 12.294931 28.34943 12.294931 28.34943C12.294931 28.34943 12.351571 28.32993 12.351571 28.32993C12.468937 28.29103 12.546948 28.20548 12.593759 28.09946C12.640569 27.99345 12.659969 27.86753 12.667979 27.73423C12.683999 27.46763 12.655769 27.16909 12.683609 26.96079C12.707299 26.79342 12.762179 26.4916 12.814468 26.29087C12.824168 26.25377 12.832678 26.22557 12.841808 26.19717C12.792638 26.78223 12.896758 27.35152 12.851608 27.91787C12.838908 28.02188 12.837088 28.28238 12.865278 28.48428C12.872378 28.53498 12.880458 28.58298 12.892618 28.62295C12.904778 28.66295 12.918168 28.69595 12.945348 28.72255C12.958938 28.73585 12.977998 28.74715 13.000038 28.74985C13.022078 28.75285 13.044848 28.74685 13.062538 28.73615C13.097928 28.71475 13.122828 28.67935 13.152378 28.62678C13.152378 28.62678 13.156278 28.62278 13.156278 28.62278C13.156278 28.62278 13.156278 28.61678 13.156278 28.61678C13.331568 28.07755 13.324793 27.50008 13.306669 26.94881C13.306669 26.94881 13.306669 26.94681 13.306669 26.94681C13.306669 26.94681 13.306669 26.94481 13.306669 26.94481C13.294359 26.84252 13.311169 26.79091 13.316469 26.78465C13.316469 26.78465 13.318469 26.78265 13.318469 26.78265C13.321969 26.78291 13.333779 26.78865 13.347769 26.79825C13.375749 26.81835 13.411729 26.86025 13.437609 26.91153C13.463499 26.96283 13.478739 27.02222 13.476669 27.07364C13.476669 27.07364 13.476669 27.08534 13.476669 27.08534C13.476669 27.08534 13.480569 27.09534 13.480569 27.09534C13.586888 27.35431 13.511409 27.73724 13.462989 28.08362C13.438779 28.25681 13.421349 28.42142 13.445409 28.56213C13.469469 28.70285 13.542919 28.82367 13.685644 28.88049C13.756114 28.90859 13.820419 28.91479 13.875097 28.89419C13.929777 28.87359 13.968527 28.82769 13.992285 28.77309C14.039805 28.66392 14.044085 28.51102 14.037205 28.33755C14.023455 27.9906 13.955595 27.55731 13.982515 27.31801C13.982515 27.31801 13.982515 27.31201 13.982515 27.31201C13.982515 27.31201 13.982515 27.30601 13.982515 27.30601C13.974215 27.23711 13.954515 27.00944 13.951265 26.8353C13.951097 26.8263 13.951321 26.8245 13.951265 26.8158C14.015505 27.33411 14.135982 27.84425 14.343843 28.32361C14.343843 28.32361 14.345843 28.32561 14.345843 28.32561C14.345843 28.32561 14.345843 28.32761 14.345843 28.32761C14.642473 28.87984 15.180828 29.26611 15.724749 29.53659C15.724749 29.53659 15.726749 29.53859 15.726749 29.53859C15.726749 29.53859 15.730649 29.54059 15.730649 29.54059C16.098365 29.66465 16.350037 29.67961 16.595883 29.69098C16.841729 29.70238 17.081989 29.70958 17.443539 29.81793C17.443539 29.81793 17.445539 29.81793 17.445539 29.81793C17.445539 29.81793 17.447539 29.81993 17.447539 29.81993C17.708141 29.87143 18.113819 29.87643 18.521757 29.86683C18.929696 29.85683 19.33873 29.83153 19.595976 29.81413C19.595976 29.81413 19.791289 29.80043 19.791289 29.80043C19.791289 29.80043 19.613554 29.71843 19.613554 29.71843C19.240024 29.54563 18.927645 29.51269 18.670195 29.4821C18.412745 29.4515 18.215891 29.4248 18.047148 29.27702C18.047148 29.27702 18.045148 29.27502 18.045148 29.27502C17.789434 29.07499 17.534806 29.04234 17.293195 29.01525C17.051584 28.98815 16.822715 28.96455 16.580304 28.79259C16.580304 28.79259 16.578304 28.79259 16.578304 28.79259C16.578304 28.79259 16.576304 28.79059 16.576304 28.79059C16.13199 28.53949 15.972415 28.01606 15.996226 27.52106C15.996226 27.52106 15.996226 27.51506 15.996226 27.51506C15.996226 27.51506 15.994226 27.51106 15.994226 27.51106C15.980176 27.43136 15.946776 27.16979 15.951256 27.0013C15.952356 26.9592 15.957456 26.922 15.962976 26.89778C15.965776 26.88568 15.962889 26.88978 15.964976 26.88608C15.981686 26.90238 16.008846 26.94038 16.041146 26.99741C16.118946 27.18037 16.111056 27.42151 16.138806 27.65366C16.166626 27.88648 16.240272 28.11732 16.490368 28.24546C16.490368 28.24546 16.533338 28.26696 16.533338 28.26696C16.533338 28.26696 16.556778 28.22596 16.556778 28.22596C16.689897 27.98329 16.644418 27.70365 16.611468 27.43885C16.581838 27.2007 16.589738 26.98528 16.691548 26.79236C16.741888 26.82916 16.793788 26.86306 16.822408 26.93299C16.861948 27.02969 16.883478 27.15438 16.902488 27.28846C16.940498 27.55662 16.962778 27.86103 17.13491 28.05994C17.13491 28.05994 17.15835 28.08724 17.15835 28.08724C17.15835 28.08724 17.19155 28.07354 17.19155 28.07354C17.23948 28.05404 17.27394 28.01404 17.293113 27.96808C17.312283 27.92218 17.319003 27.87008 17.320453 27.81182C17.323353 27.69527 17.303323 27.55416 17.281393 27.40558C17.240953 27.1316 17.222833 26.85079 17.293113 26.66729C17.356013 26.69419 17.416876 26.72139 17.453269 26.77862C17.501989 26.85522 17.531379 26.95929 17.547019 27.07354C17.578299 27.30206 17.555119 27.57 17.558739 27.763C17.558739 27.763 17.562639 27.7474 17.562639 27.7474C17.487469 27.97972 17.625799 28.16171 17.779436 28.20053C17.856256 28.21993 17.943738 28.20253 17.996233 28.13603C18.047083 28.07143 18.057913 27.96882 18.027483 27.83721C18.027483 27.83721 18.027483 27.83321 18.027483 27.83321C18.018183 27.57205 17.921271 27.26148 17.86342 26.96993C17.82599 26.78129 17.87395 26.65007 17.89858 26.50313C17.97844 26.72898 18.047048 26.98362 18.08022 27.27852C18.10232 27.475 18.12623 27.65932 18.17592 27.80001C18.20077 27.87031 18.23287 27.93086 18.277483 27.97579C18.322093 28.02069 18.38165 28.04729 18.449358 28.04609C18.517138 28.04509 18.575551 28.01479 18.61342 27.96599C18.65129 27.91729 18.67283 27.85465 18.68373 27.7824C18.70554 27.6379 18.68903 27.4508 18.66225 27.25115C18.6087 26.85185 18.507006 26.39277 18.521625 26.17888C18.526725 26.10308 18.536545 26.04937 18.547015 26.01482C18.557485 25.98032 18.570675 25.96862 18.568495 25.96992C18.566295 25.97092 18.558245 25.96792 18.568495 25.97592C18.578745 25.98392 18.596415 26.00452 18.613415 26.03252C18.647415 26.08862 18.681175 26.17437 18.703255 26.25908C18.725335 26.34378 18.734665 26.4283 18.726695 26.47392C18.726695 26.47392 18.726695 26.47592 18.726695 26.47592C18.726695 26.47592 18.724695 26.47792 18.724695 26.47792C18.705195 26.65479 18.735135 26.97794 18.812585 27.19667C18.831945 27.25137 18.854615 27.3007 18.882895 27.33925C18.911175 27.37775 18.948535 27.40855 18.996177 27.41545C19.043817 27.42245 19.091937 27.40005 19.132895 27.36075C19.173855 27.32145 19.211135 27.26485 19.252036 27.18302C19.252036 27.18302 19.255936 27.17702 19.255936 27.17702C19.255936 27.17702 19.257936 27.17102 19.257936 27.17102C19.310106 26.9219 19.203186 26.64326 19.132936 26.38391C19.097806 26.25423 19.071456 26.12937 19.072386 26.01868C19.073058 25.93878 19.109486 25.87645 19.144656 25.81164C19.359761 25.99694 19.487048 26.23113 19.523563 26.51086C19.563683 26.81822 19.528863 27.15451 19.498173 27.45227C19.49801 27.45317 19.498333 27.45327 19.498173 27.45427C19.498109 27.45489 19.498236 27.45527 19.498173 27.45627C19.480173 27.55854 19.481113 27.62794 19.511843 27.67892C19.527483 27.70482 19.555073 27.72432 19.584113 27.72772C19.613153 27.73072 19.639093 27.72272 19.662243 27.71012C19.708523 27.68442 19.749163 27.64062 19.781384 27.58512C19.813604 27.52972 19.837464 27.46224 19.839974 27.39176C19.839974 27.39176 19.839974 27.38976 19.839974 27.38976C19.842174 26.79182 20.017668 26.14884 19.795054 25.54015C19.795054 25.54015 19.795054 25.53815 19.795054 25.53815C19.795054 25.53815 19.793054 25.53615 19.793054 25.53615C19.744334 25.43419 19.652675 25.34773 19.550866 25.26467C19.449057 25.18157 19.337023 25.10279 19.248132 25.02053C19.159242 24.93823 19.0956 24.8547 19.080163 24.77248C19.064723 24.69028 19.089663 24.59904 19.20321 24.48147C19.20321 24.48147 19.16805 24.49707 19.16805 24.49707C19.396723 24.49007 19.588162 24.33948 19.664143 24.15332C19.702133 24.06022 19.710663 23.95547 19.677813 23.8584C19.644963 23.7613 19.570286 23.67332 19.451251 23.61035C19.451251 23.61035 19.441451 23.60435 19.441451 23.60435C19.441451 23.60435 19.429731 23.60435 19.429731 23.60435C19.205478 23.59735 19.030076 23.47649 18.968793 23.33482C18.938153 23.26402 18.934763 23.1895 18.964893 23.11412C18.995013 23.03872 19.061103 22.96117 19.177783 22.89342C19.177783 22.89342 19.167983 22.89742 19.167983 22.89742C19.349566 22.83202 19.456252 22.72874 19.490248 22.61031C19.524248 22.49188 19.484348 22.3679 19.408218 22.26656C19.255875 22.06388 18.944884 21.93163 18.660171 22.06344C18.660171 22.06344 18.656271 22.06544 18.656271 22.06544C18.656271 22.06544 18.652371 22.06744 18.652371 22.06744C18.425376 22.22186 18.209018 22.21144 18.044949 22.10454C17.88088 21.99766 17.768601 21.78895 17.775418 21.52837C17.775418 21.52837 17.775418 21.52437 17.775418 21.52437C17.775418 21.52437 17.775418 21.52037 17.775418 21.52037C17.754988 21.35222 17.700968 21.24603 17.615261 21.19029C17.529551 21.13459 17.424783 21.13549 17.320339 21.15509C17.111452 21.19429 16.876335 21.3026 16.705105 21.2879C16.705105 21.2879 16.703105 21.2879 16.703105 21.2879C16.613765 21.2859 16.551605 21.2692 16.509746 21.2449C16.467886 21.2206 16.443996 21.1883 16.427716 21.1472C16.395146 21.0651 16.402616 20.94093 16.417916 20.80736C16.433246 20.67379 16.454426 20.53334 16.425716 20.40892C16.397216 20.28537 16.30459 20.18149 16.130794 20.15111C16.130794 20.15111 16.130859 20.15311 16.130859 20.15311M16.105469 20.24881C16.105469 20.24881 16.109369 20.24881 16.109369 20.24881C16.109369 20.24881 16.113269 20.24881 16.113269 20.24881C16.261115 20.27361 16.307886 20.33621 16.330066 20.43241C16.352246 20.52851 16.335766 20.66252 16.320266 20.79764C16.304756 20.93276 16.287646 21.06968 16.333936 21.18631C16.357086 21.24461 16.398046 21.29742 16.458936 21.3328C16.519826 21.3682 16.598514 21.3866 16.699171 21.3894C16.91528 21.4071 17.153424 21.2896 17.339796 21.25463C17.433256 21.23703 17.507414 21.24163 17.560499 21.27613C17.613579 21.31063 17.657209 21.3815 17.675733 21.53394C17.675733 21.53394 17.675733 21.52794 17.675733 21.52794C17.668133 21.81858 17.793475 22.0619 17.990186 22.19005C18.186898 22.3182 18.454906 22.32379 18.708936 22.15095C18.708936 22.15095 18.701136 22.15495 18.701136 22.15495C18.936502 22.04599 19.203046 22.16195 19.328089 22.32878C19.390609 22.41198 19.415909 22.50322 19.392539 22.58464C19.369169 22.66604 19.296829 22.74697 19.134727 22.80534C19.134727 22.80534 19.130827 22.80734 19.130827 22.80734C19.130827 22.80734 19.126927 22.80934 19.126927 22.80934C18.995682 22.88554 18.911099 22.97869 18.871068 23.07887C18.831038 23.17905 18.836928 23.28328 18.876968 23.37574C18.956968 23.56068 19.167511 23.69808 19.425796 23.70582C19.425796 23.70582 19.404316 23.69982 19.404316 23.69982C19.505048 23.75312 19.559848 23.82181 19.584003 23.89318C19.608163 23.96458 19.600723 24.04138 19.570333 24.11584C19.509553 24.26476 19.351423 24.39325 19.166037 24.39904C19.166037 24.39904 19.144557 24.39904 19.144557 24.39904C19.144557 24.39904 19.130887 24.41464 19.130887 24.41464C19.003612 24.5464 18.960454 24.67445 18.98245 24.79159C19.00445 24.90873 19.084156 25.0059 19.179716 25.09433C19.275276 25.18273 19.387954 25.26405 19.486356 25.34433C19.583916 25.42393 19.664729 25.50394 19.7012 25.5787C19.908907 26.14896 19.74251 26.77523 19.74026 27.3912C19.73816 27.4406 19.72015 27.49302 19.69534 27.53573C19.67022 27.57893 19.63531 27.61133 19.61331 27.62363C19.60381 27.62863 19.59919 27.62963 19.59768 27.62963C19.59178 27.61963 19.58059 27.56823 19.59768 27.47338C19.59768 27.47338 19.59768 27.47138 19.59768 27.47138C19.59768 27.47138 19.59768 27.46938 19.59768 27.46938C19.62843 27.17088 19.66551 26.82384 19.62307 26.49867C19.58063 26.17351 19.456118 25.86659 19.164085 25.65883C19.164085 25.65883 19.126975 25.63153 19.126975 25.63153C19.126975 25.63153 19.097675 25.66673 19.097675 25.66673C19.007175 25.7695 18.973745 25.89308 18.972675 26.02025C18.971575 26.14741 19.001195 26.28017 19.037125 26.41282C19.108805 26.67745 19.200536 26.94341 19.158219 27.14915C19.123079 27.21705 19.088409 27.26691 19.062519 27.29173C19.034919 27.31823 19.020309 27.32063 19.009789 27.31903C18.999269 27.31703 18.982159 27.30813 18.962919 27.28193C18.943669 27.25573 18.923579 27.21363 18.906279 27.16474C18.837459 26.97039 18.808249 26.64472 18.824249 26.49286C18.824249 26.49286 18.824249 26.48886 18.824249 26.48886C18.836189 26.41556 18.824641 26.32636 18.800809 26.23495C18.776619 26.14215 18.738969 26.04983 18.697294 25.98104C18.676454 25.94664 18.654834 25.91794 18.626984 25.89704C18.599124 25.87614 18.553434 25.86484 18.517609 25.88534C18.481789 25.90574 18.465209 25.94064 18.451199 25.9869C18.437189 26.0331 18.427349 26.094 18.421899 26.1744C18.404659 26.42664 18.511879 26.874 18.564477 27.2662C18.590777 27.4623 18.602817 27.64353 18.584007 27.76815C18.574607 27.83045 18.557077 27.8767 18.535177 27.90487C18.513277 27.93307 18.489407 27.94707 18.447287 27.94787C18.405097 27.94864 18.376587 27.93597 18.347677 27.90687C18.318767 27.87777 18.293407 27.83017 18.271507 27.76819C18.227697 27.64416 18.201647 27.46323 18.179707 27.26819C18.135827 26.87813 18.110477 26.42704 17.916035 26.18421C17.916035 26.18421 17.876975 26.13541 17.876975 26.13541C17.876975 26.13541 17.837915 26.18621 17.837915 26.18621C17.679472 26.39514 17.706089 26.69073 17.765645 26.9909C17.825205 27.29106 17.919893 27.60352 17.927754 27.84246C17.927754 27.84246 17.927754 27.84846 17.927754 27.84846C17.927754 27.84846 17.929754 27.85246 17.929754 27.85246C17.959834 27.97317 17.941784 28.04245 17.916084 28.07511C17.890384 28.10781 17.853194 28.11661 17.804756 28.10441C17.707886 28.07991 17.596521 27.96501 17.656318 27.78019C17.656318 27.78019 17.660218 27.77219 17.660218 27.77219C17.660218 27.77219 17.660218 27.76219 17.660218 27.76219C17.656818 27.57935 17.680108 27.30618 17.646548 27.06102C17.629768 26.93844 17.597618 26.82209 17.537173 26.72704C17.476733 26.63194 17.384217 26.55966 17.257876 26.53368C17.257876 26.53368 17.222716 26.52568 17.222716 26.52568C17.222716 26.52568 17.205136 26.55688 17.205136 26.55688C17.079457 26.78529 17.137886 27.12529 17.181696 27.42211C17.203606 27.57052 17.223306 27.70863 17.220756 27.81078C17.219456 27.86188 17.212956 27.90378 17.201226 27.93188C17.199626 27.93588 17.197126 27.93588 17.195326 27.93988C17.081104 27.77314 17.037482 27.52639 17.001967 27.27582C16.982697 27.13989 16.959937 27.00708 16.914077 26.89496C16.868217 26.78283 16.794488 26.68918 16.677749 26.64496C16.677749 26.64496 16.642589 26.63126 16.642589 26.63126C16.642589 26.63126 16.619149 26.66246 16.619149 26.66246C16.449729 26.90311 16.478513 27.18461 16.511727 27.45153C16.539317 27.67323 16.531567 27.87195 16.476567 28.05504C16.350662 27.94455 16.259531 27.8207 16.238286 27.64293C16.211806 27.42138 16.224286 27.16876 16.132817 26.95543C16.132817 26.95543 16.130817 26.95343 16.130817 26.95343C16.130817 26.95343 16.130817 26.95143 16.130817 26.95143C16.095217 26.88803 16.064927 26.84576 16.035117 26.81666C16.020217 26.80216 16.005657 26.79046 15.986287 26.78346C15.966917 26.77646 15.941437 26.77546 15.921837 26.78546C15.882627 26.80596 15.873297 26.84196 15.865197 26.87726C15.857097 26.91256 15.852747 26.95436 15.851527 27.0003C15.846727 27.182 15.880577 27.43027 15.896447 27.52179C15.872707 28.03894 16.041081 28.60001 16.523401 28.8753C16.786392 29.06117 17.043013 29.08861 17.283166 29.11554C17.52388 29.14254 17.747523 29.17014 17.982385 29.35382C18.175342 29.52164 18.400903 29.54981 18.658166 29.58038C18.82728 29.60048 19.047193 29.67208 19.255822 29.73077C19.02447 29.74487 18.798775 29.76127 18.519494 29.76787C18.114298 29.77787 17.709123 29.76887 17.46676 29.72097C17.46676 29.72097 17.47066 29.72297 17.47066 29.72297C17.098628 29.61146 16.846517 29.60345 16.601519 29.59211C16.357627 29.58081 16.119964 29.56461 15.765582 29.44563C15.234793 29.18094 14.716848 28.80547 14.435504 28.28352C14.435065 28.2827 14.434004 28.28252 14.433504 28.28152C14.209329 27.76346 14.063516 27.21382 14.011629 26.65261C14.011629 26.65261 14.011629 26.64461 14.011629 26.64461C14.011629 26.64461 14.007729 26.63861 14.007729 26.63861C14.000529 26.62131 13.994299 26.60601 13.986249 26.59371C13.978149 26.58141 13.969549 26.56861 13.945229 26.56051C13.939129 26.55851 13.926679 26.55651 13.925699 26.55651C13.924716 26.55654 13.905129 26.56151 13.904219 26.56251C13.9033 26.56293 13.892729 26.56851 13.888589 26.57251C13.884489 26.57651 13.881389 26.58051 13.878789 26.58421C13.868669 26.59851 13.866179 26.61051 13.863159 26.62331C13.851089 26.67441 13.849759 26.7484 13.851439 26.83816C13.854839 27.01767 13.873499 27.24198 13.882689 27.31862C13.854939 27.58877 13.924179 28.00917 13.937379 28.34206C13.944079 28.51041 13.933979 28.65514 13.900269 28.73269C13.883389 28.77149 13.863879 28.79189 13.839719 28.80109C13.815559 28.81009 13.778759 28.81009 13.722531 28.78739C13.611876 28.74339 13.565265 28.66491 13.544797 28.54521C13.524327 28.42551 13.538497 28.26848 13.562377 28.09794C13.609777 27.75878 13.695955 27.36642 13.574097 27.06278C13.573552 26.99428 13.556827 26.9261 13.527227 26.86747C13.495247 26.80417 13.453497 26.75104 13.406133 26.71708C13.382453 26.70008 13.356123 26.68618 13.326053 26.68388C13.295993 26.68188 13.261173 26.69608 13.240113 26.72098C13.197993 26.77078 13.193253 26.84385 13.206913 26.95731C13.224793 27.50392 13.229073 28.06678 13.062382 28.58231C13.040262 28.61991 13.021532 28.64091 13.013552 28.64671C13.008352 28.64071 12.997282 28.62401 12.988162 28.59401C12.978362 28.56181 12.969372 28.51831 12.962772 28.47096C12.936352 28.28175 12.940872 28.01 12.951052 27.92799C12.951052 27.92799 12.951052 27.92599 12.951052 27.92599C12.998102 27.33622 12.889992 26.7609 12.941252 26.1877C12.941252 26.1877 12.941252 26.1837 12.941252 26.1837C12.941252 26.1837 12.941252 26.1797 12.941252 26.1797C12.936252 26.1232 12.930982 26.0875 12.915862 26.05666C12.912062 26.04866 12.906262 26.04106 12.898282 26.03326C12.894282 26.02926 12.890582 26.02526 12.884612 26.02156C12.878612 26.01856 12.864362 26.01556 12.863122 26.01556C12.861922 26.01539 12.848302 26.01356 12.841642 26.01556C12.834942 26.01756 12.828902 26.02056 12.824062 26.02356C12.814362 26.02856 12.807882 26.03506 12.802572 26.04116C12.781342 26.06556 12.771112 26.09336 12.757652 26.13096C12.744192 26.16866 12.732122 26.21376 12.718592 26.26573C12.664462 26.47355 12.610106 26.77549 12.58578 26.94737C12.55522 27.17604 12.58348 27.47388 12.5682 27.72862C12.5605 27.85599 12.54254 27.97084 12.50375 28.0587C12.47942 28.1138 12.42996 28.1377 12.388516 28.17003C12.329306 27.61406 12.362426 26.54273 12.458826 26.04503C12.458826 26.04503 12.460826 26.04103 12.460826 26.04103C12.460826 26.04103 12.460826 26.03503 12.460826 26.03503C12.458926 25.97673 12.453726 25.90007 12.445196 25.828C12.436696 25.7559 12.425046 25.69023 12.404186 25.6405C12.393756 25.6156 12.383856 25.5889 12.347546 25.5761C12.329396 25.5701 12.306586 25.5721 12.290906 25.5801C12.275226 25.5881 12.265186 25.6008 12.255746 25.6133C12.218016 25.6635 12.187276 25.74635 12.148325 25.90236C12.148325 25.90236 12.152225 25.89636 12.152225 25.89636C12.026663 26.21586 11.989717 26.6009 11.91785 26.96277C11.8466 27.32152 11.739211 27.6517 11.494022 27.87683C11.440002 27.89263 11.397512 27.89543 11.374881 27.88683C11.349641 27.87683 11.332671 27.85813 11.320191 27.82043C11.295231 27.74493 11.305231 27.60094 11.339721 27.44152C11.408711 27.12268 11.5653 26.73575 11.628783 26.5841C11.628783 26.5841 11.630783 26.5781 11.630783 26.5781C11.630783 26.5781 11.632783 26.5721 11.632783 26.5721C11.704973 26.0833 11.664573 25.70657 11.570283 25.34749C11.570283 25.34749 11.509733 25.12288 11.509733 25.12288C11.509733 25.12288 11.472623 25.3514 11.472623 25.3514C11.362059 26.00707 11.262054 26.64105 10.978483 27.24007C10.978483 27.24007 10.972583 27.25377 10.972583 27.25377C10.972583 27.25377 10.972583 27.26547 10.972583 27.26547C10.975783 27.30307 10.963383 27.38674 10.939383 27.4725C10.915403 27.5583 10.880403 27.6496 10.845633 27.71469C10.828253 27.74719 10.812243 27.77469 10.798763 27.78889C10.785283 27.80309 10.779963 27.79909 10.788963 27.80059C10.797963 27.80159 10.792563 27.80559 10.783063 27.78109C10.773763 27.75689 10.765443 27.71269 10.759623 27.64827C10.759623 27.64827 10.759623 27.64627 10.759623 27.64627C10.720063 26.5615 10.832013 25.20964 10.736183 24.37088C10.688113 23.95014 10.567971 23.61212 10.454933 23.33963C10.341895 23.06714 10.238692 22.85808 10.220558 22.71072C10.200498 22.54772 10.185628 22.41088 10.195168 22.29861C10.204668 22.18635 10.235748 22.10081 10.310403 22.02322C10.332833 21.99992 10.4162 21.97222 10.525247 21.95292C10.634293 21.93362 10.767983 21.91672 10.898294 21.88062C11.028604 21.84452 11.157719 21.78962 11.253762 21.69117C11.349802 21.59267 11.408827 21.45025 11.4022 21.25758C11.3964 21.08983 11.4591 20.98227 11.566262 20.90797C11.673425 20.83367 11.829748 20.79607 11.997903 20.79469C12.334212 20.79169 12.716971 20.93665 12.857278 21.12476C13.024331 21.34874 13.287837 21.49066 13.511575 21.49C13.623444 21.48967 13.729209 21.4491 13.794778 21.35914C13.860348 21.26914 13.881198 21.13824 13.851418 20.96461C13.851418 20.96461 13.853418 20.96861 13.853418 20.96861C13.832798 20.70823 13.97802 20.55641 14.175683 20.49595C14.373346 20.43545 14.621381 20.47915 14.783105 20.63071C14.926944 20.78378 15.060269 20.83344 15.17959 20.80454C15.29962 20.77544 15.39305 20.67978 15.484277 20.57993C15.575507 20.48013 15.666062 20.3732 15.765527 20.30454C15.864997 20.23584 15.966577 20.20412 16.105371 20.24794C16.105371 20.24794 16.105469 20.24881 16.105469 20.24881"
     style="stroke-linejoin:miter;font-size:medium;baseline-shift:baseline;color-rendering:auto;text-decoration-color:#000000;color:#000000;font-variant-numeric:normal;text-orientation:mixed;letter-spacing:normal;shape-rendering:auto;word-spacing:normal;stroke:none;text-decoration-line:none;marker:none;text-rendering:auto;stroke-width:0.282842754901;font-style:normal;fill:#000000;solid-opacity:1;display:inline;font-variant-position:normal;mix-blend-mode:normal;fill-opacity:1;solid-color:#000000;color-interpolation-filters:linearRGB;font-stretch:normal;stroke-miterlimit:100;font-feature-settings:normal;font-weight:normal;shape-padding:0;opacity:1;direction:ltr;vector-effect:none;font-variant-alternates:normal;font-variant:normal;visibility:visible;text-indent:0;clip-rule:nonzero;dominant-baseline:auto;font-variant-caps:normal;image-rendering:auto;white-space:normal;overflow:visible;font-family:sans-serif;text-decoration-style:solid;text-align:start;font-variant-ligatures:normal;writing-mode:lr-tb;stroke-opacity:1;isolation:auto;fill-rule:evenodd;stroke-dashoffset:0;text-anchor:start;text-decoration:none;stroke-linecap:butt;stroke-dasharray:none;enable-background:accumulate;text-transform:none;line-height:normal;color-interpolation:sRGB" />
  <path
     style="color:#000000;font-style:normal;font-variant:normal;font-weight:normal;font-stretch:normal;font-size:medium;line-height:normal;font-family:sans-serif;font-variant-ligatures:normal;font-variant-position:normal;font-variant-caps:normal;font-variant-numeric:normal;font-variant-alternates:normal;font-feature-settings:normal;text-indent:0;text-align:start;text-decoration:none;text-decoration-line:none;text-decoration-style:solid;text-decoration-color:#000000;letter-spacing:normal;word-spacing:normal;text-transform:none;writing-mode:lr-tb;direction:ltr;text-orientation:mixed;dominant-baseline:auto;baseline-shift:baseline;text-anchor:start;white-space:normal;shape-padding:0;clip-rule:nonzero;display:inline;overflow:visible;visibility:visible;opacity:1;isolation:auto;mix-blend-mode:normal;color-interpolation:sRGB;color-interpolation-filters:linearRGB;solid-color:#000000;solid-opacity:1;vector-effect:none;fill:#000000;fill-opacity:1;fill-rule:evenodd;stroke:none;stroke-width:0.28284276;stroke-linecap:butt;stroke-linejoin:miter;stroke-miterlimit:100;stroke-dasharray:none;stroke-dashoffset:0;stroke-opacity:1;marker:none;color-rendering:auto;image-rendering:auto;shape-rendering:auto;text-rendering:auto;enable-background:accumulate"
     d="M 14.400391 0.265625 L 14.103516 1.7851562 L 13.146484 0.44335938 L 13.224609 2.21875 L 11.238281 1.1269531 L 12.671875 3.0507812 L 10.345703 2.3945312 L 12.078125 3.7949219 L 10.054688 4.0605469 L 12.009766 4.6894531 L 10.740234 5.3574219 L 12.869141 5.3574219 L 11.595703 6.6308594 L 13.330078 5.984375 L 13.033203 7.5390625 L 14.140625 6.3984375 L 15.171875 8.3398438 L 19.259766 9.3808594 L 19.876953 9.5390625 L 19.291016 9.2851562 L 19.287109 9.2851562 L 16.191406 7.9453125 L 15.783203 6.5546875 L 16.679688 7.7207031 L 16.484375 6.25 L 17.685547 7.296875 L 17.8125 5.9003906 L 19.201172 6.8144531 L 18.316406 5.2148438 L 19.775391 4.8496094 L 18.458984 3.9277344 L 19.960938 3.046875 L 17.896484 2.7246094 L 18.96875 1.4902344 L 17.164062 1.8125 L 17.654297 0.76757812 L 15.960938 1.5800781 L 15.927734 0.29101562 L 14.998047 1.4804688 L 14.400391 0.265625 z M 15.835938 0.57226562 L 15.865234 1.7382812 L 17.445312 0.97851562 L 16.992188 1.9453125 L 18.707031 1.6386719 L 17.703125 2.7949219 L 19.669922 3.1015625 L 18.275391 3.9199219 L 19.539062 4.8066406 L 18.166016 5.1484375 L 18.917969 6.5078125 L 17.726562 5.7226562 L 17.601562 7.09375 L 16.349609 6 L 16.53125 7.3652344 L 15.539062 6.0722656 L 16.107422 8.0175781 L 18.677734 9.1289062 L 15.240234 8.2539062 L 14.164062 6.2304688 L 13.193359 7.2304688 L 13.462891 5.828125 L 11.990234 6.3769531 L 13.109375 5.2578125 L 11.144531 5.2578125 L 12.267578 4.6679688 L 10.511719 4.1015625 L 12.324219 3.8632812 L 10.789062 2.6230469 L 12.927734 3.2246094 L 11.59375 1.4375 L 13.332031 2.3925781 L 13.261719 0.77539062 L 14.158203 2.0351562 L 14.443359 0.57617188 L 14.978516 1.6679688 L 15.835938 0.57226562 z "
     id="outline2"
     inkscape:label="#path1133" />
  <path
     id="outline1"
     d="M5.0 0.13318C3.6616221 0.13318 2.4485642 0.53944 1.5683594 1.19958C0.68815451 1.85973 0.140625 2.7772 0.140625 3.79138C0.14198 5.54036 1.7873223 7.0238 4.046875 7.3656C4.3394792 8.26549 4.7671733 8.91311 5.5527344 9.32654C6.3427924 9.74233 7.4882111 9.92517 9.2109375 9.92615C9.2155675 9.92615 9.2160675 9.92815 9.2207075 9.92815C9.2207075 9.92815 9.75977 9.92815 9.75977 9.92815C9.75977 9.92815 9.2304732 9.82855 9.2304732 9.82855C8.3783622 9.66925 7.6684995 9.43732 7.1445356 9.04535C6.628776 8.65951 6.2988491 8.11008 6.1757856 7.31878C8.3234146 6.91169 9.8572281 5.4741 9.8593794 3.79144C9.8593794 2.77726 9.3118499 1.85979 8.431645 1.19964C7.5514358 0.53944 6.3383779 0.13318 5.0 0.13318C5.0 0.13318 5.0 0.13318 5.0 0.13318M5.0 0.23474C6.3181117 0.23474 7.510421 0.63417 8.3710938 1.27966C9.2317665 1.92516 9.7597656 2.81323 9.7597656 3.79138C9.7576656 5.43096 8.2508846 6.86577 6.1015625 7.24841C6.1015625 7.24841 6.0546875 7.25641 6.0546875 7.25641C6.0546875 7.25641 6.0605475 7.30521 6.0605475 7.30521C6.1816391 8.13829 6.5405671 8.719 7.083985 9.12552C7.5066616 9.44173 8.2948135 9.69368 8.9150585 9.84801C7.554266 9.80481 6.263038 9.58899 5.5976568 9.23881C4.8300745 8.83484 4.4191929 8.21302 4.13086 7.31498C4.13086 7.31498 4.12305 7.28568 4.12305 7.28568C4.12305 7.28568 4.0918 7.28168 4.0918 7.28168C1.8494727 6.95546 0.24155107 5.48663 0.24023748 3.79144C0.24023748 2.81329 0.76823662 1.92522 1.6289093 1.27972C2.489579 0.63417 3.6818883 0.23474 5.0 0.23474C5.0 0.23474 5.0 0.23474 5.0 0.23474"
     style="stroke-linejoin:miter;font-size:medium;baseline-shift:baseline;color-rendering:auto;text-decoration-color:#000000;color:#000000;font-variant-numeric:normal;text-orientation:mixed;letter-spacing:normal;shape-rendering:auto;word-spacing:normal;stroke:none;text-decoration-line:none;marker:none;text-rendering:auto;stroke-width:0.282842712475;font-style:normal;fill:#000000;solid-opacity:1;display:inline;font-variant-position:normal;mix-blend-mode:normal;fill-opacity:1;solid-color:#000000;color-interpolation-filters:linearRGB;font-stretch:normal;stroke-miterlimit:100;font-feature-settings:normal;font-weight:normal;shape-padding:0;opacity:1;direction:ltr;vector-effect:none;font-variant-alternates:normal;font-variant:normal;visibility:visible;text-indent:0;clip-rule:nonzero;dominant-baseline:auto;font-variant-caps:normal;image-rendering:auto;white-space:normal;overflow:visible;font-family:sans-serif;text-decoration-style:solid;text-align:start;font-variant-ligatures:normal;writing-mode:lr-tb;stroke-opacity:1;isolation:auto;fill-rule:nonzero;stroke-dashoffset:0;text-anchor:start;text-decoration:none;stroke-linecap:butt;stroke-dasharray:none;enable-background:accumulate;text-transform:none;line-height:normal;color-interpolation:sRGB" />
  <path
     style="stroke-linejoin:miter;font-size:medium;baseline-shift:baseline;color-rendering:auto;text-decoration-color:#000000;color:#000000;font-variant-numeric:normal;text-orientation:mixed;letter-spacing:normal;shape-rendering:auto;word-spacing:normal;stroke:none;text-decoration-line:none;marker:none;text-rendering:auto;stroke-width:0.565685439091;font-style:normal;fill:#000000;solid-opacity:1;display:inline;font-variant-position:normal;mix-blend-mode:normal;fill-opacity:1;solid-color:#000000;color-interpolation-filters:linearRGB;font-stretch:normal;stroke-miterlimit:100;font-feature-settings:normal;font-weight:normal;shape-padding:0;opacity:1;direction:ltr;vector-effect:none;font-variant-alternates:normal;font-variant:normal;visibility:visible;text-indent:0;clip-rule:nonzero;dominant-baseline:auto;font-variant-caps:normal;image-rendering:auto;white-space:normal;overflow:visible;font-family:sans-serif;text-decoration-style:solid;text-align:start;font-variant-ligatures:normal;writing-mode:lr-tb;stroke-opacity:1;isolation:auto;fill-rule:nonzero;stroke-dashoffset:0;text-anchor:start;text-decoration:none;stroke-linecap:butt;stroke-dasharray:0.4, 0.4;enable-background:accumulate;text-transform:none;line-height:normal;color-interpolation:sRGB"
     d="M 25.162109 0.21679688 L 25.146484 0.41601562 L 25.544922 0.44726562 L 25.560547 0.24804688 L 25.162109 0.21679688 z M 24.748047 0.23046875 L 24.349609 0.25976562 L 24.363281 0.45898438 L 24.761719 0.4296875 L 24.748047 0.23046875 z M 25.958984 0.27734375 L 25.943359 0.4765625 L 25.955078 0.4765625 L 25.960938 0.47851562 L 26.320312 0.56054688 L 26.365234 0.36523438 L 26 0.28125 L 25.994141 0.27929688 L 25.986328 0.27929688 L 25.958984 0.27734375 z M 23.9375 0.31445312 L 23.548828 0.40429688 L 23.59375 0.59960938 L 23.982422 0.50976562 L 23.9375 0.31445312 z M 26.753906 0.45507812 L 26.708984 0.65039062 L 26.814453 0.67382812 L 26.818359 0.67578125 L 27.070312 0.77734375 L 27.146484 0.59179688 L 26.888672 0.48828125 L 26.880859 0.484375 L 26.873047 0.48242188 L 26.753906 0.45507812 z M 23.146484 0.50585938 L 22.775391 0.65625 L 22.849609 0.84179688 L 23.220703 0.69140625 L 23.146484 0.50585938 z M 27.517578 0.7421875 L 27.441406 0.92773438 L 27.599609 0.99023438 L 27.603516 0.9921875 L 27.78125 1.1035156 L 27.884766 0.93164062 L 27.693359 0.81445312 L 27.6875 0.81054688 L 27.679688 0.80664062 L 27.517578 0.7421875 z M 22.402344 0.80664062 L 22.394531 0.81054688 L 22.386719 0.81445312 L 22.048828 1.0234375 L 22.152344 1.1933594 L 22.478516 0.9921875 L 22.492188 0.984375 L 22.445312 0.91015625 L 22.404297 0.80664062 L 22.402344 0.80664062 z M 28.226562 1.140625 L 28.121094 1.3125 L 28.275391 1.40625 L 28.277344 1.4082031 L 28.423828 1.5429688 L 28.558594 1.3925781 L 28.396484 1.2480469 L 28.390625 1.2421875 L 28.382812 1.2363281 L 28.226562 1.140625 z M 21.707031 1.2324219 L 21.699219 1.2363281 L 21.691406 1.2421875 L 21.685547 1.2480469 L 21.394531 1.5097656 L 21.529297 1.6582031 L 21.804688 1.4082031 L 21.808594 1.4042969 L 21.8125 1.4023438 L 21.818359 1.3964844 L 21.787109 1.3613281 L 21.707031 1.2324219 z M 28.855469 1.6621094 L 28.720703 1.8105469 L 28.820312 1.8984375 L 28.966797 2.0976562 L 29.126953 1.9785156 L 28.978516 1.7753906 L 28.972656 1.7675781 L 28.964844 1.7597656 L 28.855469 1.6621094 z M 21.087891 1.796875 L 20.851562 2.1191406 L 21.013672 2.2363281 L 21.25 1.9140625 L 21.087891 1.796875 z M 29.363281 2.3027344 L 29.201172 2.4199219 L 29.240234 2.4726562 L 29.359375 2.7597656 L 29.544922 2.6835938 L 29.419922 2.3847656 L 29.414062 2.3730469 L 29.408203 2.3632812 L 29.363281 2.3027344 z M 20.625 2.4746094 L 20.470703 2.84375 L 20.65625 2.9199219 L 20.808594 2.5507812 L 20.625 2.4746094 z M 29.699219 3.0800781 L 29.501953 3.1054688 L 29.554688 3.5019531 L 29.753906 3.4746094 L 29.699219 3.0800781 z M 20.359375 3.25 L 20.304688 3.6464844 L 20.503906 3.6738281 L 20.556641 3.2773438 L 20.359375 3.25 z M 29.580078 3.875 L 29.533203 4.2714844 L 29.732422 4.2949219 L 29.779297 3.8964844 L 29.580078 3.875 z M 20.523438 4.0449219 L 20.324219 4.0703125 L 20.363281 4.390625 L 20.363281 4.4023438 L 20.367188 4.4121094 L 20.394531 4.484375 L 20.582031 4.4160156 L 20.558594 4.3496094 L 20.523438 4.0449219 z M 29.421875 4.6308594 L 29.333984 4.8789062 L 29.275391 4.9785156 L 29.445312 5.0820312 L 29.513672 4.9707031 L 29.517578 4.9628906 L 29.521484 4.953125 L 29.611328 4.6972656 L 29.421875 4.6308594 z M 20.71875 4.7929688 L 20.529297 4.8613281 L 20.576172 4.9882812 L 20.580078 4.9980469 L 20.585938 5.0078125 L 20.726562 5.2324219 L 20.894531 5.125 L 20.765625 4.9199219 L 20.763672 4.9160156 L 20.71875 4.7929688 z M 29.068359 5.3203125 L 29.037109 5.375 L 29.033203 5.3808594 L 28.824219 5.6132812 L 28.972656 5.7460938 L 29.1875 5.5078125 L 29.193359 5.5 L 29.197266 5.4921875 L 29.238281 5.4238281 L 29.068359 5.3203125 z M 21.101562 5.4453125 L 20.955078 5.5820312 L 21.226562 5.875 L 21.373047 5.7382812 L 21.101562 5.4453125 z M 28.560547 5.8886719 L 28.246094 6.1386719 L 28.371094 6.2949219 L 28.683594 6.0449219 L 28.560547 5.8886719 z M 21.654297 5.9980469 L 21.533203 6.15625 L 21.851562 6.3984375 L 21.972656 6.2402344 L 21.654297 5.9980469 z M 27.927734 6.3515625 L 27.580078 6.5488281 L 27.679688 6.7226562 L 28.027344 6.5253906 L 27.927734 6.3515625 z M 22.300781 6.4355469 L 22.207031 6.6113281 L 22.558594 6.8027344 L 22.652344 6.625 L 22.300781 6.4355469 z M 27.226562 6.7011719 L 26.855469 6.8476562 L 26.927734 7.0332031 L 27.300781 6.8867188 L 27.226562 6.7011719 z M 23.013672 6.7617188 L 22.945312 6.9511719 L 23.320312 7.0878906 L 23.388672 6.8984375 L 23.013672 6.7617188 z M 26.480469 6.9414062 L 26.091797 7.0371094 L 26.138672 7.2304688 L 26.527344 7.1367188 L 26.480469 6.9414062 z M 23.765625 6.9804688 L 23.724609 7.1757812 L 24.115234 7.2597656 L 24.158203 7.0644531 L 23.765625 6.9804688 z M 26.279297 7.4394531 L 26.083984 7.4785156 L 26.128906 7.7089844 L 26.130859 7.7148438 L 26.132812 7.7207031 L 26.1875 7.8789062 L 26.376953 7.8125 L 26.326172 7.6679688 L 26.326172 7.6660156 L 26.279297 7.4394531 z M 24.378906 7.4902344 L 24.191406 7.5585938 L 24.283203 7.8105469 L 24.285156 7.8164062 L 24.289062 7.8222656 L 24.347656 7.9394531 L 24.525391 7.8496094 L 24.470703 7.7421875 L 24.46875 7.734375 L 24.466797 7.7324219 L 24.378906 7.4902344 z M 26.509766 8.171875 L 26.333984 8.2675781 L 26.525391 8.6191406 L 26.701172 8.5234375 L 26.509766 8.171875 z M 24.705078 8.2070312 L 24.525391 8.296875 L 24.554688 8.3515625 L 24.558594 8.3613281 L 24.5625 8.3671875 L 24.765625 8.6367188 L 24.925781 8.5175781 L 24.728516 8.2558594 L 24.705078 8.2070312 z M 25.179688 8.7929688 L 25.050781 8.9472656 L 25.355469 9.203125 L 25.365234 9.2109375 L 25.375 9.2167969 L 25.376953 9.2167969 L 25.423828 9.1210938 L 25.484375 9.0507812 L 25.466797 9.0371094 L 25.179688 8.7929688 z M 26.941406 8.8183594 L 26.787109 8.9453125 L 26.830078 9 L 26.837891 9.0078125 L 26.845703 9.0136719 L 27.099609 9.2226562 L 27.226562 9.0683594 L 26.980469 8.8652344 L 26.941406 8.8183594 z M 25.824219 9.21875 L 25.732422 9.3964844 L 25.945312 9.5039062 L 25.953125 9.5078125 L 25.962891 9.5117188 L 26.119141 9.5546875 L 26.173828 9.3632812 L 26.023438 9.3203125 L 26.017578 9.3183594 L 25.824219 9.21875 z M 27.548828 9.2714844 L 27.451172 9.4472656 L 27.640625 9.5507812 L 27.646484 9.5546875 L 27.654297 9.5585938 L 27.826172 9.6210938 L 27.896484 9.4335938 L 27.726562 9.3710938 L 27.722656 9.3691406 L 27.548828 9.2714844 z M 26.558594 9.4707031 L 26.503906 9.6640625 L 26.691406 9.7167969 L 26.697266 9.71875 L 26.705078 9.71875 L 26.908203 9.7480469 L 26.935547 9.5488281 L 26.746094 9.5234375 L 26.558594 9.4707031 z M 28.261719 9.5625 L 28.236328 9.6660156 L 28.119141 9.6621094 L 28.111328 9.8613281 L 28.511719 9.8769531 L 28.513672 9.828125 L 28.605469 9.8496094 L 28.650391 9.6542969 L 28.261719 9.5625 z M 27.332031 9.6035156 L 27.304688 9.8007812 L 27.621094 9.84375 L 27.626953 9.84375 L 27.630859 9.84375 L 27.712891 9.8476562 L 27.71875 9.6464844 L 27.648438 9.6445312 L 27.332031 9.6035156 z "
     id="outline3"
     inkscape:label="#path1216" />
  <path
     id="outline5"
     d="M10.150391 10.15076C10.150391 10.15076 10.150391 10.19956 10.150391 10.19956C10.150391 10.19956 10.150391 11.28941 10.150391 11.28941C10.150391 11.28941 11.15625 11.53745 11.15625 11.53745C11.15625 11.53745 10.150391 11.76988 10.150391 11.76988C10.150391 11.76988 10.150391 15.76011 10.150391 15.76011C10.150391 15.76011 13.498047 15.76011 13.498047 15.76011C13.498047 15.76011 14.833984 18.60972 14.833984 18.60972C14.833984 18.60972 16.998047 17.66831 16.998047 17.66831C16.998047 17.66831 19.224609 19.61558 19.224609 19.61558C19.224609 19.61558 19.529297 19.88316 19.529297 19.88316C19.529297 19.88316 17.490234 16.89097 17.490234 16.89097C17.490234 16.89097 15.701172 17.24839 15.701172 17.24839C15.701172 17.24839 15.224609 15.76011 15.224609 15.76011C15.224609 15.76011 19.90625 15.76011 19.90625 15.76011C19.90625 15.76011 19.90625 14.56675 19.90625 14.56675C19.90625 14.56675 19.166016 14.36753 19.166016 14.36753C19.166016 14.36753 19.90625 14.12925 19.90625 14.12925C19.90625 14.12925 19.90625 10.15074 19.90625 10.15074C19.90625 10.15074 10.150391 10.15076 10.150391 10.15076M10.250001 10.25036C10.250001 10.25036 19.806642 10.25036 19.806642 10.25036C19.806642 10.25036 19.806642 14.05701 19.806642 14.05701C19.806642 14.05701 18.814454 14.37536 18.814454 14.37536C18.814454 14.37536 19.806642 14.64294 19.806642 14.64294C19.806642 14.64294 19.806642 15.65857 19.806642 15.65857C19.806642 15.65857 15.087892 15.65857 15.087892 15.65857C15.087892 15.65857 15.634767 17.36365 15.634767 17.36365C15.634767 17.36365 17.445313 17.00232 17.445313 17.00232C17.445313 17.00232 19.003907 19.29138 19.003907 19.29138C19.003907 19.29138 17.015626 17.55115 17.015626 17.55115C17.015626 17.55115 14.882813 18.47888 14.882813 18.47888C14.882813 18.47888 13.562501 15.65857 13.562501 15.65857C13.562501 15.65857 10.25 15.65857 10.25 15.65857C10.25 15.65857 10.25 11.84997 10.25 11.84997C10.25 11.84997 11.583984 11.53943 11.583984 11.53943C11.583984 11.53943 10.25 11.2113 10.25 11.2113C10.25 11.2113 10.250001 10.25036 10.250001 10.25036"
     style="stroke-linejoin:miter;font-size:medium;baseline-shift:baseline;color-rendering:auto;text-decoration-color:#000000;color:#000000;font-variant-numeric:normal;text-orientation:mixed;letter-spacing:normal;shape-rendering:auto;word-spacing:normal;stroke:none;text-decoration-line:none;marker:none;text-rendering:auto;stroke-width:0.282842712475;font-style:normal;fill:#000000;solid-opacity:1;display:inline;font-variant-position:normal;mix-blend-mode:normal;fill-opacity:1;solid-color:#000000;color-interpolation-filters:linearRGB;font-stretch:normal;stroke-miterlimit:100;font-feature-settings:normal;font-weight:normal;shape-padding:0;opacity:1;direction:ltr;vector-effect:none;font-variant-alternates:normal;font-variant:normal;visibility:visible;text-indent:0;clip-rule:nonzero;dominant-baseline:auto;font-variant-caps:normal;image-rendering:auto;white-space:normal;overflow:visible;font-family:sans-serif;text-decoration-style:solid;text-align:start;font-variant-ligatures:normal;writing-mode:lr-tb;stroke-opacity:1;isolation:auto;fill-rule:nonzero;stroke-dashoffset:0;text-anchor:start;text-decoration:none;stroke-linecap:butt;stroke-dasharray:none;enable-background:accumulate;text-transform:none;line-height:normal;color-interpolation:sRGB" />
  <path
     id="outline6"
     d="M25.080078 10.15857C25.080078 10.15857 25.080078 10.17227 25.080078 10.17227C24.906059 10.17027 24.726512 10.19987 24.541016 10.29141C24.13184 10.49323 23.889194 10.8662 23.611328 11.13125C23.472395 11.26378 23.326827 11.36876 23.148438 11.42032C22.970048 11.47192 22.756971 11.47182 22.478516 11.38122C21.885961 11.18852 21.334157 11.45362 20.921875 11.81286C20.509593 12.17211 20.229523 12.61888 20.160156 12.84607C20.090046 13.07568 20.159056 13.39298 20.267578 13.71521C20.376095 14.03744 20.529139 14.36439 20.646484 14.59802C20.693234 14.69112 20.680284 14.86979 20.636684 15.08044C20.593114 15.2911 20.5236 15.53293 20.48434 15.76208C20.44508 15.99123 20.4338 16.20948 20.51754 16.37927C20.60129 16.54907 20.786151 16.65356 21.093712 16.64685C21.677454 16.63415 21.937958 16.78849 22.169884 17.00622C22.40181 17.22396 22.601263 17.51453 23.027306 17.74841C23.373598 17.93851 23.725295 17.85151 24.062462 17.73281C24.414242 18.42539 24.921698 18.96589 25.712853 19.3207C26.513188 19.67962 27.596247 19.8581 29.066368 19.85976C29.068568 19.86017 29.070068 19.86176 29.072268 19.86176C29.072268 19.86176 29.072268 19.85976 29.072268 19.85976C29.076568 19.85976 29.077668 19.86176 29.082068 19.86176C29.082068 19.86176 29.621131 19.86176 29.621131 19.86176C29.621131 19.86176 29.089881 19.76216 29.089881 19.76216C27.634096 19.49003 26.491351 18.78585 26.043006 17.53755C26.417349 17.68191 26.833325 17.87185 27.195349 17.93599C27.399378 17.97209 27.586113 17.97049 27.736365 17.88909C27.886617 17.80769 27.988867 17.64543 28.021521 17.39495C28.057081 17.1222 28.113071 16.94204 28.187537 16.81682C28.262007 16.6916 28.353886 16.62002 28.474646 16.56291C28.716166 16.44871 29.075373 16.40485 29.546912 16.16448C29.668355 16.10258 29.753536 16.03179 29.806678 15.95159C29.859818 15.87139 29.878938 15.78134 29.873088 15.69182C29.861388 15.51279 29.756753 15.3314 29.63676 15.14299C29.516767 14.95458 29.379323 14.75995 29.289103 14.57073C29.198883 14.38151 29.157778 14.20228 29.218793 14.03362C29.352099 13.66512 29.527681 13.32166 29.56059 12.98284C29.5935 12.64401 29.47105 12.31197 29.031293 12.00041C28.585305 11.68446 28.061547 11.70244 27.601605 11.69573C27.371635 11.69273 27.156537 11.68293 26.974652 11.62733C26.792768 11.57173 26.643549 11.47444 26.531293 11.28553C26.171943 10.68079 25.701248 10.1948 25.132855 10.16053C25.132855 10.16053 25.080075 10.15853 25.080075 10.15853M25.126945 10.26009C25.641405 10.29109 26.093687 10.74454 26.445304 11.33626C26.570038 11.54617 26.745808 11.66203 26.945304 11.72298C27.144801 11.78388 27.367881 11.79188 27.599601 11.79528C28.063042 11.80228 28.558502 11.78928 28.972648 12.08239C29.393024 12.38021 29.491095 12.66244 29.46093 12.97301C29.43076 13.28359 29.260946 13.62258 29.124992 13.9984C29.051372 14.2019 29.103422 14.41273 29.199212 14.61364C29.295002 14.81454 29.434812 15.01052 29.552727 15.19567C29.670643 15.38081 29.76406 15.55616 29.773431 15.69957C29.778131 15.77127 29.763531 15.83508 29.722651 15.89684C29.681731 15.95864 29.612761 16.01808 29.501948 16.07457C29.044461 16.30779 28.699468 16.34534 28.433589 16.47106C28.300649 16.53396 28.186345 16.62341 28.101557 16.76598C28.016767 16.90855 27.960378 17.1028 27.923823 17.38317C27.893803 17.61347 27.80896 17.73639 27.689448 17.80114C27.569937 17.86594 27.405526 17.87234 27.212886 17.83824C26.713853 17.71651 26.344636 17.54386 25.906246 17.37535C26.186022 18.75174 27.543344 19.4682 28.746093 19.76793C27.562269 19.72613 26.43367 19.53371 25.753905 19.22886C24.969097 18.8769 24.466623 18.35664 24.123046 17.66441C24.123046 17.66441 24.103516 17.62341 24.103516 17.62341C24.103516 17.62341 24.062496 17.63901 24.062496 17.63901C23.722545 17.76167 23.397856 17.83708 23.076168 17.66051C22.669234 17.43712 22.481287 17.16209 22.238277 16.93395C21.995268 16.70581 21.694479 16.53407 21.091793 16.54723C20.80614 16.55323 20.673628 16.47053 20.607418 16.33629C20.541208 16.20205 20.546038 16.00111 20.583978 15.77965C20.621918 15.55819 20.689675 15.31803 20.734369 15.10192C20.779059 14.8858 20.806369 14.69255 20.736369 14.55309C20.620134 14.32167 20.46731 13.99852 20.361369 13.68395C20.255428 13.36937 20.199311 13.0607 20.2559 12.87535C20.31323 12.68759 20.590781 12.23347 20.988322 11.88707C21.385864 11.54068 21.897668 11.29817 22.447307 11.47692C22.739947 11.57212 22.976332 11.57562 23.175822 11.51792C23.375312 11.46022 23.534692 11.34182 23.679729 11.20347C23.969801 10.92677 24.207027 10.56812 24.585979 10.3812C24.776395 10.2873 24.955682 10.24995 25.126994 10.26011C25.126994 10.26011 25.126945 10.26009 25.126945 10.26009"
     style="stroke-linejoin:miter;font-size:medium;baseline-shift:baseline;color-rendering:auto;text-decoration-color:#000000;color:#000000;font-variant-numeric:normal;text-orientation:mixed;letter-spacing:normal;shape-rendering:auto;word-spacing:normal;stroke:none;text-decoration-line:none;marker:none;text-rendering:auto;stroke-width:0.282842740759;font-style:normal;fill:#000000;solid-opacity:1;display:inline;font-variant-position:normal;mix-blend-mode:normal;fill-opacity:1;solid-color:#000000;color-interpolation-filters:linearRGB;font-stretch:normal;stroke-miterlimit:100;font-feature-settings:normal;font-weight:normal;shape-padding:0;opacity:1;direction:ltr;vector-effect:none;font-variant-alternates:normal;font-variant:normal;visibility:visible;text-indent:0;clip-rule:nonzero;dominant-baseline:auto;font-variant-caps:normal;image-rendering:auto;white-space:normal;overflow:visible;font-family:sans-serif;text-decoration-style:solid;text-align:start;font-variant-ligatures:normal;writing-mode:lr-tb;stroke-opacity:1;isolation:auto;fill-rule:nonzero;stroke-dashoffset:0;text-anchor:start;text-decoration:none;stroke-linecap:butt;stroke-dasharray:none;enable-background:accumulate;text-transform:none;line-height:normal;color-interpolation:sRGB" />
  <path
     id="outline9"
     d="M25.023438 20.08044C25.023438 20.08044 24.994138 20.10384 24.994138 20.10384C24.994138 20.10384 20.107419 23.90462 20.107419 23.90462C20.107419 23.90462 25.023435 27.72884 25.023435 27.72884C25.023435 27.72884 26.179685 26.8304 26.179685 26.8304C26.179685 26.8304 29.683591 29.85579 29.683591 29.85579C29.683591 29.85579 27.425778 25.86165 27.425778 25.86165C27.425778 25.86165 29.941403 23.90462 29.941403 23.90462C29.941403 23.90462 25.023438 20.08044 25.023438 20.08044M25.023438 20.20544C25.023438 20.20544 29.777344 23.90466 29.777344 23.90466C29.777344 23.90466 27.296875 25.83435 27.296875 25.83435C27.296875 25.83435 29.314453 29.40466 29.314453 29.40466C29.314453 29.40466 26.181641 26.69958 26.181641 26.69958C26.181641 26.69958 25.023438 27.60193 25.023438 27.60193C25.023438 27.60193 20.269531 23.90466 20.269531 23.90466C20.269531 23.90466 25.023438 20.20544 25.023438 20.20544"
     style="stroke-linejoin:miter;font-size:medium;baseline-shift:baseline;color-rendering:auto;text-decoration-color:#000000;color:#000000;font-variant-numeric:normal;text-orientation:mixed;letter-spacing:normal;shape-rendering:auto;word-spacing:normal;stroke:none;text-decoration-line:none;marker:none;text-rendering:auto;stroke-width:0.282842670048;font-style:normal;fill:#000000;solid-opacity:1;display:inline;font-variant-position:normal;mix-blend-mode:normal;fill-opacity:1;solid-color:#000000;color-interpolation-filters:linearRGB;font-stretch:normal;stroke-miterlimit:100;font-feature-settings:normal;font-weight:normal;shape-padding:0;opacity:1;direction:ltr;vector-effect:none;font-variant-alternates:normal;font-variant:normal;visibility:visible;text-indent:0;clip-rule:nonzero;dominant-baseline:auto;font-variant-caps:normal;image-rendering:auto;white-space:normal;overflow:visible;font-family:sans-serif;text-decoration-style:solid;text-align:start;font-variant-ligatures:normal;writing-mode:lr-tb;stroke-opacity:1;isolation:auto;fill-rule:evenodd;stroke-dashoffset:0;text-anchor:start;text-decoration:none;stroke-linecap:butt;stroke-dasharray:none;enable-background:accumulate;text-transform:none;line-height:normal;color-interpolation:sRGB" />
  <path
     style="opacity:1;vector-effect:none;fill:#ffda4f;fill-opacity:0.99425288;stroke:none;stroke-width:0.28284273;stroke-linecap:butt;stroke-linejoin:miter;stroke-miterlimit:100;stroke-dasharray:none;stroke-dashoffset:0;stroke-opacity:1;marker:none"
     d="M 4.3164062 10.255859 C 3.8788817 10.256219 3.4946553 10.537623 3.375 10.945312 C 3.2528528 10.799383 3.0699958 10.714774 2.8769531 10.714844 C 2.5222582 10.714994 2.2110939 11.105775 2.2324219 11.353516 C 1.9256249 11.351257 1.5316043 11.638605 1.53125 11.984375 C 1.5309264 12.063875 1.546834 12.142787 1.578125 12.216797 C 1.4699768 12.175297 1.3556415 12.153444 1.2402344 12.152344 C 0.9761841 12.152014 0.72199116 12.260795 0.53515625 12.453125 C 0.34832133 12.645455 0.24417138 12.905554 0.24414062 13.177734 C 0.24412475 13.482754 0.37583894 13.771957 0.60351562 13.966797 C 0.56856662 14.057397 0.55070765 14.15333 0.55078125 14.25 C 0.55116756 14.69775 0.92793328 15.060527 1.3925781 15.060547 C 1.4127791 15.060577 1.432974 15.059964 1.453125 15.058594 C 1.402723 15.159224 1.3766331 15.270273 1.3769531 15.382812 C 1.377122 15.573723 1.4527134 15.755815 1.5878906 15.890625 C 1.7230682 16.025435 1.9067454 16.101912 2.0976562 16.101562 C 2.1979578 16.101243 2.2970845 16.079963 2.3886719 16.039062 L 2.3886719 16.041016 C 2.3884923 16.463176 2.7301887 16.805741 3.1523438 16.806641 C 3.3926553 16.806691 3.6190352 16.693863 3.7636719 16.501953 C 3.9449716 16.696603 4.1935274 16.806441 4.453125 16.806641 C 4.6272744 16.806091 4.7980319 16.756139 4.9472656 16.662109 C 5.0925814 16.883439 5.3596316 17.019571 5.6484375 17.019531 C 5.8903552 17.019301 6.1195318 16.923333 6.2734375 16.757812 C 6.4039867 16.942763 6.6015651 17.050531 6.8105469 17.050781 C 7.1827313 17.050181 7.4871755 16.714599 7.4980469 16.292969 C 7.5800119 16.328469 7.6692916 16.347156 7.7597656 16.347656 C 7.9265134 16.347986 8.0870835 16.286894 8.2050781 16.177734 C 8.3230727 16.068534 8.3887891 15.920175 8.3886719 15.765625 C 8.3883526 15.667925 8.3614839 15.571868 8.3105469 15.486328 C 8.3313119 15.488328 8.3521659 15.490234 8.3730469 15.490234 C 8.6940527 15.490134 8.976147 15.27737 9.0644531 14.96875 C 9.5187524 14.81205 9.8252023 14.375163 9.8261719 13.882812 C 9.8253348 13.274453 9.3626939 12.772401 8.7714844 12.738281 C 8.7808044 12.696581 8.7853932 12.653978 8.7851562 12.611328 C 8.7842799 12.291178 8.5180296 12.03191 8.1894531 12.03125 C 8.1346601 12.03113 8.0801114 12.038234 8.0273438 12.052734 C 8.1023968 11.929504 8.142613 11.782952 8.1425781 11.632812 C 8.1424507 11.227282 7.8548412 10.898617 7.5 10.898438 C 7.3396392 10.898197 7.1849903 10.966444 7.0664062 11.089844 C 6.9196428 10.698894 6.5507221 10.440263 6.1386719 10.439453 C 5.7734319 10.439433 5.4375431 10.64261 5.2636719 10.96875 C 5.1525705 10.54973 4.7629881 10.256529 4.3164062 10.255859 z M 6.046875 17.203125 C 5.8799197 17.202815 5.7195917 17.258585 5.6015625 17.359375 C 5.4835333 17.460175 5.4175334 17.597714 5.4179688 17.740234 C 5.4181406 17.882414 5.4835995 18.018761 5.6015625 18.119141 C 5.7195256 18.219521 5.8803159 18.275701 6.046875 18.275391 C 6.392975 18.275111 6.6734702 18.035684 6.6738281 17.740234 C 6.6742623 17.598004 6.6078406 17.462078 6.4902344 17.361328 C 6.372628 17.260578 6.2134919 17.203265 6.046875 17.203125 z M 7.1230469 18.285156 C 6.9970864 18.285126 6.8780886 18.327554 6.7890625 18.402344 C 6.7000365 18.477044 6.6482885 18.577954 6.6484375 18.683594 C 6.6482853 18.789244 6.7000363 18.890104 6.7890625 18.964844 C 6.8780885 19.039544 6.9970843 19.082061 7.1230469 19.082031 C 7.2490095 19.082061 7.3699579 19.039534 7.4589844 18.964844 C 7.5480104 18.890144 7.5978085 18.789244 7.5976562 18.683594 C 7.5978053 18.577954 7.5480109 18.477084 7.4589844 18.402344 C 7.3699584 18.327644 7.2490075 18.285126 7.1230469 18.285156 z M 7.96875 19.255859 C 7.7600313 19.267559 7.5987063 19.40153 7.5996094 19.5625 C 7.6006394 19.73115 7.7787987 19.867387 7.9980469 19.867188 C 8.2165329 19.866567 8.3935104 19.73057 8.3945312 19.5625 C 8.3949039 19.39367 8.2175203 19.256489 7.9980469 19.255859 C 7.9882869 19.255579 7.978512 19.255579 7.96875 19.255859 z "
     id="body4"
     inkscape:label="#path1307" />
  <path
     style="color:#000000;font-style:normal;font-variant:normal;font-weight:normal;font-stretch:normal;font-size:medium;line-height:normal;font-family:sans-serif;font-variant-ligatures:normal;font-variant-position:normal;font-variant-caps:normal;font-variant-numeric:normal;font-variant-alternates:normal;font-feature-settings:normal;text-indent:0;text-align:start;text-decoration:none;text-decoration-line:none;text-decoration-style:solid;text-decoration-color:#000000;letter-spacing:normal;word-spacing:normal;text-transform:none;writing-mode:lr-tb;direction:ltr;text-orientation:mixed;dominant-baseline:auto;baseline-shift:baseline;text-anchor:start;white-space:normal;shape-padding:0;clip-rule:nonzero;display:inline;overflow:visible;visibility:visible;opacity:1;isolation:auto;mix-blend-mode:normal;color-interpolation:sRGB;color-interpolation-filters:linearRGB;solid-color:#000000;solid-opacity:1;vector-effect:none;fill:#000000;fill-opacity:1;fill-rule:nonzero;stroke:none;stroke-width:0.28284273;stroke-linecap:butt;stroke-linejoin:miter;stroke-miterlimit:100;stroke-dasharray:none;stroke-dashoffset:0;stroke-opacity:1;marker:none;color-rendering:auto;image-rendering:auto;shape-rendering:auto;text-rendering:auto;enable-background:accumulate"
     d="M 4.3164062 10.205078 C 3.8831062 10.205448 3.5263375 10.497512 3.3789062 10.888672 C 3.2513517 10.754012 3.0757031 10.664063 2.8769531 10.664062 C 2.5076089 10.664062 2.2121331 10.950744 2.1933594 11.308594 C 1.8017317 11.314594 1.4808493 11.612855 1.4804688 11.984375 C 1.4802399 12.040575 1.4984329 12.094307 1.5136719 12.148438 C 1.4163539 12.123397 1.3293939 12.105223 1.2402344 12.101562 C 0.952166 12.089759 0.68940048 12.223639 0.5 12.417969 C 0.31050982 12.612969 0.19339288 12.881214 0.19335938 13.177734 C 0.19335278 13.304454 0.2216387 13.426516 0.265625 13.541016 C 0.3252046 13.709796 0.42310848 13.855096 0.55078125 13.972656 C 0.51907203 14.062156 0.4999279 14.15526 0.5 14.25 C 0.5004076 14.72243 0.896859 15.102052 1.3828125 15.107422 C 1.3561085 15.177522 1.3425418 15.259406 1.3398438 15.328125 C 1.3302338 15.572967 1.4521936 15.812681 1.5546875 15.925781 C 1.6204695 15.998371 1.7071301 16.053257 1.7988281 16.091797 C 1.8908621 16.130797 1.9915738 16.152344 2.0976562 16.152344 C 2.1982253 16.152344 2.2704164 16.136709 2.3613281 16.099609 C 2.3998481 16.512959 2.7290469 16.854569 3.1523438 16.855469 C 3.391049 16.855519 3.6056098 16.734807 3.7597656 16.554688 C 3.8522466 16.646687 3.9587443 16.716283 4.0761719 16.769531 C 4.2180489 16.833861 4.3376324 16.851979 4.453125 16.855469 C 4.6310467 16.860869 4.8013216 16.802969 4.9511719 16.714844 C 5.1113336 16.926204 5.3628211 17.068399 5.6484375 17.068359 C 5.8858512 17.068129 6.1031988 16.9672 6.265625 16.8125 C 6.4007581 16.98533 6.5897845 17.101563 6.8105469 17.101562 C 7.1959815 17.101562 7.4976145 16.766059 7.5351562 16.349609 C 7.6076572 16.374909 7.682172 16.395984 7.7597656 16.396484 C 8.1321451 16.397224 8.4397193 16.116715 8.4394531 15.765625 C 8.4391936 15.686125 8.406423 15.612259 8.375 15.539062 C 8.393115 15.539022 8.4079773 15.528644 8.4257812 15.527344 C 8.4968873 15.522344 8.5664957 15.510828 8.6308594 15.486328 C 8.6815724 15.468028 8.7243825 15.440109 8.7695312 15.412109 C 8.7934193 15.396609 8.8178067 15.383434 8.8398438 15.365234 C 8.9605825 15.270434 9.0504997 15.145814 9.0976562 14.996094 C 9.5574202 14.824544 9.8759623 14.385914 9.8769531 13.882812 C 9.8761093 13.269566 9.4134194 12.775593 8.8242188 12.710938 C 8.8295686 12.677536 8.8361245 12.645128 8.8359375 12.611328 C 8.8356979 12.523828 8.8184943 12.441024 8.7851562 12.365234 C 8.6867724 12.138734 8.4564593 11.980469 8.1894531 11.980469 C 8.1571461 11.980409 8.125634 11.989471 8.09375 11.994141 C 8.147064 11.880731 8.1933894 11.761867 8.1933594 11.632812 C 8.1932206 11.203511 7.8857074 10.847846 7.5 10.847656 C 7.3486479 10.847426 7.2102101 10.918866 7.0917969 11.021484 C 7.0098279 10.834274 6.8631802 10.694339 6.6992188 10.578125 C 6.6268908 10.526855 6.5401294 10.487125 6.4726562 10.457031 C 6.3696215 10.411071 6.2570487 10.388972 6.1386719 10.388672 C 6.0368565 10.388662 5.9407096 10.410406 5.8476562 10.441406 C 5.6003978 10.515227 5.3852813 10.669535 5.25 10.890625 C 5.1046664 10.498455 4.751083 10.205738 4.3164062 10.205078 z M 4.3164062 10.304688 C 4.6959858 10.303324 5.0979636 10.60338 5.203125 11 C 5.164828 11.0774 5.1361195 11.135026 5.1171875 11.222656 L 5.2148438 11.242188 C 5.2361987 11.143387 5.2763938 11.05263 5.3242188 10.96875 C 5.3442358 10.93375 5.3707382 10.904847 5.3945312 10.873047 C 5.4291782 10.826847 5.4658122 10.782947 5.5078125 10.744141 C 5.5378645 10.716341 5.5703486 10.691569 5.6035156 10.667969 C 5.6522236 10.633569 5.7032646 10.604778 5.7578125 10.580078 C 5.7883025 10.566178 5.8177084 10.549694 5.8496094 10.539062 C 5.9415334 10.509063 6.0379802 10.488281 6.1386719 10.488281 C 6.2566467 10.488281 6.366715 10.516541 6.4707031 10.556641 C 6.5029151 10.569141 6.531956 10.587516 6.5625 10.603516 C 6.629961 10.638716 6.6932233 10.680416 6.75 10.730469 C 6.778985 10.756069 6.8081504 10.781447 6.8339844 10.810547 C 6.8873294 10.870847 6.9297054 10.939039 6.9667969 11.011719 C 6.9811139 11.039719 7.0000137 11.06405 7.0117188 11.09375 C 7.0547727 11.20387 7.0820313 11.323309 7.0820312 11.449219 C 7.0820314 11.465919 7.0828833 11.481447 7.0820312 11.498047 L 7.1816406 11.503906 C 7.1825796 11.485606 7.1835936 11.467619 7.1835938 11.449219 C 7.1835933 11.330129 7.1530045 11.220261 7.1171875 11.113281 C 7.2250194 11.007883 7.3601594 10.947046 7.5 10.947266 C 7.8239749 10.947426 8.0916769 11.250915 8.0917969 11.632812 C 8.0918281 11.767354 8.0559645 11.898156 7.9921875 12.009766 C 7.9289015 12.029566 7.8692212 12.059656 7.8144531 12.097656 L 7.8710938 12.179688 C 7.9161968 12.148388 7.9652876 12.123469 8.0273438 12.105469 C 8.0893998 12.087469 8.1391316 12.079978 8.1894531 12.080078 C 8.3406176 12.080378 8.4758793 12.140178 8.5742188 12.236328 C 8.6725576 12.332528 8.7335983 12.465836 8.7304688 12.628906 C 8.7273387 12.791976 8.6460158 12.947742 8.5058594 13.044922 L 8.5625 13.126953 C 8.6798068 13.045653 8.7491934 12.924459 8.7910156 12.792969 C 9.3444549 12.837069 9.7745994 13.307718 9.7753906 13.882812 C 9.7745166 14.326602 9.5110138 14.714866 9.1191406 14.884766 C 9.1253206 14.845566 9.1425811 14.810466 9.1425781 14.769531 C 9.1425772 14.678531 9.125252 14.589216 9.09375 14.503906 L 9 14.539062 C 9.027407 14.613263 9.0410146 14.690411 9.0410156 14.769531 C 9.0410159 14.850431 9.0202026 14.926287 8.9941406 14.998047 C 8.9841166 15.025447 8.9702624 15.050772 8.9570312 15.076172 C 8.9332823 15.121672 8.9061789 15.164572 8.8730469 15.203125 C 8.8536619 15.225625 8.834601 15.247878 8.8125 15.267578 C 8.771004 15.304478 8.723642 15.333675 8.6738281 15.359375 C 8.6544611 15.369375 8.6375385 15.382625 8.6171875 15.390625 C 8.5417415 15.420525 8.4604857 15.439353 8.3574219 15.439453 C 8.254358 15.439553 8.1391424 15.408709 8.0371094 15.349609 L 7.9863281 15.435547 C 8.0739661 15.486347 8.1715228 15.512191 8.2714844 15.525391 C 8.3131074 15.600091 8.3376176 15.681775 8.3378906 15.765625 C 8.3381125 16.058305 8.0819618 16.297515 7.7597656 16.296875 C 7.6860886 16.296445 7.6148331 16.277453 7.546875 16.251953 C 7.544575 16.134333 7.5238436 16.018679 7.4785156 15.912109 L 7.3847656 15.951172 C 7.4262316 16.048672 7.4464446 16.155122 7.4472656 16.263672 C 7.4495856 16.297972 7.4375658 16.332938 7.4335938 16.361328 C 7.4253837 16.433628 7.4155063 16.506337 7.3476562 16.667969 C 7.279806 16.829576 7.062599 16.99959 6.8105469 17 C 6.7201029 16.99989 6.6335959 16.974794 6.5527344 16.933594 C 6.5320654 16.922994 6.5155668 16.905578 6.4960938 16.892578 C 6.4398507 16.855178 6.3865225 16.810478 6.3417969 16.753906 C 6.2499919 16.637136 6.1844127 16.491416 6.1738281 16.322266 L 6.0742188 16.328125 C 6.0838588 16.482145 6.1408537 16.616588 6.2148438 16.736328 C 6.0715392 16.879728 5.8680282 16.96853 5.6484375 16.96875 C 5.3922526 16.96878 5.16337 16.847865 5.0234375 16.664062 C 5.15509 16.570262 5.2696144 16.450068 5.3476562 16.298828 L 5.2578125 16.253906 C 5.1612915 16.432492 5.0265623 16.547475 4.9199219 16.619141 C 4.8497149 16.663341 4.7731378 16.697741 4.6953125 16.720703 C 4.6168795 16.743703 4.5354713 16.755559 4.453125 16.755859 C 4.3426044 16.755779 4.2361766 16.729553 4.1347656 16.689453 C 4.1054576 16.677953 4.0786973 16.661084 4.0507812 16.646484 C 3.9754343 16.606884 3.9049253 16.556884 3.8417969 16.496094 C 3.7420949 16.400294 3.6556838 16.288441 3.6035156 16.150391 L 3.5097656 16.185547 C 3.5539446 16.302447 3.6202873 16.403421 3.6972656 16.494141 C 3.5616505 16.656001 3.364688 16.755909 3.1523438 16.755859 C 2.7654119 16.755039 2.4716928 16.436454 2.4589844 16.052734 C 2.5523804 16.005034 2.6231736 15.954004 2.6914062 15.871094 L 2.6132812 15.808594 C 2.5476724 15.902854 2.4738516 15.949829 2.3691406 15.992188 C 2.2763906 16.029706 2.2093984 16.049031 2.0976562 16.050781 C 1.727124 16.051451 1.4280623 15.753346 1.4277344 15.382812 C 1.4274615 15.286812 1.4527885 15.192839 1.4921875 15.105469 C 1.5271655 15.028969 1.5728955 14.957625 1.6347656 14.898438 L 1.5644531 14.826172 C 1.5100251 14.878272 1.4738501 14.94344 1.4375 15.007812 C 1.422531 15.008572 1.4076871 15.009766 1.3925781 15.009766 C 0.95395645 15.009443 0.60192463 14.66973 0.6015625 14.25 C 0.60150682 14.1768 0.619276 14.105296 0.640625 14.035156 C 0.81246249 14.163196 1.0119729 14.253906 1.2402344 14.253906 L 1.2402344 14.154297 C 0.99794308 14.154297 0.78262174 14.053412 0.61523438 13.898438 C 0.50678234 13.801448 0.4439508 13.688608 0.38085938 13.578125 C 0.31338907 13.459974 0.29491457 13.318184 0.29492188 13.177734 C 0.29492188 13.042704 0.32126894 12.913565 0.36914062 12.796875 C 0.41677333 12.680455 0.48725126 12.576371 0.57226562 12.488281 C 0.74339206 12.312151 0.97947653 12.198059 1.2402344 12.203125 C 1.3450795 12.205125 1.4563317 12.244409 1.546875 12.261719 C 1.630307 12.291719 1.7119969 12.329331 1.7851562 12.382812 L 1.84375 12.300781 C 1.775792 12.251181 1.6994107 12.218681 1.6230469 12.1875 C 1.5969039 12.1223 1.5817492 12.053785 1.5820312 11.984375 C 1.5823539 11.669505 1.8543502 11.412153 2.1972656 11.408203 C 2.2096936 11.529763 2.2470836 11.647474 2.3222656 11.746094 L 2.4023438 11.685547 C 2.3263577 11.585847 2.2851569 11.465757 2.2851562 11.341797 C 2.2851565 11.262097 2.3022272 11.186337 2.3320312 11.117188 C 2.4215634 10.909814 2.6306981 10.763782 2.8769531 10.763672 C 2.9586811 10.763642 3.0363366 10.785706 3.109375 10.816406 C 3.13023 10.825406 3.1484026 10.838609 3.1679688 10.849609 C 3.2179666 10.877909 3.2645628 10.911319 3.3046875 10.953125 C 3.3829135 11.034725 3.4434123 11.13334 3.4628906 11.25 L 3.5605469 11.232422 C 3.5424239 11.123872 3.4925939 11.031076 3.4296875 10.947266 C 3.6115308 10.506736 3.9368269 10.306047 4.3164062 10.304688 z M 6.046875 17.152344 C 5.6759797 17.151654 5.3661837 17.411614 5.3671875 17.740234 C 5.3675839 18.068014 5.676928 18.324909 6.046875 18.324219 C 6.4160126 18.323919 6.7242131 18.067294 6.7246094 17.740234 C 6.7256094 17.412334 6.4169603 17.152644 6.046875 17.152344 z M 6.046875 17.251953 C 6.3707752 17.252213 6.6238543 17.475714 6.6230469 17.740234 C 6.6227272 18.004074 6.3699374 18.224349 6.046875 18.224609 C 5.7230971 18.225209 5.4690698 18.004654 5.46875 17.740234 C 5.4679402 17.475124 5.7222588 17.251353 6.046875 17.251953 z M 7.1230469 18.234375 C 6.8380424 18.234325 6.5992535 18.431334 6.5996094 18.683594 C 6.599246 18.935854 6.8380374 19.130919 7.1230469 19.130859 C 7.4080564 19.130919 7.6488009 18.935854 7.6484375 18.683594 C 7.6487934 18.431334 7.4080514 18.234325 7.1230469 18.234375 z M 7.1230469 18.333984 C 7.3626816 18.333934 7.549093 18.495834 7.5488281 18.683594 C 7.5490986 18.871354 7.3626858 19.0313 7.1230469 19.03125 C 6.8834079 19.0313 6.6989482 18.871354 6.6992188 18.683594 C 6.6989538 18.495834 6.8834122 18.333934 7.1230469 18.333984 z M 7.9433594 19.214844 C 7.7518316 19.220844 7.5477368 19.36797 7.5488281 19.5625 C 7.5494476 19.66435 7.6037431 19.753856 7.6855469 19.816406 C 7.7673499 19.879006 7.8780533 19.916116 7.9980469 19.916016 C 8.1176261 19.915676 8.2272163 19.878906 8.3085938 19.816406 C 8.3899706 19.753906 8.4427428 19.66401 8.4433594 19.5625 C 8.4435844 19.46055 8.3900513 19.367687 8.3085938 19.304688 C 8.2275896 19.241528 8.1348878 19.208834 7.9433594 19.214844 z M 7.9980469 19.304688 C 8.0929799 19.299888 8.190034 19.337656 8.2480469 19.384766 C 8.3173279 19.441026 8.343898 19.493677 8.34375 19.560547 C 8.3433457 19.627147 8.3080817 19.688698 8.2460938 19.736328 C 8.1841057 19.783928 8.0969537 19.816106 7.9980469 19.816406 C 7.8987919 19.816496 7.80844 19.785881 7.7460938 19.738281 C 7.6837468 19.690581 7.6488435 19.627347 7.6484375 19.560547 C 7.6425975 19.351314 7.9031137 19.309529 7.9980469 19.304688 z "
     id="outline4"
     inkscape:label="#path1443" />
</svg>
