<?xml version="1.0" encoding="UTF-8" standalone="no"?>
<!-- Created with Inkscape (http://www.inkscape.org/) -->

<svg
   xmlns:dc="http://purl.org/dc/elements/1.1/"
   xmlns:cc="http://creativecommons.org/ns#"
   xmlns:rdf="http://www.w3.org/1999/02/22-rdf-syntax-ns#"
   xmlns:svg="http://www.w3.org/2000/svg"
   xmlns="http://www.w3.org/2000/svg"
   xmlns:sodipodi="http://sodipodi.sourceforge.net/DTD/sodipodi-0.dtd"
   xmlns:inkscape="http://www.inkscape.org/namespaces/inkscape"
   width="30"
   height="30"
   viewBox="0 0 30 30"
   version="1.1"
   id="svg8"
   inkscape:version="0.92.3 (2405546, 2018-03-11)"
   sodipodi:docname="Bubbles-modeling.svg"
   inkscape:export-filename="D:\c\KTANE\Public\HTML\img\Simon Speaks\Bubbles.png"
   inkscape:export-xdpi="1920"
   inkscape:export-ydpi="1920">
  <sodipodi:namedview
     id="base"
     pagecolor="#ffffff"
     bordercolor="#666666"
     borderopacity="1.0"
     inkscape:pageopacity="0.0"
     inkscape:pageshadow="2"
     inkscape:zoom="22.627417"
     inkscape:cx="15.721487"
     inkscape:cy="13.946985"
     inkscape:document-units="px"
     inkscape:current-layer="svg8"
     showgrid="true"
     units="px"
     showguides="false"
     inkscape:snap-nodes="true"
     inkscape:snap-global="false">
    <inkscape:grid
       spacingy="0.5"
       spacingx="0.5"
       id="grid815"
       type="xygrid" />
  </sodipodi:namedview>
  <defs
     id="defs2" />
  <metadata
     id="metadata5">
    <rdf:RDF>
      <cc:Work
         rdf:about="">
        <dc:format>image/svg+xml</dc:format>
        <dc:type
           rdf:resource="http://purl.org/dc/dcmitype/StillImage" />
        <dc:title></dc:title>
      </cc:Work>
    </rdf:RDF>
  </metadata>
  <path
     style="opacity:1;vector-effect:none;fill:#ffffff;fill-opacity:1;fill-rule:evenodd;stroke:none;stroke-width:0.30000001;stroke-linecap:butt;stroke-linejoin:miter;stroke-miterlimit:100;stroke-dasharray:none;stroke-dashoffset:0;stroke-opacity:1;marker:none"
     d="m 11.489636,21.343925 c 0.04348,-0.625235 0.705618,-0.620157 1.151088,-0.535371 0.432882,0.08239 0.911698,1.003943 1.249508,0.463182 0.20328,-0.325408 0.221809,-0.896564 0.726941,-0.775133 0.324013,0.07789 0.640263,0.413728 0.986511,0.01966 0.303062,-0.344919 0.936648,-0.0989 0.752373,0.455177 -0.253141,0.761143 0.960433,0.07418 1.130866,0.367812 0.245255,0.422534 0.246623,0.840097 0.795494,0.880277 0.389356,0.0285 1.421405,-0.411075 1.155083,0.155472 -0.194193,0.413106 -0.972985,0.897733 -0.146352,1.111026 0.552546,0.142571 0.319961,0.841161 -0.126961,1.220976 -0.495793,0.421348 0.617345,0.649314 0.624557,1.165341 0.0066,0.474919 -0.08157,0.961337 -0.08663,1.443767 -0.0031,0.296391 -0.503024,0.61766 -0.533574,0.174737 -0.03785,-0.548766 0.310856,-1.254706 -0.105173,-1.597317 -0.391483,-0.322393 -0.344623,0.738083 -0.344623,1.08201 v 1.14946 c 0,0.656592 -0.907837,-0.325407 -0.806742,-0.84208 0.05807,-0.296785 -0.13794,-1.30343 -0.426157,-1.005295 -0.431585,0.446437 0.0054,1.230365 -0.164628,1.812953 -0.139011,0.476315 -0.693172,0.136515 -0.696225,-0.278078 -0.0031,-0.423057 0.08775,-1.456156 -0.451292,-1.281541 -0.36702,0.118891 -0.144891,0.671353 -0.173712,1.012158 -0.02754,0.325721 -0.04102,0.654191 0.230077,0.908382 0.387867,0.36368 0.559273,0.216562 0.981867,0.507992 0.358859,0.247477 0.966412,0.338263 1.864265,0.706345 -1.370169,0.0081 -2.173718,-0.06829 -3.418592,-0.256406 -0.788197,-0.119104 -0.745393,-0.714559 -1.012993,-1.135879 -0.27153,-0.427508 -0.646767,-0.789617 -0.607017,-1.336353 0.0236,-0.324541 -0.425694,-1.007708 -0.599812,-0.413436 -0.161325,0.550608 0.03449,1.20846 -0.296697,1.698821 -0.390101,0.577594 -0.450604,-0.556544 -0.454022,-0.864513 -0.0053,-0.481207 0.109679,-0.995023 -0.06353,-1.442372 -0.268406,-0.693215 -0.675517,0.304269 -0.713467,0.679161 -0.04548,0.449324 2.84e-4,1.473155 -0.504405,1.382284 -0.37861,-0.06817 -0.155667,-0.745336 -0.155667,-1.112264 v -1.364908 c 0,-0.539867 -0.413462,-0.974955 -0.624866,-1.471531 -0.234093,-0.549872 -0.436999,-1.209526 -0.375865,-1.826086 0.149524,-0.553982 1.19939,-0.269167 1.240369,-0.85843 z"
     id="body8"
     inkscape:connector-curvature="0"
     sodipodi:nodetypes="csssssssssssssssssssssssscsssssssssssscsc"
     inkscape:label="#path1496" />
  <path
     style="opacity:1;vector-effect:none;fill:#ffffff;fill-opacity:1;fill-rule:evenodd;stroke:none;stroke-width:0.30000001;stroke-linecap:butt;stroke-linejoin:miter;stroke-miterlimit:100;stroke-dasharray:none;stroke-dashoffset:0;stroke-opacity:1;marker:none"
     d="M 25,20.5 20.5,24 25,27.5 26.171875,26.587891 29,29 27.25,25.75 29.5,24 Z"
     id="body9"
     inkscape:connector-curvature="0"
     sodipodi:nodetypes="cccccccc"
     inkscape:label="#path1477" />
  <path
     style="fill:#ffffff;fill-opacity:1;fill-rule:evenodd;stroke:none;stroke-width:0.30000001;stroke-linecap:butt;stroke-linejoin:miter;stroke-miterlimit:100;stroke-dasharray:none;stroke-opacity:1"
     d="M 14.293318,0.43574962 14.948916,1.0917053 15.976019,0.43574962 16.413084,1.2666269 17.746133,0.87305339 V 1.5290091 l 1.245637,0.2186519 -0.502626,0.940203 1.223783,0.6122253 -0.655598,0.7652816 0.605555,0.5684949 -0.889648,0.3717082 0.808572,0.8964727 -1.201931,1e-7 0.19668,1.2025853 L 17.243508,6.2737549 17.046829,7.4107447 15.538954,6.404946 16.238476,8.1635459 18.507286,9.359842 15.058182,8.4602737 14.074786,6.4924068 13.025829,7.6293966 12.851002,6.623598 11.56166,6.7329239 12.020579,5.8145859 10.75309,5.4866082 11.277568,4.9181132 10.363008,4.3371379 11.233861,3.6717975 10.425291,2.6441337 11.56166,2.4692122 11.212008,1.397818 l 1.464168,0.1749214 0.437066,-0.8964727 0.764865,0.4373038 z"
     id="body2"
     inkscape:connector-curvature="0"
     sodipodi:nodetypes="ccccccccccccccccccccccccccccccccccccc"
     inkscape:label="#path839-4" />
  <path
     inkscape:connector-curvature="0"
     id="body7"
     d="m 5.0102532,20.306956 c -2.6729764,6.64e-4 -4.73984324,2.117961 -4.70978182,3.205859 0.0300615,1.087909 0.63804569,4.421734 0.63804569,4.421734 l 0.62893473,-2.484094 0.41929,1.747572 0.4906583,-1.292258 0.3836057,3.006348 0.5769623,-2.750847 0.4378087,1.597135 0.3806471,-0.831492 C 4.8490925,28.451707 6.1823151,29.78125 8.84375,29.6875 6.8477089,29.108522 6.2452531,27.786353 6.0681277,26.236263 l 0.3925271,0.613791 0.2453291,-0.700814 0.7668382,1.819631 0.4575776,-2.274934 0.3836056,1.156117 0.4192899,-1.71409 0.4906584,1.783269 c 0,0 0.566969,-2.078877 0.5406874,-3.493163 C 9.738359,22.011784 7.6841014,20.306976 5.0102539,20.307164 l -7e-7,-2.08e-4"
     style="opacity:1;vector-effect:none;fill:#ffffff;fill-opacity:1;stroke:none;stroke-width:0.30000001;stroke-linecap:butt;stroke-linejoin:miter;stroke-miterlimit:100;stroke-dasharray:none;stroke-dashoffset:0;stroke-opacity:1;marker:none"
     sodipodi:nodetypes="cscccccccccccccccccscc"
     inkscape:label="#body7-3" />
  <path
     id="body1"
     d="m 5,0.23384735 c -2.6266671,0 -4.75600162,1.59845905 -4.75600162,3.57024915 C 0.24532136,5.5129753 1.8595487,6.9815276 4.094316,7.3069477 4.668876,9.0981391 5.4492039,9.7831884 8.2455565,9.7389943 7.2161055,9.5107113 6.3348766,8.902596 6.098432,7.2744067 8.2407289,6.8926632 9.7538904,5.4569687 9.7560017,3.8040965 9.7560017,1.8323064 7.6266672,0.23384735 5,0.23384735 v 0"
     style="opacity:1;vector-effect:none;fill:#ffffff;fill-opacity:1;stroke:none;stroke-width:0.30000001;stroke-linecap:butt;stroke-linejoin:miter;stroke-miterlimit:100;stroke-dasharray:none;stroke-dashoffset:0;stroke-opacity:1;marker:none"
     inkscape:connector-curvature="0"
     sodipodi:nodetypes="cccccccc" />
  <path
     id="body3"
     d="m 26.103424,7.1128809 c 2.072428,-0.366262 3.53624,-1.7437332 3.538281,-3.3295722 0,-1.8918195 -2.059888,-3.4254528 -4.600889,-3.4254528 -2.541002,0 -4.600889,1.5336333 -4.600889,3.4254528 0.0013,1.6395689 1.562861,3.0485714 3.724743,3.3607868 C 24.376741,8.4876511 24.696309,9.4375 27.28125,9.5 26.144082,9.1649271 26.050907,8.0812868 26.103424,7.1128809 Z"
     style="opacity:1;vector-effect:none;fill:#ffffff;fill-opacity:1;stroke:none;stroke-width:0.60000002;stroke-linecap:butt;stroke-linejoin:miter;stroke-miterlimit:100;stroke-dasharray:1.2, 0.59999999999999998;stroke-dashoffset:0;stroke-opacity:1;marker:none"
     inkscape:connector-curvature="0"
     sodipodi:nodetypes="ccscccc" />
  <path
     id="body5"
     d="M 10.250131,10.252272 V 11.2908 l 1.156662,0.285177 -1.156662,0.268139 v 3.856157 h 3.296005 l 1.314292,2.802755 2.375873,-0.642368 2.048705,1.487018 -1.624106,-2.486227 -1.999542,0.417899 -0.506972,-1.579077 h 4.65176 v -1.091721 l -0.856314,-0.231965 0.856314,-0.274527 v -3.849788 z"
     style="opacity:1;vector-effect:none;fill:#ffffff;fill-opacity:1;stroke:none;stroke-width:0.30000001;stroke-linecap:butt;stroke-linejoin:miter;stroke-miterlimit:100;stroke-dasharray:none;stroke-dashoffset:0;stroke-opacity:1;marker:none"
     inkscape:connector-curvature="0"
     sodipodi:nodetypes="cccccccccccccccccc" />
  <path
     id="body6"
     d="m 25.128224,10.260653 c -0.178477,-0.01059 -0.364728,0.02771 -0.559579,0.123918 -0.779405,0.384728 -0.948233,1.448515 -2.077783,1.080898 -1.129553,-0.367616 -2.103852,1.007573 -2.229146,1.418241 -0.125295,0.410677 0.246024,1.235674 0.477019,1.695925 0.230994,0.46026 -0.776547,2.026775 0.396751,2.001152 1.173298,-0.02563 1.114129,0.64346 1.937888,1.09602 0.335785,0.184467 0.676314,0.104333 1.015959,-0.01831 0.687888,1.386997 1.776313,2.103871 4.696645,2.103871 -1.315533,-0.406178 -2.425822,-1.00112 -2.836241,-2.347134 0.810803,0.294064 1.866176,0.901064 1.990146,-0.05057 0.142635,-1.094814 0.615513,-0.787954 1.534257,-1.256656 0.918745,-0.468703 -0.614871,-1.344836 -0.348591,-2.081465 0.26628,-0.736638 0.683201,-1.352169 -0.167414,-1.95525 -0.850615,-0.603072 -2.017268,0.06651 -2.486002,-0.722892 -0.35155,-0.592056 -0.808475,-1.055474 -1.343909,-1.087777 v 3e-5"
     style="opacity:1;vector-effect:none;fill:#ffffff;fill-opacity:1;stroke:none;stroke-width:0.30000001;stroke-linecap:butt;stroke-linejoin:miter;stroke-miterlimit:100;stroke-dasharray:none;stroke-dashoffset:0;stroke-opacity:1;marker:none"
     inkscape:connector-curvature="0"
     sodipodi:nodetypes="cccccccccccsccccc" />
  <path
     style="opacity:1;vector-effect:none;fill:#ffffff;fill-opacity:1;stroke:none;stroke-width:0.30000001;stroke-linecap:butt;stroke-linejoin:miter;stroke-miterlimit:100;stroke-dasharray:none;stroke-dashoffset:0;stroke-opacity:1;marker:none"
     d="m 4.3238187,10.305416 c -0.4330123,3.56e-4 -0.8132761,0.278858 -0.9316974,0.682343 -0.1208875,-0.144424 -0.3018586,-0.228161 -0.4929105,-0.228091 -0.3510369,1.48e-4 -0.6589921,0.386899 -0.6378841,0.632085 -0.3036329,-0.0023 -0.69359,0.28215 -0.6939406,0.624354 -3.203e-4,0.07868 0.015423,0.156778 0.046392,0.230025 -0.1070329,-0.04107 -0.2201891,-0.0627 -0.3344059,-0.06378 -0.2613272,-3.27e-4 -0.5128986,0.107332 -0.69780666,0.297679 -0.18490808,0.190347 -0.28798392,0.447764 -0.28801436,0.717137 -1.571e-5,0.301874 0.1303401,0.588095 0.35566873,0.780926 -0.0345886,0.08967 -0.0522634,0.184609 -0.0521905,0.280283 3.8233e-4,0.443132 0.37326243,0.802168 0.83311539,0.802188 0.019993,3e-5 0.039979,-5.77e-4 0.059923,-0.002 -0.049882,0.09959 -0.075703,0.209496 -0.075387,0.320874 1.672e-4,0.188943 0.074979,0.369157 0.2087621,0.502577 0.1337835,0.13342 0.3155664,0.209108 0.5045084,0.208761 0.099267,-3.15e-4 0.1973715,-0.02138 0.2880144,-0.06186 v 0.002 c -1.778e-4,0.417807 0.3379947,0.756839 0.7557961,0.75773 0.2378331,5e-5 0.4618783,-0.111615 0.6050234,-0.301546 0.1794299,0.192643 0.4254223,0.301348 0.6823426,0.301546 0.1723534,-5.44e-4 0.3413498,-0.04998 0.4890445,-0.143041 0.1438171,0.219047 0.4081132,0.353775 0.6939407,0.353736 0.2394227,-2.28e-4 0.4662359,-0.09521 0.6185543,-0.25902 0.1292029,0.183043 0.3247436,0.2897 0.5315702,0.289948 0.368346,-5.94e-4 0.6696505,-0.332716 0.6804097,-0.749998 0.08112,0.03513 0.1694787,0.05363 0.2590196,0.05413 0.1650281,3.27e-4 0.3239423,-0.06013 0.44072,-0.16817 0.1167777,-0.108073 0.1818163,-0.254903 0.1817003,-0.407859 -3.16e-4,-0.09669 -0.026908,-0.191759 -0.077319,-0.276417 0.020551,0.002 0.04119,0.0039 0.061855,0.0039 0.3176952,-9.9e-5 0.5968803,-0.210669 0.6842756,-0.516106 0.4496141,-0.155084 0.7529036,-0.587466 0.7538632,-1.07474 -8.286e-4,-0.602085 -0.4586981,-1.09896 -1.0438104,-1.132728 0.00922,-0.04127 0.013765,-0.08343 0.013531,-0.125644 -8.673e-4,-0.316849 -0.2643717,-0.573443 -0.5895596,-0.574096 -0.054228,-1.19e-4 -0.108214,0.0069 -0.1604375,0.02126 0.074279,-0.121959 0.1140805,-0.267 0.1140459,-0.415592 C 8.1104051,11.266867 7.8257617,10.941591 7.47458,10.941414 7.315873,10.941176 7.162819,11.008714 7.0454579,11.130847 6.9002079,10.743882 6.5350919,10.487918 6.1272912,10.487116 5.765818,10.487097 5.4333932,10.688178 5.2613152,11.010955 5.1513596,10.596256 4.765795,10.306079 4.3238187,10.305416 Z m 1.7126223,6.875625 c -0.1652334,-3.07e-4 -0.323908,0.05489 -0.4407199,0.154638 -0.116812,0.09976 -0.1821312,0.235882 -0.1817003,0.376932 1.7e-4,0.140714 0.064954,0.275655 0.1817003,0.374999 0.1167465,0.09934 0.2758786,0.154946 0.4407199,0.154639 0.3425307,-2.77e-4 0.6201331,-0.237235 0.6204873,-0.529638 C 6.657358,17.571848 6.5916218,17.437323 6.475228,17.337612 6.3588345,17.237901 6.2013396,17.181179 6.036441,17.181041 Z m 1.0650733,1.070873 c -0.1246615,-3e-5 -0.242432,0.04196 -0.33054,0.115979 -0.088108,0.07393 -0.1393222,0.173799 -0.1391747,0.27835 -1.507e-4,0.10456 0.051067,0.20438 0.1391747,0.278349 0.088108,0.07393 0.2058764,0.116009 0.33054,0.115979 0.1246635,3e-5 0.2443646,-0.04206 0.3324729,-0.115979 0.088108,-0.07393 0.1373924,-0.173789 0.1372417,-0.278349 1.476e-4,-0.104551 -0.049133,-0.204381 -0.1372417,-0.27835 -0.088108,-0.07393 -0.2078114,-0.116009 -0.3324729,-0.115979 z m 0.8369813,0.960692 c -0.2065662,0.01158 -0.3662274,0.144169 -0.3653337,0.303479 0.00102,0.166911 0.1773413,0.301743 0.3943284,0.301546 0.2162328,-6.14e-4 0.3913851,-0.135209 0.3923953,-0.301546 3.689e-4,-0.167089 -0.1751853,-0.302855 -0.3923953,-0.303479 -0.00966,-2.77e-4 -0.019334,-2.77e-4 -0.028995,0 z"
     id="body4"
     inkscape:label="#path1307"
     inkscape:connector-curvature="0" />
  <path
     style="color:#000000;font-style:normal;font-variant:normal;font-weight:normal;font-stretch:normal;font-size:medium;line-height:normal;font-family:sans-serif;font-variant-ligatures:normal;font-variant-position:normal;font-variant-caps:normal;font-variant-numeric:normal;font-variant-alternates:normal;font-feature-settings:normal;text-indent:0;text-align:start;text-decoration:none;text-decoration-line:none;text-decoration-style:solid;text-decoration-color:#000000;letter-spacing:normal;word-spacing:normal;text-transform:none;writing-mode:lr-tb;direction:ltr;text-orientation:mixed;dominant-baseline:auto;baseline-shift:baseline;text-anchor:start;white-space:normal;shape-padding:0;clip-rule:nonzero;display:inline;overflow:visible;visibility:visible;opacity:1;isolation:auto;mix-blend-mode:normal;color-interpolation:sRGB;color-interpolation-filters:linearRGB;solid-color:#000000;solid-opacity:1;vector-effect:none;fill:#000000;fill-opacity:1;fill-rule:evenodd;stroke:none;stroke-width:0.30000001;stroke-linecap:butt;stroke-linejoin:miter;stroke-miterlimit:100;stroke-dasharray:none;stroke-dashoffset:0;stroke-opacity:1;marker:none;color-rendering:auto;image-rendering:auto;shape-rendering:auto;text-rendering:auto;enable-background:accumulate"
     d="M 16.044922 20.214844 C 15.85038 20.18633 15.638296 20.249458 15.490234 20.417969 C 15.346003 20.58212 15.270524 20.574511 15.140625 20.539062 C 15.010726 20.503612 14.851203 20.399367 14.652344 20.351562 C 14.499875 20.314912 14.359132 20.327892 14.248047 20.388672 C 14.136962 20.449452 14.063921 20.54673 14.009766 20.644531 C 13.901456 20.840134 13.845504 21.06041 13.763672 21.191406 C 13.697802 21.296856 13.675932 21.296306 13.630859 21.291016 C 13.585789 21.285716 13.49503 21.236766 13.394531 21.15625 C 13.294032 21.07573 13.182516 20.970194 13.064453 20.875 C 12.94639 20.77981 12.821655 20.69136 12.667969 20.662109 C 12.432364 20.617269 12.140055 20.587936 11.873047 20.666016 C 11.606039 20.744106 11.365241 20.96877 11.339844 21.333984 C 11.332744 21.436245 11.299084 21.473788 11.220703 21.521484 C 11.142323 21.569184 11.014942 21.605084 10.873047 21.640625 C 10.731152 21.676165 10.576816 21.711155 10.433594 21.783203 C 10.290372 21.855243 10.153247 21.97981 10.103516 22.164062 L 10.101562 22.175781 L 10.099609 22.1875 C 10.034219 22.846944 10.247536 23.52698 10.486328 24.087891 C 10.712973 24.620267 11.099609 25.036719 11.099609 25.5 L 11.099609 26.865234 C 11.099609 27.018319 11.044336 27.283178 11.035156 27.527344 C 11.030556 27.649427 11.035494 27.769406 11.082031 27.882812 C 11.128571 27.99622 11.239103 28.099828 11.378906 28.125 C 11.553035 28.15635 11.719016 28.07567 11.810547 27.953125 C 11.902077 27.830581 11.945788 27.679034 11.976562 27.517578 C 12.038113 27.194667 12.037514 26.817665 12.058594 26.609375 C 12.073494 26.462139 12.186248 26.114713 12.304688 25.9375 C 12.363907 25.84889 12.422468 25.82582 12.408203 25.826172 C 12.401103 25.826348 12.394106 25.817384 12.410156 25.833984 C 12.426156 25.850604 12.455315 25.895654 12.484375 25.970703 C 12.63555 26.361144 12.531539 26.853103 12.537109 27.359375 C 12.538909 27.521137 12.551537 27.882393 12.623047 28.160156 C 12.658797 28.299038 12.689537 28.435554 12.839844 28.509766 C 12.914994 28.546876 13.018474 28.534317 13.087891 28.492188 C 13.157311 28.450057 13.209987 28.389019 13.265625 28.306641 C 13.456306 28.024315 13.490984 27.704225 13.503906 27.402344 C 13.516826 27.100463 13.510501 26.810526 13.582031 26.566406 C 13.618491 26.441985 13.652505 26.436862 13.640625 26.439453 C 13.628755 26.442053 13.655275 26.44022 13.703125 26.490234 C 13.798825 26.590265 13.894926 26.839779 13.888672 26.925781 C 13.866152 27.235584 13.962572 27.497779 14.09375 27.724609 C 14.22493 27.951439 14.388303 28.149979 14.517578 28.353516 C 14.632291 28.534124 14.68812 28.78447 14.824219 29.027344 C 14.960318 29.270217 15.203755 29.493464 15.634766 29.558594 C 16.883137 29.747238 17.700081 29.824541 19.076172 29.816406 L 19.826172 29.810547 L 19.132812 29.527344 C 18.220996 29.153537 17.604711 29.048227 17.296875 28.835938 C 17.068064 28.678144 16.889848 28.632993 16.751953 28.589844 C 16.614059 28.546694 16.51056 28.509194 16.332031 28.341797 C 16.220905 28.237601 16.173255 28.12861 16.150391 27.998047 C 16.127531 27.867484 16.136801 27.71733 16.150391 27.556641 C 16.168101 27.347214 16.114775 27.12365 16.109375 26.949219 C 16.106675 26.861999 16.117376 26.791153 16.134766 26.75 C 16.152176 26.70885 16.165563 26.691688 16.220703 26.673828 C 16.315383 26.643158 16.322567 26.654473 16.357422 26.695312 C 16.392282 26.736162 16.430682 26.839146 16.451172 26.970703 C 16.492142 27.233817 16.472969 27.591294 16.474609 27.814453 C 16.476609 28.088274 16.643958 28.315404 16.855469 28.419922 C 16.961224 28.472182 17.090446 28.493552 17.210938 28.445312 C 17.331429 28.397073 17.421238 28.282225 17.464844 28.132812 C 17.564614 27.790973 17.488178 27.43243 17.455078 27.117188 C 17.422978 26.811155 17.436188 26.576868 17.589844 26.404297 C 17.614744 26.437967 17.654757 26.501987 17.685547 26.601562 C 17.756207 26.830074 17.782415 27.168091 17.765625 27.253906 C 17.730505 27.433382 17.780705 27.615712 17.859375 27.787109 C 17.938045 27.958507 18.048808 28.119323 18.167969 28.246094 C 18.28713 28.372865 18.401708 28.476985 18.564453 28.492188 C 18.645823 28.499788 18.749966 28.459718 18.802734 28.384766 C 18.855504 28.309816 18.869141 28.224357 18.869141 28.125 L 18.869141 26.974609 C 18.869141 26.795833 18.858408 26.450933 18.892578 26.205078 C 18.907938 26.094525 18.939815 26.022707 18.953125 25.998047 C 18.960025 26.001647 18.95432 25.997927 18.96875 26.009766 C 19.04531 26.072816 19.082489 26.144291 19.103516 26.242188 C 19.124546 26.340087 19.123755 26.463264 19.109375 26.599609 C 19.080545 26.872299 18.998123 27.191619 19.019531 27.501953 C 19.029231 27.641943 19.084661 27.765774 19.193359 27.824219 C 19.302057 27.882659 19.418496 27.860196 19.509766 27.816406 C 19.692306 27.728796 19.849137 27.55031 19.851562 27.318359 C 19.856462 26.853145 19.946333 26.365996 19.939453 25.871094 C 19.936853 25.688329 19.837341 25.5418 19.726562 25.427734 C 19.615785 25.313668 19.485248 25.220419 19.380859 25.136719 C 19.276471 25.053019 19.204785 24.973599 19.191406 24.939453 C 19.184706 24.922383 19.184453 24.922253 19.189453 24.908203 C 19.194453 24.894153 19.212839 24.863806 19.261719 24.822266 C 19.509975 24.611286 19.696208 24.322347 19.75 24.035156 C 19.7769 23.891561 19.768749 23.74331 19.699219 23.613281 C 19.629689 23.483253 19.497422 23.383527 19.328125 23.339844 C 19.14029 23.291374 19.08132 23.233287 19.072266 23.214844 C 19.063166 23.196404 19.064168 23.161444 19.111328 23.080078 C 19.205678 22.917342 19.453887 22.695435 19.574219 22.439453 C 19.613859 22.355133 19.635796 22.278696 19.628906 22.195312 C 19.622006 22.111933 19.566706 22.02602 19.5 21.986328 C 19.366584 21.906948 19.232729 21.928196 19.085938 21.947266 C 18.939145 21.966336 18.781284 22.001487 18.636719 22.029297 C 18.492153 22.057117 18.357497 22.075032 18.292969 22.070312 C 18.056259 22.052982 17.982281 21.980302 17.898438 21.84375 C 17.814587 21.707193 17.750523 21.493388 17.617188 21.263672 C 17.570107 21.182562 17.48599 21.139337 17.412109 21.123047 C 17.338229 21.106757 17.264171 21.108954 17.189453 21.115234 C 17.040017 21.127764 16.880212 21.162851 16.742188 21.181641 C 16.604163 21.200431 16.493094 21.188288 16.478516 21.179688 C 16.471216 21.175387 16.475756 21.185689 16.472656 21.167969 C 16.469656 21.150269 16.470957 21.100849 16.498047 21.019531 C 16.608529 20.687334 16.462437 20.390795 16.230469 20.273438 C 16.172477 20.244098 16.109769 20.224348 16.044922 20.214844 z M 15.902344 20.511719 C 15.969549 20.500951 16.038442 20.512046 16.095703 20.541016 C 16.210226 20.598956 16.286684 20.701948 16.212891 20.923828 C 16.176651 21.032793 16.162164 21.127189 16.177734 21.21875 C 16.193304 21.31031 16.252624 21.394537 16.326172 21.4375 C 16.473269 21.52343 16.628172 21.499616 16.783203 21.478516 C 16.938234 21.457416 17.096711 21.423962 17.214844 21.414062 C 17.273914 21.409063 17.323536 21.410616 17.347656 21.416016 C 17.371776 21.421316 17.361852 21.421763 17.357422 21.414062 C 17.469341 21.60688 17.527208 21.81405 17.642578 22.001953 C 17.757949 22.189856 17.959323 22.346289 18.271484 22.369141 C 18.401634 22.378641 18.543232 22.353099 18.693359 22.324219 C 18.843487 22.295339 18.998401 22.260591 19.125 22.244141 C 19.237162 22.229571 19.305046 22.242141 19.322266 22.244141 C 19.320166 22.257431 19.320261 22.269027 19.300781 22.310547 C 19.226921 22.467671 18.988497 22.693509 18.851562 22.929688 C 18.783092 23.047776 18.731393 23.200381 18.802734 23.345703 C 18.874074 23.491025 19.028425 23.572679 19.253906 23.630859 C 19.360883 23.658459 19.407247 23.700979 19.435547 23.753906 C 19.463847 23.806826 19.473128 23.884118 19.455078 23.980469 C 19.418988 24.17317 19.265072 24.422962 19.066406 24.591797 C 18.991336 24.655597 18.935226 24.725555 18.90625 24.806641 C 18.87727 24.887731 18.884009 24.977214 18.912109 25.048828 C 18.968229 25.192056 19.080536 25.280631 19.193359 25.371094 C 19.306183 25.461554 19.427249 25.549741 19.511719 25.636719 C 19.596189 25.723699 19.63762 25.799751 19.638672 25.875 C 19.644972 26.329936 19.557974 26.814807 19.552734 27.314453 C 19.55206 27.378893 19.456694 27.508527 19.380859 27.544922 C 19.342939 27.563122 19.329668 27.557167 19.335938 27.560547 C 19.342237 27.563947 19.323979 27.561949 19.318359 27.480469 C 19.301909 27.242037 19.3742 26.933984 19.40625 26.630859 C 19.42227 26.479297 19.428304 26.327662 19.396484 26.179688 C 19.364704 26.031712 19.289661 25.885603 19.158203 25.777344 C 19.094263 25.724684 19.025362 25.686344 18.941406 25.683594 C 18.857446 25.680894 18.776498 25.72722 18.730469 25.78125 C 18.638409 25.889296 18.615839 26.019179 18.595703 26.164062 C 18.555433 26.45383 18.568359 26.809458 18.568359 26.974609 L 18.568359 28.125 C 18.568359 28.15952 18.566 28.157835 18.5625 28.171875 C 18.5359 28.159215 18.46835 28.127855 18.386719 28.041016 C 18.291559 27.939777 18.193979 27.799633 18.130859 27.662109 C 18.067739 27.524586 18.043164 27.391361 18.058594 27.3125 C 18.099874 27.10153 18.057496 26.788146 17.972656 26.513672 C 17.930216 26.376435 17.881456 26.253015 17.787109 26.160156 C 17.739939 26.113726 17.670752 26.071186 17.587891 26.072266 C 17.505031 26.073366 17.432545 26.118346 17.378906 26.173828 C 17.115036 26.446779 17.121223 26.814459 17.15625 27.148438 C 17.19128 27.482415 17.248004 27.80808 17.177734 28.048828 C 17.151834 28.137568 17.120266 28.158918 17.097656 28.167969 C 17.075046 28.177069 17.038826 28.175371 16.988281 28.150391 C 16.887195 28.100441 16.776427 27.951319 16.775391 27.810547 C 16.773891 27.610649 16.797177 27.239374 16.748047 26.923828 C 16.723477 26.766055 16.685747 26.61697 16.585938 26.5 C 16.486127 26.38303 16.301791 26.332036 16.126953 26.388672 C 15.998578 26.430262 15.902487 26.526291 15.857422 26.632812 C 15.812352 26.739334 15.807187 26.850623 15.810547 26.958984 C 15.817247 27.175708 15.860719 27.399871 15.849609 27.53125 C 15.835659 27.696281 15.824149 27.872131 15.855469 28.050781 C 15.886759 28.229431 15.966982 28.410552 16.126953 28.560547 C 16.336291 28.756831 16.51364 28.82793 16.664062 28.875 C 16.814487 28.92207 16.93317 28.94839 17.126953 29.082031 C 17.329951 29.222023 17.975858 29.426734 18.283203 29.525391 C 17.501749 29.494411 16.551277 29.393423 15.679688 29.261719 C 15.322501 29.207749 15.192386 29.070819 15.085938 28.880859 C 14.979489 28.690899 14.924372 28.434071 14.771484 28.193359 C 14.62923 27.969388 14.467899 27.772004 14.353516 27.574219 C 14.239132 27.376433 14.170274 27.184199 14.1875 26.947266 C 14.20485 26.708727 14.0865 26.457323 13.919922 26.283203 C 13.836632 26.196143 13.720523 26.113037 13.576172 26.144531 C 13.431821 26.176021 13.343573 26.309707 13.292969 26.482422 C 13.203169 26.78891 13.215415 27.101385 13.203125 27.388672 C 13.190825 27.675959 13.158085 27.930637 13.017578 28.138672 C 12.989058 28.180892 12.974774 28.190308 12.958984 28.205078 C 12.955284 28.191328 12.936093 28.171528 12.914062 28.085938 C 12.856943 27.864037 12.839511 27.501675 12.837891 27.355469 C 12.832891 26.899327 12.958916 26.365586 12.763672 25.861328 C 12.725632 25.763078 12.682792 25.687001 12.625 25.626953 C 12.56721 25.566903 12.484027 25.52528 12.400391 25.527344 C 12.233118 25.531444 12.137493 25.65051 12.056641 25.771484 C 11.894935 26.013433 11.784764 26.352422 11.761719 26.580078 C 11.737319 26.821112 11.736704 27.18232 11.683594 27.460938 C 11.657034 27.600245 11.613565 27.715529 11.570312 27.773438 C 11.527062 27.831347 11.509852 27.844158 11.431641 27.830078 C 11.382141 27.821178 11.379468 27.813731 11.361328 27.769531 C 11.343188 27.725331 11.332117 27.640658 11.335938 27.539062 C 11.343538 27.335871 11.400391 27.079078 11.400391 26.865234 L 11.400391 25.5 C 11.400391 24.883547 10.959835 24.429526 10.763672 23.96875 C 10.536586 23.435337 10.350972 22.803584 10.402344 22.234375 C 10.428524 22.149125 10.475534 22.097474 10.568359 22.050781 C 10.665319 22.002011 10.802881 21.967801 10.947266 21.931641 C 11.09165 21.895481 11.242289 21.859291 11.376953 21.777344 C 11.511618 21.695404 11.625294 21.545886 11.638672 21.353516 C 11.656752 21.093495 11.770733 21.007609 11.957031 20.953125 C 12.143329 20.898645 12.403416 20.915088 12.613281 20.955078 C 12.676031 20.967018 12.772934 21.025508 12.876953 21.109375 C 12.980973 21.193245 13.09149 21.298053 13.207031 21.390625 C 13.322573 21.483195 13.44246 21.569904 13.595703 21.587891 C 13.748947 21.605881 13.914547 21.516492 14.017578 21.351562 C 14.139026 21.157152 14.193427 20.930032 14.271484 20.789062 C 14.310514 20.718583 14.349814 20.674673 14.390625 20.652344 C 14.431435 20.630014 14.481935 20.618548 14.582031 20.642578 C 14.707185 20.672668 14.866709 20.774698 15.0625 20.828125 C 15.258291 20.881555 15.51478 20.845155 15.716797 20.615234 C 15.769621 20.555115 15.835139 20.522486 15.902344 20.511719 z "
     id="outline8"
     inkscape:label="#path1708" />
  <path
     style="color:#000000;font-style:normal;font-variant:normal;font-weight:normal;font-stretch:normal;font-size:medium;line-height:normal;font-family:sans-serif;font-variant-ligatures:normal;font-variant-position:normal;font-variant-caps:normal;font-variant-numeric:normal;font-variant-alternates:normal;font-feature-settings:normal;text-indent:0;text-align:start;text-decoration:none;text-decoration-line:none;text-decoration-style:solid;text-decoration-color:#000000;letter-spacing:normal;word-spacing:normal;text-transform:none;writing-mode:lr-tb;direction:ltr;text-orientation:mixed;dominant-baseline:auto;baseline-shift:baseline;text-anchor:start;white-space:normal;shape-padding:0;clip-rule:nonzero;display:inline;overflow:visible;visibility:visible;opacity:1;isolation:auto;mix-blend-mode:normal;color-interpolation:sRGB;color-interpolation-filters:linearRGB;solid-color:#000000;solid-opacity:1;vector-effect:none;fill:#000000;fill-opacity:1;fill-rule:evenodd;stroke:none;stroke-width:0.30000001;stroke-linecap:butt;stroke-linejoin:miter;stroke-miterlimit:100;stroke-dasharray:none;stroke-dashoffset:0;stroke-opacity:1;marker:none;color-rendering:auto;image-rendering:auto;shape-rendering:auto;text-rendering:auto;enable-background:accumulate"
     d="M 25 20.310547 L 24.908203 20.380859 L 20.255859 24 L 25 27.689453 L 26.167969 26.78125 L 29.511719 29.632812 L 27.441406 25.791016 L 29.744141 24 L 25 20.310547 z M 25 20.691406 L 29.255859 24 L 27.058594 25.708984 L 28.488281 28.367188 L 26.175781 26.394531 L 25 27.310547 L 20.744141 24 L 25 20.691406 z "
     id="outline9"
     inkscape:label="#path1704" />
  <path
     style="color:#000000;font-style:normal;font-variant:normal;font-weight:normal;font-stretch:normal;font-size:medium;line-height:normal;font-family:sans-serif;font-variant-ligatures:normal;font-variant-position:normal;font-variant-caps:normal;font-variant-numeric:normal;font-variant-alternates:normal;font-feature-settings:normal;text-indent:0;text-align:start;text-decoration:none;text-decoration-line:none;text-decoration-style:solid;text-decoration-color:#000000;letter-spacing:normal;word-spacing:normal;text-transform:none;writing-mode:lr-tb;direction:ltr;text-orientation:mixed;dominant-baseline:auto;baseline-shift:baseline;text-anchor:start;white-space:normal;shape-padding:0;clip-rule:nonzero;display:inline;overflow:visible;visibility:visible;opacity:1;isolation:auto;mix-blend-mode:normal;color-interpolation:sRGB;color-interpolation-filters:linearRGB;solid-color:#000000;solid-opacity:1;vector-effect:none;fill:#000000;fill-opacity:1;fill-rule:evenodd;stroke:none;stroke-width:0.30000001;stroke-linecap:butt;stroke-linejoin:miter;stroke-miterlimit:100;stroke-dasharray:none;stroke-dashoffset:0;stroke-opacity:1;color-rendering:auto;image-rendering:auto;shape-rendering:auto;text-rendering:auto;enable-background:accumulate"
     d="M 14.265625 0.1953125 L 14.166016 0.35742188 L 13.826172 0.91015625 L 13.048828 0.46679688 L 12.587891 1.4121094 L 10.996094 1.2207031 L 11.365234 2.3476562 L 10.148438 2.5351562 L 11.021484 3.6445312 L 10.101562 4.3476562 L 11.044922 4.9492188 L 10.472656 5.5683594 L 11.804688 5.9121094 L 11.308594 6.9042969 L 12.726562 6.7851562 L 12.929688 7.9550781 L 14.039062 6.7539062 L 14.955078 8.5878906 L 19.724609 9.8320312 L 16.357422 8.0566406 L 15.855469 6.796875 L 17.15625 7.6640625 L 17.353516 6.5175781 L 18.777344 7.40625 L 18.556641 6.0527344 L 19.919922 6.0527344 L 19.027344 5.0625 L 19.933594 4.6835938 L 19.263672 4.0546875 L 19.951172 3.2519531 L 18.693359 2.6230469 L 19.222656 1.6347656 L 17.896484 1.4023438 L 17.896484 0.671875 L 16.488281 1.0878906 L 16.033203 0.22070312 L 14.970703 0.90039062 L 14.265625 0.1953125 z M 15.919922 0.65039062 L 16.337891 1.4453125 L 17.595703 1.0742188 L 17.595703 1.6542969 L 18.763672 1.859375 L 18.285156 2.7539062 L 19.474609 3.3476562 L 18.849609 4.0761719 L 19.390625 4.5859375 L 18.519531 4.9492188 L 19.244141 5.7519531 L 18.203125 5.7519531 L 18.375 6.8007812 L 17.132812 6.0292969 L 16.9375 7.15625 L 15.220703 6.0136719 L 16.119141 8.2695312 L 17.291016 8.8867188 L 15.162109 8.3320312 L 14.111328 6.2304688 L 13.121094 7.3046875 L 12.974609 6.4628906 L 11.814453 6.5605469 L 12.238281 5.7148438 L 11.033203 5.4042969 L 11.509766 4.8886719 L 10.625 4.3261719 L 11.445312 3.6992188 L 10.703125 2.7539062 L 11.759766 2.5898438 L 11.427734 1.5742188 L 12.763672 1.734375 L 13.177734 0.88671875 L 13.929688 1.3164062 L 14.322266 0.67578125 L 14.927734 1.2832031 L 15.919922 0.65039062 z "
     id="outline2"
     inkscape:label="#path1774" />
  <path
     style="color:#000000;font-style:normal;font-variant:normal;font-weight:normal;font-stretch:normal;font-size:medium;line-height:normal;font-family:sans-serif;font-variant-ligatures:normal;font-variant-position:normal;font-variant-caps:normal;font-variant-numeric:normal;font-variant-alternates:normal;font-feature-settings:normal;text-indent:0;text-align:start;text-decoration:none;text-decoration-line:none;text-decoration-style:solid;text-decoration-color:#000000;letter-spacing:normal;word-spacing:normal;text-transform:none;writing-mode:lr-tb;direction:ltr;text-orientation:mixed;dominant-baseline:auto;baseline-shift:baseline;text-anchor:start;white-space:normal;shape-padding:0;clip-rule:nonzero;display:inline;overflow:visible;visibility:visible;opacity:1;isolation:auto;mix-blend-mode:normal;color-interpolation:sRGB;color-interpolation-filters:linearRGB;solid-color:#000000;solid-opacity:1;vector-effect:none;fill:#000000;fill-opacity:1;fill-rule:nonzero;stroke:none;stroke-width:0.30000001;stroke-linecap:butt;stroke-linejoin:miter;stroke-miterlimit:100;stroke-dasharray:none;stroke-dashoffset:0;stroke-opacity:1;marker:none;color-rendering:auto;image-rendering:auto;shape-rendering:auto;text-rendering:auto;enable-background:accumulate"
     d="M 5.0039062 20.167969 C 3.627822 20.168311 2.4189491 20.701273 1.5488281 21.384766 C 0.67870716 22.068258 0.13266379 22.876058 0.15039062 23.517578 C 0.16607573 24.085214 0.32637957 25.185009 0.48242188 26.15625 C 0.63846417 27.127491 0.79101563 27.960938 0.79101562 27.960938 L 0.9140625 28.640625 L 1.5644531 26.076172 L 1.9550781 27.705078 L 2.4042969 26.521484 L 2.8242188 29.814453 L 3.4570312 26.798828 L 3.8398438 28.197266 L 4.2929688 27.208984 C 5.1797066 28.89527 6.4293777 29.718426 8.8496094 29.837891 C 9.1901773 29.854701 9.7304688 29.851563 9.7304688 29.851562 L 8.8847656 29.542969 C 7.2327669 28.936296 6.6409723 28.280576 6.3730469 27.205078 L 6.71875 26.566406 L 7.5234375 28.476562 L 7.9667969 26.279297 L 8.3359375 27.392578 L 8.7421875 25.734375 L 9.2246094 27.486328 L 9.3691406 26.958984 C 9.3691406 26.958984 9.9411394 24.880912 9.9140625 23.423828 C 9.8995934 22.645217 9.3441309 21.834455 8.4667969 21.212891 C 7.5894628 20.591327 6.3727121 20.167873 5.0039062 20.167969 z M 5.0097656 20.457031 C 6.3148074 20.456939 7.4681415 20.87462 8.2929688 21.458984 C 9.1177959 22.043349 9.6034215 22.794012 9.6152344 23.429688 C 9.6357574 24.534066 9.3244844 25.639946 9.1835938 26.207031 L 8.7246094 24.539062 L 8.2929688 26.306641 L 7.8945312 25.109375 L 7.421875 27.460938 L 6.6933594 25.732422 L 6.421875 26.507812 L 5.8457031 25.609375 L 5.9785156 26.667969 C 6.242126 28.147668 6.5835805 28.681609 8.2011719 29.568359 C 5.9846368 29.249475 5.1356434 28.224222 4.3964844 26.873047 L 4.2675781 26.541016 L 3.9101562 27.322266 L 3.4179688 25.523438 L 2.8964844 28.009766 L 2.5507812 25.291016 L 2.0195312 26.6875 L 1.5722656 24.824219 L 0.96679688 27.210938 C 0.90838319 26.88004 0.87455982 26.700359 0.77929688 26.107422 C 0.62383171 25.139773 0.46554823 24.028086 0.45117188 23.507812 C 0.4388373 23.061434 0.91033382 22.26839 1.734375 21.621094 C 2.5584162 20.973797 3.7128734 20.457353 5.0097656 20.457031 z "
     id="outline7"
     inkscape:label="#path1712" />
  <path
     style="color:#000000;font-style:normal;font-variant:normal;font-weight:normal;font-stretch:normal;font-size:medium;line-height:normal;font-family:sans-serif;font-variant-ligatures:normal;font-variant-position:normal;font-variant-caps:normal;font-variant-numeric:normal;font-variant-alternates:normal;font-feature-settings:normal;text-indent:0;text-align:start;text-decoration:none;text-decoration-line:none;text-decoration-style:solid;text-decoration-color:#000000;letter-spacing:normal;word-spacing:normal;text-transform:none;writing-mode:lr-tb;direction:ltr;text-orientation:mixed;dominant-baseline:auto;baseline-shift:baseline;text-anchor:start;white-space:normal;shape-padding:0;clip-rule:nonzero;display:inline;overflow:visible;visibility:visible;opacity:1;isolation:auto;mix-blend-mode:normal;color-interpolation:sRGB;color-interpolation-filters:linearRGB;solid-color:#000000;solid-opacity:1;vector-effect:none;fill:#000000;fill-opacity:1;fill-rule:nonzero;stroke:none;stroke-width:0.30000001;stroke-linecap:butt;stroke-linejoin:miter;stroke-miterlimit:100;stroke-dasharray:none;stroke-dashoffset:0;stroke-opacity:1;marker:none;color-rendering:auto;image-rendering:auto;shape-rendering:auto;text-rendering:auto;enable-background:accumulate"
     d="M 5 0.083984375 C 3.6562389 0.083984375 2.436838 0.49207573 1.546875 1.1601562 C 0.65691196 1.8282369 0.09375 2.7647975 0.09375 3.8046875 C 0.0951273 5.5837001 1.7547269 7.0599928 3.9960938 7.4199219 C 4.2824114 8.2821854 4.621883 8.9371733 5.2558594 9.3378906 C 5.9025657 9.7466542 6.8283971 9.8977017 8.2050781 9.8808594 C 8.2079381 9.8815 8.2100306 9.8841256 8.2128906 9.8847656 L 8.2128906 9.8828125 C 8.2292806 9.8826011 8.2315239 9.8889319 8.2480469 9.8886719 L 9.5234375 9.8691406 L 8.2773438 9.5917969 C 7.7812703 9.4817915 7.3357879 9.2843222 6.9824219 8.9257812 C 6.6484846 8.5869536 6.4111642 8.0634252 6.2871094 7.34375 C 8.3795162 6.9018329 9.9040885 5.4968305 9.90625 3.8046875 C 9.90625 2.7647975 9.343088 1.8282368 8.453125 1.1601562 C 7.563162 0.49207573 6.3437611 0.083984375 5 0.083984375 z M 5 0.38476562 C 6.2829061 0.38476563 7.4420665 0.77629415 8.2734375 1.4003906 C 9.1048085 2.0244871 9.6054686 2.8727874 9.6054688 3.8046875 C 9.6034788 5.3661235 8.1626255 6.7544645 6.0722656 7.1269531 L 5.9296875 7.1523438 L 5.9492188 7.296875 C 6.0708681 8.1345689 6.3638558 8.7270839 6.7675781 9.1367188 C 6.9236059 9.2950314 7.4403867 9.5533132 7.6230469 9.6601562 C 6.7117273 9.6711403 5.8055773 9.3302146 5.4160156 9.0839844 C 4.8392482 8.719427 4.5192744 8.143804 4.2363281 7.2617188 L 4.2089844 7.171875 L 4.1152344 7.1582031 C 1.9339525 6.8405714 0.39578115 5.4191717 0.39453125 3.8046875 C 0.39453125 2.8727874 0.8951915 2.0244871 1.7265625 1.4003906 C 2.5579335 0.77629416 3.717094 0.38476564 5 0.38476562 z "
     id="outline1"
     inkscape:label="#path1778" />
  <path
     style="color:#000000;font-style:normal;font-variant:normal;font-weight:normal;font-stretch:normal;font-size:medium;line-height:normal;font-family:sans-serif;font-variant-ligatures:normal;font-variant-position:normal;font-variant-caps:normal;font-variant-numeric:normal;font-variant-alternates:normal;font-feature-settings:normal;text-indent:0;text-align:start;text-decoration:none;text-decoration-line:none;text-decoration-style:solid;text-decoration-color:#000000;letter-spacing:normal;word-spacing:normal;text-transform:none;writing-mode:lr-tb;direction:ltr;text-orientation:mixed;dominant-baseline:auto;baseline-shift:baseline;text-anchor:start;white-space:normal;shape-padding:0;clip-rule:nonzero;display:inline;overflow:visible;visibility:visible;opacity:1;isolation:auto;mix-blend-mode:normal;color-interpolation:sRGB;color-interpolation-filters:linearRGB;solid-color:#000000;solid-opacity:1;vector-effect:none;fill:#000000;fill-opacity:1;fill-rule:nonzero;stroke:none;stroke-width:0.30000001;stroke-linecap:butt;stroke-linejoin:miter;stroke-miterlimit:100;stroke-dasharray:none;stroke-dashoffset:0;stroke-opacity:1;marker:none;color-rendering:auto;image-rendering:auto;shape-rendering:auto;text-rendering:auto;enable-background:accumulate"
     d="M 10.099609 10.101562 L 10.099609 10.251953 L 10.099609 11.408203 L 10.761719 11.570312 L 10.099609 11.724609 L 10.099609 15.849609 L 13.451172 15.849609 L 14.777344 18.681641 L 17.207031 18.023438 L 19.855469 19.947266 L 17.730469 16.693359 L 15.763672 17.105469 L 15.359375 15.849609 L 19.957031 15.849609 L 19.957031 14.494141 L 19.478516 14.365234 L 19.957031 14.210938 L 19.957031 10.101562 L 10.099609 10.101562 z M 10.400391 10.402344 L 19.65625 10.402344 L 19.65625 13.992188 L 18.419922 14.388672 L 19.65625 14.722656 L 19.65625 15.550781 L 14.949219 15.550781 L 15.560547 17.453125 L 17.591797 17.029297 L 18.716797 18.75 L 17.265625 17.697266 L 14.943359 18.326172 L 13.640625 15.550781 L 10.400391 15.550781 L 10.400391 11.962891 L 12.050781 11.580078 L 10.400391 11.173828 L 10.400391 10.402344 z "
     id="outline5"
     inkscape:label="#path1732" />
  <path
     style="color:#000000;font-style:normal;font-variant:normal;font-weight:normal;font-stretch:normal;font-size:medium;line-height:normal;font-family:sans-serif;font-variant-ligatures:normal;font-variant-position:normal;font-variant-caps:normal;font-variant-numeric:normal;font-variant-alternates:normal;font-feature-settings:normal;text-indent:0;text-align:start;text-decoration:none;text-decoration-line:none;text-decoration-style:solid;text-decoration-color:#000000;letter-spacing:normal;word-spacing:normal;text-transform:none;writing-mode:lr-tb;direction:ltr;text-orientation:mixed;dominant-baseline:auto;baseline-shift:baseline;text-anchor:start;white-space:normal;shape-padding:0;clip-rule:nonzero;display:inline;overflow:visible;visibility:visible;opacity:1;isolation:auto;mix-blend-mode:normal;color-interpolation:sRGB;color-interpolation-filters:linearRGB;solid-color:#000000;solid-opacity:1;vector-effect:none;fill:#000000;fill-opacity:1;fill-rule:nonzero;stroke:none;stroke-width:0.30000001;stroke-linecap:butt;stroke-linejoin:miter;stroke-miterlimit:100;stroke-dasharray:none;stroke-dashoffset:0;stroke-opacity:1;marker:none;color-rendering:auto;image-rendering:auto;shape-rendering:auto;text-rendering:auto;enable-background:accumulate"
     d="M 25.166016 10.136719 C 24.700057 10.142019 24.663105 10.170432 24.501953 10.25 C 24.0669 10.46475 23.819163 10.848997 23.556641 11.099609 C 23.425379 11.224915 23.295804 11.316443 23.140625 11.361328 C 22.985446 11.406208 22.798207 11.407236 22.537109 11.322266 C 21.907923 11.117495 21.322927 11.401076 20.900391 11.769531 C 20.477854 12.137986 20.199819 12.575411 20.119141 12.839844 C 20.036241 13.111555 20.114741 13.435134 20.224609 13.761719 C 20.334511 14.088303 20.488308 14.413044 20.605469 14.646484 C 20.628309 14.691994 20.627887 14.857548 20.585938 15.060547 C 20.543988 15.263546 20.475695 15.501819 20.435547 15.736328 C 20.395397 15.970837 20.376133 16.206396 20.476562 16.410156 C 20.576984 16.613917 20.812461 16.737593 21.138672 16.730469 C 21.696883 16.718279 21.914592 16.853569 22.132812 17.058594 C 22.351033 17.263618 22.561404 17.566563 23.001953 17.808594 C 23.352581 18.001215 23.703703 17.904798 24.027344 17.798828 C 24.37528 18.465603 24.815247 19.014213 25.535156 19.365234 C 26.27849 19.727677 27.299766 19.8992 28.738281 19.904297 C 28.739781 19.904747 28.740688 19.90575 28.742188 19.90625 L 28.742188 19.904297 C 28.761537 19.90436 28.765646 19.912109 28.785156 19.912109 L 29.779297 19.912109 L 28.830078 19.619141 C 27.682007 19.264667 26.807986 18.703423 26.332031 17.708984 C 26.61555 17.823927 26.90124 17.953746 27.175781 18.003906 C 27.383633 18.041886 27.588074 18.043722 27.763672 17.945312 C 27.93927 17.846902 28.053112 17.651734 28.087891 17.384766 C 28.122061 17.122481 28.176961 16.956094 28.240234 16.849609 C 28.303514 16.743124 28.373298 16.687433 28.480469 16.636719 C 28.694809 16.535291 29.062513 16.487293 29.542969 16.242188 C 29.673761 16.175467 29.773065 16.094006 29.837891 15.996094 C 29.902721 15.898184 29.926872 15.78616 29.919922 15.679688 C 29.906022 15.466743 29.792626 15.277633 29.671875 15.087891 C 29.551124 14.898148 29.415659 14.706779 29.332031 14.53125 C 29.248401 14.355721 29.219886 14.21005 29.267578 14.078125 C 29.39675 13.720782 29.574077 13.377361 29.609375 13.013672 C 29.644675 12.649982 29.499304 12.271373 29.044922 11.949219 C 28.571852 11.61382 28.025548 11.635493 27.574219 11.628906 C 27.348554 11.625606 27.14457 11.615986 26.982422 11.566406 C 26.820274 11.516826 26.700047 11.437343 26.601562 11.271484 C 26.238425 10.659912 25.631974 10.131449 25.166016 10.136719 z M 25.271484 10.419922 C 25.574201 10.438112 26.003788 10.853241 26.34375 11.425781 C 26.479633 11.654624 26.679518 11.787774 26.894531 11.853516 C 27.109544 11.919256 27.339395 11.926318 27.570312 11.929688 C 28.032148 11.936388 28.493549 11.925688 28.871094 12.193359 C 29.267326 12.474286 29.337626 12.705369 29.310547 12.984375 C 29.283467 13.263381 29.121483 13.595314 28.984375 13.974609 C 28.898925 14.210998 28.960227 14.45154 29.060547 14.662109 C 29.16087 14.872679 29.303444 15.068089 29.417969 15.248047 C 29.532493 15.428004 29.614162 15.593046 29.621094 15.699219 C 29.624594 15.752309 29.616091 15.789439 29.587891 15.832031 C 29.559691 15.874621 29.505141 15.924161 29.40625 15.974609 C 28.967962 16.198204 28.639006 16.229213 28.351562 16.365234 C 28.207842 16.433244 28.076635 16.53677 27.982422 16.695312 C 27.888212 16.853856 27.828162 17.060581 27.791016 17.345703 C 27.763806 17.554552 27.699675 17.637363 27.617188 17.683594 C 27.534698 17.729824 27.401353 17.740564 27.228516 17.708984 C 26.882839 17.64583 26.41689 17.424636 26 17.273438 L 25.71875 17.171875 L 25.806641 17.458984 C 26.118886 18.483028 27.112364 19.211156 27.988281 19.626953 C 27.209856 19.549393 26.130574 19.322217 25.666016 19.095703 C 24.973957 18.758262 24.559132 18.266299 24.224609 17.591797 L 24.164062 17.472656 L 24.039062 17.517578 C 23.70991 17.636433 23.428693 17.69996 23.146484 17.544922 C 22.763275 17.334393 22.58935 17.076097 22.337891 16.839844 C 22.086431 16.603591 21.7479 16.418204 21.132812 16.431641 C 20.872374 16.437341 20.793967 16.374481 20.746094 16.277344 C 20.698224 16.180204 20.696222 15.998559 20.732422 15.787109 C 20.768622 15.57566 20.835527 15.340464 20.880859 15.121094 C 20.926189 14.901724 20.965697 14.696342 20.873047 14.511719 C 20.759213 14.284908 20.609996 13.969662 20.507812 13.666016 C 20.405631 13.36237 20.361899 13.0667 20.404297 12.927734 C 20.448917 12.7815 20.719331 12.325996 21.097656 11.996094 C 21.475981 11.666191 21.944945 11.444576 22.445312 11.607422 C 22.748991 11.706252 23.006091 11.713595 23.224609 11.650391 C 23.443128 11.587181 23.614107 11.459186 23.763672 11.316406 C 24.062802 11.030847 24.290414 10.68951 24.634766 10.519531 C 24.809763 10.433121 24.968766 10.40173 25.271484 10.419922 z "
     id="outline6"
     inkscape:label="#path1736" />
  <path
     style="color:#000000;font-style:normal;font-variant:normal;font-weight:normal;font-stretch:normal;font-size:medium;line-height:normal;font-family:sans-serif;font-variant-ligatures:normal;font-variant-position:normal;font-variant-caps:normal;font-variant-numeric:normal;font-variant-alternates:normal;font-feature-settings:normal;text-indent:0;text-align:start;text-decoration:none;text-decoration-line:none;text-decoration-style:solid;text-decoration-color:#000000;letter-spacing:normal;word-spacing:normal;text-transform:none;writing-mode:lr-tb;direction:ltr;text-orientation:mixed;dominant-baseline:auto;baseline-shift:baseline;text-anchor:start;white-space:normal;shape-padding:0;clip-rule:nonzero;display:inline;overflow:visible;visibility:visible;opacity:1;isolation:auto;mix-blend-mode:normal;color-interpolation:sRGB;color-interpolation-filters:linearRGB;solid-color:#000000;solid-opacity:1;vector-effect:none;fill:#000000;fill-opacity:1;fill-rule:nonzero;stroke:none;stroke-width:0.30000001;stroke-linecap:butt;stroke-linejoin:miter;stroke-miterlimit:100;stroke-dasharray:none;stroke-dashoffset:0;stroke-opacity:1;marker:none;color-rendering:auto;image-rendering:auto;shape-rendering:auto;text-rendering:auto;enable-background:accumulate"
     d="M 4.3242188 10.15625 C 3.89465 10.156603 3.5807308 10.470434 3.3945312 10.837891 C 3.2520818 10.716024 3.0896171 10.609305 2.8984375 10.609375 C 2.6678506 10.609472 2.4698149 10.730338 2.3300781 10.880859 C 2.223129 10.996062 2.1869018 11.139357 2.1621094 11.28125 C 1.9997586 11.3045 1.8367037 11.34862 1.7050781 11.458984 C 1.5447332 11.593427 1.4182024 11.787588 1.4179688 12.015625 C 1.4179058 12.031065 1.4268144 12.045167 1.4277344 12.060547 C 1.3783554 12.053347 1.3313294 12.033673 1.28125 12.033203 L 1.2792969 12.033203 C 0.97664475 12.032822 0.68720049 12.156156 0.47460938 12.375 C 0.26201876 12.593844 0.1426129 12.889638 0.14257812 13.197266 C 0.14256243 13.498762 0.29832684 13.762463 0.5 13.978516 C 0.4710487 14.069536 0.44719284 14.162264 0.44726562 14.257812 C 0.44768265 14.741153 0.83773817 15.101274 1.3144531 15.164062 C 1.2956051 15.235963 1.265413 15.304078 1.265625 15.378906 C 1.2658272 15.60736 1.355773 15.826915 1.5175781 15.988281 C 1.6793831 16.149647 1.899729 16.240655 2.1289062 16.240234 C 2.1997384 16.24001 2.2656843 16.214616 2.3339844 16.197266 C 2.4209564 16.606403 2.7376623 16.938527 3.171875 16.939453 C 3.4096728 16.939503 3.6092707 16.80187 3.7773438 16.638672 C 3.9733394 16.806783 4.2012602 16.939255 4.4589844 16.939453 C 4.6335176 16.938902 4.7988667 16.877183 4.953125 16.794922 C 5.1311022 16.984701 5.3554339 17.141191 5.6289062 17.146484 C 5.5848919 17.170867 5.5364787 17.187885 5.4980469 17.220703 C 5.3509931 17.34629 5.2630986 17.525237 5.2636719 17.712891 C 5.2638974 17.899528 5.3511019 18.07613 5.4980469 18.201172 C 5.6449887 18.326205 5.8383554 18.392948 6.0371094 18.392578 C 6.4487531 18.392245 6.8061715 18.100134 6.8066406 17.712891 C 6.8072138 17.525136 6.7180896 17.349533 6.5722656 17.224609 C 6.4264458 17.099691 6.2363267 17.031417 6.0371094 17.03125 C 6.1134166 16.989398 6.1883053 16.945526 6.2558594 16.890625 C 6.4062901 17.043869 6.5811343 17.179433 6.7929688 17.179688 C 7.1911369 17.179044 7.4722891 16.849545 7.5585938 16.449219 C 7.6158297 16.462139 7.6713191 16.484045 7.7304688 16.484375 C 7.9323217 16.484775 8.1273414 16.410555 8.2734375 16.275391 C 8.4195459 16.140173 8.5040547 15.953363 8.5039062 15.757812 C 8.5036737 15.686592 8.4690546 15.622105 8.4472656 15.554688 C 8.7432991 15.502606 9.0045265 15.33653 9.1132812 15.052734 C 9.584093 14.85668 9.9267046 14.417457 9.9277344 13.894531 C 9.9268835 13.276246 9.4710512 12.800412 8.890625 12.683594 C 8.8916001 12.667754 8.8965744 12.652599 8.8964844 12.636719 C 8.8954344 12.252918 8.5675657 11.966556 8.1855469 11.941406 C 8.2134149 11.850296 8.2597876 11.764996 8.2597656 11.667969 C 8.2596171 11.195729 7.9183735 10.791239 7.4746094 10.791016 C 7.3134301 10.790774 7.1741346 10.881856 7.0449219 10.980469 C 6.844936 10.631557 6.5349983 10.338693 6.1269531 10.337891 C 5.7637988 10.337872 5.4695521 10.571049 5.2578125 10.861328 C 5.0762827 10.483247 4.7622486 10.156907 4.3242188 10.15625 z M 4.3242188 10.455078 C 4.7006717 10.455643 5.0250525 10.70134 5.1171875 11.048828 L 5.2148438 11.417969 L 5.3945312 11.082031 C 5.5410481 10.807201 5.821113 10.636703 6.1269531 10.636719 C 6.4721633 10.637398 6.7804619 10.853681 6.9042969 11.183594 L 6.9882812 11.40625 L 7.1542969 11.234375 C 7.2456559 11.139305 7.358602 11.091623 7.4746094 11.091797 C 7.7332087 11.091927 7.9608336 11.337523 7.9609375 11.667969 C 7.9609659 11.789752 7.9283196 11.908693 7.8691406 12.005859 L 7.671875 12.328125 L 8.0371094 12.228516 C 8.0758994 12.217846 8.1151834 12.212801 8.15625 12.212891 C 8.4026947 12.213386 8.5950629 12.402811 8.5957031 12.636719 C 8.5958744 12.667609 8.5927075 12.700179 8.5859375 12.730469 L 8.5488281 12.902344 L 8.7246094 12.912109 C 9.2297183 12.941259 9.626229 13.36838 9.6269531 13.894531 C 9.6261158 14.319738 9.3626352 14.694284 8.9746094 14.828125 L 8.9003906 14.853516 L 8.8789062 14.927734 C 8.8097373 15.169473 8.5893327 15.335858 8.3378906 15.335938 C 8.3264196 15.335938 8.3110456 15.333931 8.2910156 15.332031 L 7.9960938 15.304688 L 8.1484375 15.558594 C 8.1854555 15.620764 8.202898 15.690256 8.203125 15.759766 C 8.2027057 15.869481 8.157282 15.976154 8.0703125 16.056641 C 7.9828535 16.137561 7.860625 16.183848 7.7324219 16.183594 C 7.6629899 16.183206 7.5954957 16.169558 7.5332031 16.142578 L 7.328125 16.054688 L 7.3222656 16.277344 C 7.3133191 16.624505 7.0712812 16.880411 6.7929688 16.880859 C 6.637597 16.880673 6.4867283 16.801515 6.3828125 16.654297 L 6.2773438 16.501953 L 6.1503906 16.638672 C 6.0289481 16.769277 5.8424198 16.849419 5.6425781 16.849609 C 5.4038994 16.849642 5.1872491 16.734656 5.0742188 16.5625 L 4.9921875 16.439453 L 4.8691406 16.519531 C 4.7448376 16.597851 4.6029648 16.638217 4.4589844 16.638672 C 4.244301 16.638506 4.0387274 16.547972 3.8867188 16.384766 L 3.7636719 16.253906 L 3.65625 16.396484 C 3.5413755 16.548905 3.3627373 16.638712 3.171875 16.638672 C 2.8350471 16.637954 2.566263 16.368083 2.5664062 16.03125 L 2.5664062 15.796875 L 2.3554688 15.892578 C 2.2839299 15.924529 2.2053135 15.941158 2.1269531 15.941406 C 1.9782465 15.941679 1.8342777 15.880865 1.7285156 15.775391 C 1.6227551 15.669917 1.5645854 15.528339 1.5644531 15.378906 C 1.5642037 15.290991 1.5856253 15.203612 1.625 15.125 L 1.7421875 14.890625 L 1.4785156 14.908203 C 1.4626466 14.909303 1.4464945 14.910156 1.4296875 14.910156 C 1.0479073 14.91014 0.74640354 14.616869 0.74609375 14.257812 C 0.74603498 14.180693 0.7610931 14.10376 0.7890625 14.03125 L 0.828125 13.933594 L 0.74609375 13.863281 C 0.55476176 13.699496 0.4433459 13.455952 0.44335938 13.197266 C 0.44338548 12.966147 0.53222759 12.745835 0.68945312 12.583984 C 0.84623784 12.422588 1.0579906 12.332264 1.2773438 12.332031 C 1.3735617 12.332941 1.4700813 12.351999 1.5605469 12.386719 L 1.8886719 12.511719 L 1.7519531 12.1875 C 1.7287761 12.13268 1.7165599 12.075845 1.7167969 12.017578 L 1.7167969 12.015625 C 1.7169138 11.901458 1.7858549 11.782211 1.8964844 11.689453 C 2.0071138 11.596693 2.1552726 11.540224 2.2597656 11.541016 L 2.4257812 11.542969 L 2.4101562 11.378906 C 2.4055263 11.325136 2.4540584 11.190125 2.5507812 11.085938 C 2.6475043 10.981749 2.7779875 10.910207 2.8984375 10.910156 C 3.0456252 10.910102 3.1854326 10.974176 3.2773438 11.083984 L 3.4570312 11.298828 L 3.5351562 11.029297 C 3.6343943 10.691174 3.9554517 10.455381 4.3242188 10.455078 z M 6.0371094 17.330078 C 6.1676892 17.330187 6.289986 17.376668 6.3769531 17.451172 C 6.4639151 17.525672 6.5080988 17.619119 6.5078125 17.712891 C 6.5075732 17.910454 6.3105271 18.091576 6.0371094 18.091797 C 5.9061807 18.092041 5.7799106 18.046307 5.6933594 17.972656 C 5.6068124 17.899006 5.5645676 17.807681 5.5644531 17.712891 C 5.5641646 17.618441 5.6067891 17.523152 5.6933594 17.449219 C 5.7799394 17.375289 5.9054597 17.329834 6.0371094 17.330078 z M 7.1015625 18.101562 C 6.9431951 18.101525 6.7909489 18.155512 6.6738281 18.253906 C 6.5566907 18.352196 6.4822051 18.492814 6.4824219 18.646484 C 6.4822004 18.800166 6.5567479 18.94077 6.6738281 19.039062 C 6.7908852 19.137283 6.9431221 19.191444 7.1015625 19.191406 C 7.260012 19.191444 7.4133731 19.137956 7.53125 19.039062 C 7.6492085 18.940082 7.720922 18.798317 7.7207031 18.646484 C 7.7209175 18.494663 7.6491656 18.352899 7.53125 18.253906 C 7.4133645 18.15499 7.2600017 18.101525 7.1015625 18.101562 z M 7.1015625 18.402344 C 7.1924465 18.402322 7.2795601 18.433472 7.3378906 18.482422 C 7.3961926 18.531362 7.421956 18.589204 7.421875 18.646484 C 7.4219576 18.703774 7.3961476 18.761664 7.3378906 18.810547 C 7.2795506 18.859487 7.19244 18.890645 7.1015625 18.890625 C 7.0106755 18.890647 6.9263464 18.860187 6.8671875 18.810547 C 6.8080525 18.760897 6.78117 18.701923 6.78125 18.646484 C 6.7811718 18.591054 6.8081095 18.531994 6.8671875 18.482422 C 6.9262825 18.432772 7.0106069 18.402324 7.1015625 18.402344 z M 7.9296875 19.0625 C 7.6635482 19.07742 7.4223696 19.257586 7.4238281 19.517578 C 7.4246594 19.653603 7.4971401 19.772744 7.5976562 19.849609 C 7.6981724 19.926469 7.8271973 19.966924 7.9667969 19.966797 L 7.96875 19.966797 C 8.1078737 19.966402 8.2359097 19.924527 8.3359375 19.847656 C 8.4359653 19.770786 8.5089423 19.653148 8.5097656 19.517578 L 8.5097656 19.515625 C 8.5100663 19.379458 8.4380576 19.261061 8.3378906 19.183594 C 8.2386816 19.106864 8.1108612 19.063699 7.9726562 19.0625 C 7.9601283 19.062141 7.9461217 19.062141 7.9335938 19.0625 L 7.9316406 19.0625 L 7.9296875 19.0625 z M 7.9472656 19.363281 C 7.9527056 19.363188 7.9574576 19.363125 7.9628906 19.363281 L 7.9648438 19.363281 L 7.9667969 19.363281 C 8.0442659 19.363504 8.112476 19.387582 8.1542969 19.419922 C 8.1961179 19.452262 8.2090534 19.484705 8.2089844 19.515625 C 8.2087975 19.546395 8.1942037 19.577205 8.1523438 19.609375 C 8.1104847 19.641545 8.0439059 19.667759 7.9667969 19.667969 C 7.8894089 19.668039 7.8233964 19.643558 7.78125 19.611328 C 7.739104 19.579098 7.7228452 19.546505 7.7226562 19.515625 C 7.7223274 19.456995 7.8002722 19.371522 7.9472656 19.363281 z "
     id="outline4"
     inkscape:label="#path1728" />
  <path
     style="color:#000000;font-style:normal;font-variant:normal;font-weight:normal;font-stretch:normal;font-size:medium;line-height:normal;font-family:sans-serif;font-variant-ligatures:normal;font-variant-position:normal;font-variant-caps:normal;font-variant-numeric:normal;font-variant-alternates:normal;font-feature-settings:normal;text-indent:0;text-align:start;text-decoration:none;text-decoration-line:none;text-decoration-style:solid;text-decoration-color:#000000;letter-spacing:normal;word-spacing:normal;text-transform:none;writing-mode:lr-tb;direction:ltr;text-orientation:mixed;dominant-baseline:auto;baseline-shift:baseline;text-anchor:start;white-space:normal;shape-padding:0;clip-rule:nonzero;display:inline;overflow:visible;visibility:visible;opacity:1;isolation:auto;mix-blend-mode:normal;color-interpolation:sRGB;color-interpolation-filters:linearRGB;solid-color:#000000;solid-opacity:1;vector-effect:none;fill:#000000;fill-opacity:1;fill-rule:nonzero;stroke:none;stroke-width:0.60000002;stroke-linecap:butt;stroke-linejoin:miter;stroke-miterlimit:100;stroke-dasharray:1.2, 0.6;stroke-dashoffset:0;stroke-opacity:1;marker:none;color-rendering:auto;image-rendering:auto;shape-rendering:auto;text-rendering:auto;enable-background:accumulate"
     d="M 25.041016 0.056640625 L 25.017578 0.05859375 L 24.607422 0.08984375 L 24.652344 0.6875 L 25.039062 0.65820312 L 25.804688 0.71679688 L 25.849609 0.1171875 L 25.0625 0.05859375 L 25.041016 0.056640625 z M 23.966797 0.15429688 L 23.181641 0.33398438 L 23.160156 0.33984375 L 23.136719 0.34960938 L 22.771484 0.49609375 L 22.996094 1.0527344 L 23.333984 0.91601562 L 24.101562 0.73828125 L 23.966797 0.15429688 z M 26.482422 0.23828125 L 26.347656 0.82226562 L 26.748047 0.91601562 L 27.435547 1.1953125 L 27.660156 0.63867188 L 26.943359 0.34960938 L 26.921875 0.33984375 L 26.898438 0.33398438 L 26.482422 0.23828125 z M 22.181641 0.76757812 L 21.630859 1.1054688 L 21.607422 1.1191406 L 21.585938 1.1386719 L 21.175781 1.5097656 L 21.578125 1.9550781 L 21.964844 1.6054688 L 22.496094 1.2773438 L 22.181641 0.76757812 z M 28.220703 0.96484375 L 27.90625 1.4746094 L 28.117188 1.6054688 L 28.632812 2.0722656 L 28.714844 2.1855469 L 29.201172 1.8320312 L 29.097656 1.6914062 L 29.080078 1.6660156 L 29.056641 1.6445312 L 28.494141 1.1386719 L 28.474609 1.1191406 L 28.451172 1.1054688 L 28.220703 0.96484375 z M 20.75 2.0117188 L 20.558594 2.2734375 L 20.539062 2.3027344 L 20.525391 2.3339844 L 20.255859 2.9765625 L 20.242188 3.0136719 L 20.236328 3.0527344 L 20.212891 3.2304688 L 20.806641 3.3105469 L 20.824219 3.1757812 L 21.064453 2.5976562 L 21.234375 2.3652344 L 20.75 2.0117188 z M 29.578125 2.3828125 L 29.023438 2.6152344 L 29.255859 3.1699219 L 29.326172 3.6855469 L 29.919922 3.6035156 L 29.845703 3.0527344 L 29.839844 3.0136719 L 29.824219 2.9765625 L 29.578125 2.3828125 z M 20.748047 3.8300781 L 20.152344 3.9003906 L 20.212891 4.421875 L 20.21875 4.4550781 L 20.230469 4.4882812 L 20.435547 5.0585938 L 20.447266 5.0878906 L 20.464844 5.1152344 L 20.501953 5.1738281 L 21.009766 4.8554688 L 20.988281 4.8222656 L 20.806641 4.3222656 L 20.748047 3.8300781 z M 29.291016 4.2050781 L 29.279297 4.3007812 L 29.105469 4.7949219 L 28.871094 5.1816406 L 29.384766 5.4921875 L 29.636719 5.0761719 L 29.652344 5.0488281 L 29.662109 5.0195312 L 29.857422 4.4667969 L 29.869141 4.4335938 L 29.873047 4.4003906 L 29.886719 4.2753906 L 29.291016 4.2050781 z M 21.300781 5.3144531 L 20.861328 5.7226562 L 21.271484 6.1660156 L 21.289062 6.1855469 L 21.310547 6.1992188 L 21.783203 6.5605469 L 22.148438 6.0839844 L 21.689453 5.734375 L 21.300781 5.3144531 z M 28.523438 5.5976562 L 28.443359 5.6855469 L 27.958984 6.0703125 L 27.642578 6.2519531 L 27.939453 6.7734375 L 28.28125 6.5761719 L 28.302734 6.5664062 L 28.320312 6.5507812 L 28.835938 6.140625 L 28.855469 6.125 L 28.873047 6.1054688 L 28.970703 5.9960938 L 28.523438 5.5976562 z M 22.628906 6.3535156 L 22.34375 6.8828125 L 22.529297 6.9824219 L 22.546875 6.9921875 L 22.568359 7 L 23.28125 7.2597656 L 23.300781 7.265625 L 23.322266 7.2714844 L 23.548828 7.3183594 L 23.673828 6.7324219 L 23.464844 6.6875 L 22.792969 6.4433594 L 22.628906 6.3535156 z M 27.140625 6.4921875 L 26.753906 6.6445312 L 26.03125 6.8222656 L 26.175781 7.4042969 L 26.921875 7.2207031 L 26.941406 7.2167969 L 26.960938 7.2089844 L 27.361328 7.0507812 L 27.140625 6.4921875 z M 24.464844 7.1230469 L 23.875 7.2304688 L 23.958984 7.6816406 L 23.960938 7.6953125 L 23.964844 7.7089844 L 24.087891 8.1523438 L 24.095703 8.1757812 L 24.105469 8.1972656 L 24.226562 8.453125 L 24.769531 8.1972656 L 24.660156 7.96875 L 24.544922 7.5546875 L 24.542969 7.546875 L 24.464844 7.1230469 z M 26.402344 7.8066406 L 25.804688 7.8085938 L 25.804688 7.8476562 L 25.804688 7.8671875 L 25.808594 7.8867188 L 25.855469 8.2441406 L 25.859375 8.265625 L 25.863281 8.2851562 L 25.957031 8.6230469 L 25.964844 8.6503906 L 25.976562 8.6738281 L 26.125 8.9824219 L 26.138672 9.0136719 L 26.160156 9.0410156 L 26.226562 9.1230469 L 26.695312 8.7480469 L 26.652344 8.6953125 L 26.529297 8.4414062 L 26.447266 8.1425781 L 26.40625 7.8359375 L 26.40625 7.8066406 L 26.402344 7.8066406 z M 25.021484 8.5683594 L 24.667969 9.0527344 L 25.039062 9.3242188 L 25.068359 9.3457031 L 25.101562 9.359375 L 25.619141 9.5722656 L 25.644531 9.5820312 L 25.671875 9.5878906 L 25.849609 9.625 L 25.970703 9.0371094 L 25.816406 9.0039062 L 25.363281 8.8183594 L 25.021484 8.5683594 z M 27.017578 9.0644531 L 26.970703 9.1757812 L 26.521484 9.1425781 L 26.476562 9.7421875 L 27.259766 9.7988281 L 29.09375 9.9355469 L 27.396484 9.2226562 L 27.017578 9.0644531 z "
     id="outline3"
     inkscape:label="#path1770" />
</svg>
