<?xml version="1.0" encoding="UTF-8" standalone="no"?>
<!-- Created with Inkscape (http://www.inkscape.org/) -->

<svg
   xmlns:dc="http://purl.org/dc/elements/1.1/"
   xmlns:cc="http://creativecommons.org/ns#"
   xmlns:rdf="http://www.w3.org/1999/02/22-rdf-syntax-ns#"
   xmlns:svg="http://www.w3.org/2000/svg"
   xmlns="http://www.w3.org/2000/svg"
   xmlns:sodipodi="http://sodipodi.sourceforge.net/DTD/sodipodi-0.dtd"
   xmlns:inkscape="http://www.inkscape.org/namespaces/inkscape"
   width="30"
   height="30"
   viewBox="0 0 30 30"
   version="1.1"
   id="svg8"
   inkscape:version="0.92.3 (2405546, 2018-03-11)"
   sodipodi:docname="Bubbles.svg"
   inkscape:export-filename="D:\c\KTANE\KtaneStuff\DataFiles\SimonSpeaks\Bubbles.png"
   inkscape:export-xdpi="1920"
   inkscape:export-ydpi="1920">
  <defs
     id="defs2" />
  <sodipodi:namedview
     id="base"
     pagecolor="#ffffff"
     bordercolor="#666666"
     borderopacity="1.0"
     inkscape:pageopacity="0.0"
     inkscape:pageshadow="2"
     inkscape:zoom="22.627417"
     inkscape:cx="9.3463083"
     inkscape:cy="12.110975"
     inkscape:document-units="px"
     inkscape:current-layer="layer1"
     showgrid="true"
     units="px"
     showguides="false"
     inkscape:snap-nodes="true"
     inkscape:snap-global="false">
    <inkscape:grid
       type="xygrid"
       id="grid815"
       spacingx="0.5"
       spacingy="0.5" />
  </sodipodi:namedview>
  <metadata
     id="metadata5">
    <rdf:RDF>
      <cc:Work
         rdf:about="">
        <dc:format>image/svg+xml</dc:format>
        <dc:type
           rdf:resource="http://purl.org/dc/dcmitype/StillImage" />
        <dc:title></dc:title>
      </cc:Work>
    </rdf:RDF>
  </metadata>
  <g
     inkscape:label="Layer 1"
     inkscape:groupmode="layer"
     id="layer1"
     transform="translate(0,-544.95276)">
    <path
       style="opacity:1;vector-effect:none;fill:#ffffff;fill-opacity:0.99425288;fill-rule:evenodd;stroke:#000000;stroke-width:0.10000002;stroke-linecap:butt;stroke-linejoin:miter;stroke-miterlimit:100;stroke-dasharray:none;stroke-dashoffset:0;stroke-opacity:1;marker:none"
       d="m 10.274809,566.9414 c 0.166211,-0.17274 1.102041,-0.001 1.076993,-0.72921 -0.02505,-0.72812 1.22993,-0.58702 1.545358,-0.16411 0.315428,0.42291 1.019483,0.53982 0.906033,-0.1217 -0.04457,-0.56281 0.6607,-0.70979 1.013775,-0.37882 0.553877,0.59368 0.690744,-0.58819 1.303701,-0.39483 0.648056,0.10867 -0.179341,1.11854 0.580664,1.13969 0.387844,0.0333 0.946574,-0.45264 1.024485,0.18852 -0.01442,0.55122 0.473838,0.90928 0.954863,0.58206 0.520079,-0.24077 1.158499,0.49395 0.471126,0.74146 -0.495854,0.28794 -0.206632,0.78995 0.275906,0.80442 0.439533,0.23251 0.153266,0.77995 -0.260794,0.79289 -0.48168,0.49867 0.412242,0.7548 0.581678,1.10938 0.215679,0.58972 0.04306,1.22534 0.04084,1.83263 -0.0086,0.24094 -0.313522,0.47262 -0.241381,0.0723 0.06152,-0.59716 0.143911,-1.36796 -0.413311,-1.76439 -0.326686,0.37097 0.168552,1.00727 0.07325,1.46235 -0.314995,0.63004 -0.468894,-0.34957 -0.432772,-0.67714 0.04176,-0.23895 -0.260628,-0.93142 -0.302985,-0.30669 -0.03186,0.46613 0.416164,1.81221 -0.02343,1.81989 -0.439597,0.008 -0.22034,-1.34273 -0.571575,-1.78138 -0.285018,0.37584 0.08458,1.1235 0.101058,1.6243 0.128951,0.51752 -0.50402,0.34073 -0.369056,-0.0764 -0.007,-0.37584 0.09423,-1.08851 -0.360618,-1.18204 -0.222813,0.40494 0.203284,1.33372 -0.07539,1.44715 -0.312564,-0.36118 -0.106078,-1.18362 -0.512644,-1.33764 -0.314539,0.44678 0.09785,1.063 -0.147731,1.51067 -0.464892,-0.23819 -0.256051,-0.82961 -0.426045,-1.22609 -0.275108,-0.48951 -0.17115,0.37536 -0.141445,0.54398 -0.02441,0.50746 0.139663,1.05197 0.605317,1.31513 0.506051,0.35904 0.972388,0.0958 1.462964,0.47955 0.362146,0.31715 0.846058,0.11169 1.578512,0.45052 -0.514167,0.0348 -1.63187,0.1054 -2.134835,0.006 -0.733582,-0.21988 -0.986083,-0.0331 -1.710875,-0.27763 -0.538642,-0.26786 -1.067148,-0.64952 -1.356425,-1.18806 -0.227118,-0.52377 -0.375296,-1.07941 -0.427833,-1.64765 -0.104205,-0.24921 -0.04762,0.50992 -0.03016,0.65549 -0.05727,0.50898 0.278954,1.72265 -0.227804,1.52089 -0.506758,-0.20175 0.05443,-1.19414 -0.176838,-1.75745 0.01011,-0.25132 -0.322308,-0.55746 -0.27038,-0.12597 0.0181,0.55051 0.02445,1.12281 -0.147449,1.65161 -0.220254,0.39176 -0.23104,-0.4951 -0.208046,-0.68037 0.04635,-0.58095 -0.06291,-1.15543 -0.0108,-1.73771 -0.03852,-0.43342 -0.208093,0.43075 -0.256109,0.77 -0.05839,0.43697 0.114856,1.19264 -0.298532,1.32966 -0.07539,-0.53633 -0.02894,-1.71361 0.07441,-2.24721 -0.0074,-0.22815 -0.05894,-0.73646 -0.212556,-0.12124 -0.243388,0.61932 -0.149063,1.53359 -0.674586,2.00741 -0.571955,0.19635 -0.06774,-1.05298 0.0599,-1.35789 0.07126,-0.48248 0.03108,-0.85042 -0.06195,-1.20469 -0.110501,0.6553 -0.21075,1.29519 -0.49821,1.90242 0.01756,0.20584 -0.265728,0.93589 -0.313903,0.38799 -0.03995,-1.09006 0.07306,-2.4439 -0.02162,-3.2726 -0.09468,-0.8287 -0.476299,-1.33354 -0.516491,-1.66013 -0.04019,-0.3266 -0.06248,-0.5562 0.103734,-0.72894 z"
       id="path1191"
       inkscape:connector-curvature="0"
       sodipodi:nodetypes="czzcccccccccccccccczccccccccccccccccczcccccccccccccczzzc" />
    <path
       id="path913-4"
       style="opacity:1;vector-effect:none;fill:#ffffff;fill-opacity:0.99425288;stroke:#000000;stroke-width:0.1;stroke-linecap:butt;stroke-linejoin:miter;stroke-miterlimit:100;stroke-dasharray:none;stroke-dashoffset:0;stroke-opacity:1;marker:none"
       d="m 7.9684445,564.20793 a 0.39795917,0.30612245 0 0 0 -0.3691407,0.30664 0.39795917,0.30612245 0 0 0 0.3984375,0.30469 0.39795917,0.30612245 0 0 0 0.3964844,-0.30469 0.39795917,0.30612245 0 0 0 -0.3964844,-0.30664 0.39795917,0.30612245 0 0 0 -0.029297,0 z m -0.84444,-0.97024 a 0.47448981,0.39795917 0 0 0 -0.4746093,0.39843 0.47448981,0.39795917 0 0 0 0.4746093,0.39844 0.47448981,0.39795917 0 0 0 0.4746094,-0.39844 0.47448981,0.39795917 0 0 0 -0.4746094,-0.39843 z M 6.046875,562.15588 a 0.62755102,0.53571427 0 0 0 -0.6289062,0.53711 0.62755102,0.53571427 0 0 0 0.6289062,0.53516 0.62755102,0.53571427 0 0 0 0.6269531,-0.53516 0.62755102,0.53571427 0 0 0 -0.6269531,-0.53711 z M 4.3164062,555.20862 A 0.97959185,0.94897962 0 0 0 3.375,555.89807 0.64285713,0.62755102 0 0 0 2.8769531,555.6676 a 0.64285713,0.62755102 0 0 0 -0.6425781,0.62696 0.64285713,0.62755102 0 0 0 0,0.0156 0.67346936,0.62755102 0 0 0 -0.03125,0 0.67346936,0.62755102 0 0 0 -0.671875,0.62695 0.67346936,0.62755102 0 0 0 0.046875,0.23242 0.99489796,1.0255102 0 0 0 -0.3378906,-0.0645 0.99489796,1.0255102 0 0 0 -0.99609378,1.02539 0.99489796,1.0255102 0 0 0 0.359375,0.78907 0.84183675,0.81122446 0 0 0 -0.0527344,0.2832 0.84183675,0.81122446 0 0 0 0.84179688,0.81055 0.84183675,0.81122446 0 0 0 0.060547,-0.002 0.71938777,0.71938777 0 0 0 -0.076172,0.32422 0.71938777,0.71938777 0 0 0 0.7207031,0.71875 0.71938777,0.71938777 0 0 0 0.2910157,-0.0625 0.76530612,0.76530612 0 0 1 0,0.002 0.76530612,0.76530612 0 0 0 0.7636719,0.76563 0.76530612,0.76530612 0 0 0 0.6113281,-0.30469 0.96428573,1.0102041 0 0 0 0.6894531,0.30469 0.96428573,1.0102041 0 0 0 0.4941406,-0.14453 0.81122446,0.71938777 0 0 0 0.7011719,0.35742 0.81122446,0.71938777 0 0 0 0.625,-0.26172 0.68877554,0.78061223 0 0 0 0.5371094,0.29297 0.68877554,0.78061223 0 0 0 0.6875,-0.75781 0.62755102,0.58163267 0 0 0 0.2617187,0.0547 0.62755102,0.58163267 0 0 0 0.6289063,-0.58204 0.62755102,0.58163267 0 0 0 -0.078125,-0.27929 0.71938777,0.71938777 0 0 0 0.0625,0.004 0.71938777,0.71938777 0 0 0 0.6914062,-0.52149 1.1173469,1.1479592 0 0 0 0.7617188,-1.08594 1.1173469,1.1479592 0 0 0 -1.0546875,-1.14453 0.59693879,0.58163267 0 0 0 0.013672,-0.12695 0.59693879,0.58163267 0 0 0 -0.5957031,-0.58008 0.59693879,0.58163267 0 0 0 -0.1621093,0.0215 0.64285713,0.73469388 0 0 0 0.1152343,-0.41992 A 0.64285713,0.73469388 0 0 0 7.5,555.8512 a 0.64285713,0.73469388 0 0 0 -0.4335938,0.1914 0.99489796,1.0102041 0 0 0 -0.9277343,-0.65039 0.99489796,1.0102041 0 0 0 -0.875,0.5293 0.97959185,0.94897962 0 0 0 -0.9472657,-0.71289 z" />
    <path
       style="opacity:1;vector-effect:none;fill:#ffffff;fill-opacity:0.99425288;fill-rule:evenodd;stroke:#000000;stroke-width:0.10000001;stroke-linecap:butt;stroke-linejoin:miter;stroke-miterlimit:100;stroke-dasharray:none;stroke-dashoffset:0;stroke-opacity:1;marker:none"
       d="m 13.204511,545.56361 0.926214,1.30011 0.2902,-1.48887 0.566446,1.15326 0.894755,-1.14283 0.03146,1.22678 1.635769,-0.78639 -0.471857,1.0066 1.761599,-0.31456 -1.038085,1.19533 2.013255,0.31456 -1.447028,0.84934 1.290513,0.9047 -1.416337,0.35355 0.817884,1.47844 -1.289741,-0.84931 -0.125829,1.38408 -1.226827,-1.06952 0.188742,1.41553 -0.943713,-1.22679 0.487586,1.66719 3.129981,1.35262 -4.073694,-1.03805 -1.053812,-1.98176 -1.038085,1.06951 0.283115,-1.47844 -1.604313,0.59767 1.19537,-1.19535 h -2.04471 l 1.19537,-0.62913 -1.855969,-0.59767 1.918883,-0.25164 -1.635769,-1.32118 2.233454,0.62914 -1.384113,-1.85592 1.862839,1.02409 z"
       id="path876"
       inkscape:connector-curvature="0"
       sodipodi:nodetypes="ccccccccccccccccccccccccccccccccccccc" />
    <path
       style="opacity:1;vector-effect:none;fill:#ffffff;fill-opacity:0.99425288;stroke:#000000;stroke-width:0.1;stroke-linecap:butt;stroke-linejoin:miter;stroke-miterlimit:100;stroke-dasharray:none;stroke-dashoffset:0;stroke-opacity:1;marker:none"
       d="m 5,545.13664 c -2.6564896,0 -4.81,1.61511 -4.81,3.60744 0.001338,1.72668 1.6338928,3.21053 3.8940331,3.53934 0.5810834,1.80985 1.6831425,2.54669 5.1369873,2.54669 -1.7115782,-0.31997 -2.870988,-0.93442 -3.1101171,-2.57957 2.1666199,-0.38572 3.6969615,-1.83637 3.6990967,-3.50646 0,-1.99233 -2.1535104,-3.60744 -4.81,-3.60744 z"
       id="path822"
       inkscape:connector-curvature="0"
       sodipodi:nodetypes="scccccs" />
    <path
       style="opacity:1;vector-effect:none;fill:#ffffff;fill-opacity:0.99425288;stroke:#000000;stroke-width:0.2;stroke-linecap:butt;stroke-linejoin:miter;stroke-miterlimit:100;stroke-dasharray:0.4, 0.4;stroke-dashoffset:0;stroke-opacity:1;marker:none"
       d="m 26.115158,552.08717 c 2.095314,-0.37008 3.575291,-1.76191 3.577355,-3.36428 0,-1.91154 -2.082636,-3.46116 -4.651697,-3.46116 -2.569062,0 -4.651697,1.54962 -4.651697,3.46116 0.0013,1.65666 1.58012,3.08035 3.765876,3.39582 0.561959,1.73647 1.274194,2.6202 4.614368,2.6202 -1.655247,-0.30699 -2.422946,-1.0733 -2.654205,-2.65174 z"
       id="path822-1"
       inkscape:connector-curvature="0"
       sodipodi:nodetypes="ccscccc" />
    <path
       style="opacity:1;vector-effect:none;fill:none;fill-opacity:1;stroke:#000000;stroke-width:0.1;stroke-linecap:butt;stroke-linejoin:miter;stroke-miterlimit:100;stroke-dasharray:none;stroke-dashoffset:0;stroke-opacity:1;marker:none"
       d="M 2.3618203 11.716501 A 0.64285713 0.62755102 0 0 1 2.2346939 11.34186 A 0.64285713 0.62755102 0 0 1 2.8775511 10.71431 A 0.64285713 0.62755102 0 0 1 3.5120361 11.240911 "
       id="path1084"
       transform="translate(0,544.95276)" />
    <path
       style="opacity:1;vector-effect:none;fill:none;fill-opacity:1;stroke:#000000;stroke-width:0.1;stroke-linecap:butt;stroke-linejoin:miter;stroke-miterlimit:100;stroke-dasharray:none;stroke-dashoffset:0;stroke-opacity:1;marker:none"
       d="M 5.1659684 11.232497 A 0.99489796 1.0102041 0 0 1 6.1377549 10.43877 A 0.99489796 1.0102041 0 0 1 7.1326529 11.44897 A 0.99489796 1.0102041 0 0 1 7.1313099 11.501449 "
       id="path1082"
       transform="translate(0,544.95276)" />
    <path
       style="opacity:1;vector-effect:none;fill:none;fill-opacity:1;stroke:#000000;stroke-width:0.1;stroke-linecap:butt;stroke-linejoin:miter;stroke-miterlimit:100;stroke-dasharray:none;stroke-dashoffset:0;stroke-opacity:1;marker:none"
       d="M 9.047304 14.52121 A 0.71938777 0.71938777 0 0 1 9.0918367 14.77038 A 0.71938777 0.71938777 0 0 1 8.3724489 15.48977 A 0.71938777 0.71938777 0 0 1 8.011528 15.39268 "
       id="path1078"
       transform="translate(0,544.95276)" />
    <path
       style="opacity:1;vector-effect:none;fill:none;fill-opacity:1;stroke:#000000;stroke-width:0.1;stroke-linecap:butt;stroke-linejoin:miter;stroke-miterlimit:100;stroke-dasharray:none;stroke-dashoffset:0;stroke-opacity:1;marker:none"
       d="M 7.4316707 15.931406 A 0.68877554 0.78061223 0 0 1 7.5000005 16.27038 A 0.68877554 0.78061223 0 0 1 6.8112249 17.051 A 0.68877554 0.78061223 0 0 1 6.1241748 16.325606 "
       id="path1074"
       transform="translate(0,544.95276)" />
    <path
       style="opacity:1;vector-effect:none;fill:none;fill-opacity:1;stroke:#000000;stroke-width:0.1;stroke-linecap:butt;stroke-linejoin:miter;stroke-miterlimit:100;stroke-dasharray:none;stroke-dashoffset:0;stroke-opacity:1;marker:none"
       d="M 5.3023552 16.276295 A 0.96428573 1.0102041 0 0 1 4.454082 16.8061 A 0.96428573 1.0102041 0 0 1 3.5575034 16.167754 "
       id="path1068"
       transform="translate(0,544.95276)" />
    <path
       style="opacity:1;vector-effect:none;fill:none;fill-opacity:1;stroke:#000000;stroke-width:0.1;stroke-linecap:butt;stroke-linejoin:miter;stroke-miterlimit:100;stroke-dasharray:none;stroke-dashoffset:0;stroke-opacity:1;marker:none"
       d="M 1.2495708 14.204051 A 0.99489796 1.0255102 0 0 1 1.2397959 14.2041 A 0.99489796 1.0255102 0 0 1 0.24489796 13.17859 A 0.99489796 1.0255102 0 0 1 1.2397959 12.15308 A 0.99489796 1.0255102 0 0 1 1.8150493 12.341884 "
       id="path1064"
       transform="translate(0,544.95276)" />
    <path
       style="opacity:1;vector-effect:none;fill:none;fill-opacity:1;stroke:#000000;stroke-width:0.1;stroke-linecap:butt;stroke-linejoin:miter;stroke-miterlimit:100;stroke-dasharray:none;stroke-dashoffset:0;stroke-opacity:1;marker:none"
       d="M 2.6523997 15.839778 A 0.71938777 0.71938777 0 0 1 2.0969388 16.10202 A 0.71938777 0.71938777 0 0 1 1.3775511 15.38263 A 0.71938777 0.71938777 0 0 1 1.5996314 14.862816 "
       id="path1054"
       transform="translate(0,544.95276)" />
    <path
       style="opacity:1;vector-effect:none;fill:none;fill-opacity:1;stroke:#000000;stroke-width:0.1;stroke-linecap:butt;stroke-linejoin:miter;stroke-miterlimit:100;stroke-dasharray:none;stroke-dashoffset:0;stroke-opacity:1;marker:none"
       d="M 7.8426647 12.138356 A 0.59693879 0.58163267 0 0 1 8.1887751 12.03061 A 0.59693879 0.58163267 0 0 1 8.7857139 12.61224 A 0.59693879 0.58163267 0 0 1 8.5348939 13.086128 "
       id="path1052"
       transform="translate(0,544.95276)" />
    <path
       style="opacity:1;vector-effect:none;fill:#ffffff;fill-opacity:0.99425288;stroke:#000000;stroke-width:0.1;stroke-linecap:butt;stroke-linejoin:miter;stroke-miterlimit:100;stroke-dasharray:none;stroke-dashoffset:0;stroke-opacity:1;marker:none"
       d="m 10.200119,555.15291 v 1.05019 l 1.168769,0.28838 -1.168769,0.27115 v 3.89946 h 3.330505 l 1.328049,2.83423 2.148124,-0.93399 2.259612,1.97773 -1.798991,-2.64055 -1.799432,0.35939 -0.512278,-1.59681 h 4.70045 v -1.10398 l -0.865277,-0.23457 0.865277,-0.27761 v -3.89302 z"
       id="rect1102"
       inkscape:connector-curvature="0"
       sodipodi:nodetypes="cccccccccccccccccc" />
    <path
       style="opacity:1;vector-effect:none;fill:#ffffff;fill-opacity:0.99425288;stroke:#000000;stroke-width:0.10000001;stroke-linecap:butt;stroke-linejoin:miter;stroke-miterlimit:100;stroke-dasharray:none;stroke-dashoffset:0;stroke-opacity:1;marker:none"
       d="m 25.129618,555.16388 c -0.180474,-0.0107 -0.368809,0.028 -0.565841,0.12521 -0.788127,0.38874 -0.958844,1.46362 -2.101035,1.09217 -1.142193,-0.37145 -2.127395,1.01808 -2.254091,1.43303 -0.126697,0.41496 0.248777,1.24856 0.482357,1.71361 0.233579,0.46506 -0.785237,2.04791 0.401191,2.02202 1.186428,-0.0259 1.126597,0.65017 1.959574,1.10745 0.339543,0.18639 0.683882,0.10542 1.027328,-0.0185 0.695586,1.40146 2.048989,2.12581 5.002001,2.12581 -1.519853,-0.28411 -2.752641,-1.01156 -3.167653,-2.37161 0.819877,0.29713 1.933935,0.91046 2.059292,-0.0511 0.144232,-1.10623 0.622401,-0.79617 1.551427,-1.26976 0.929026,-0.47359 -0.621752,-1.35886 -0.352492,-2.10317 0.26926,-0.74432 0.690846,-1.36627 -0.169288,-1.97564 -0.860134,-0.60936 -2.039842,0.0672 -2.513822,-0.73043 -0.355484,-0.59823 -0.817522,-1.06648 -1.358948,-1.09912 z"
       id="path822-0"
       inkscape:connector-curvature="0"
       sodipodi:nodetypes="ccsccccccccsccccc" />
    <path
       style="opacity:1;vector-effect:none;fill:#ffffff;fill-opacity:0.99425288;stroke:#000000;stroke-width:0.09999999;stroke-linecap:butt;stroke-linejoin:miter;stroke-miterlimit:100;stroke-dasharray:none;stroke-dashoffset:0;stroke-opacity:1;marker:none"
       d="m 5.0100017,565.21097 c -2.7027495,6.7e-4 -4.79263822,2.14004 -4.76224196,3.23928 0.0303963,1.09925 0.64515259,4.46783 0.64515259,4.46783 l 0.63594017,-2.50999 0.4239603,1.76579 0.4961235,-1.30573 0.3878785,3.03769 0.547991,-2.8009 c 0.015757,0.003 0.031543,0.008 0.047358,0.0115 l 0.430725,1.62366 0.384887,-0.84016 c 0.5992701,1.54069 1.7354037,2.76031 4.774062,2.76031 -1.5155057,-0.28332 -2.6055695,-2.04128 -2.9421785,-3.45816 l 0.3968993,0.62019 0.2480617,-0.70812 0.7780121,1.98002 0.4600419,-2.44007 0.3878784,1.16817 0.4239602,-1.73196 0.4961236,1.80186 c 0,0 0.5732842,-2.10055 0.5467099,-3.52958 -0.026575,-1.42903 -2.1037138,-3.15161 -4.807344,-3.15142 z"
       id="path822-4"
       inkscape:connector-curvature="0"
       sodipodi:nodetypes="czcccccccccccccccccczcc" />
    <path
       style="opacity:1;vector-effect:none;fill:#ffffff;fill-opacity:0.99425288;fill-rule:evenodd;stroke:#000000;stroke-width:0.09999999;stroke-linecap:butt;stroke-linejoin:miter;stroke-miterlimit:100;stroke-dasharray:none;stroke-dashoffset:0;stroke-opacity:1;marker:none"
       d="m 25.024133,565.09616 -4.835163,3.76096 4.835163,3.76095 1.156325,-0.90036 3.318374,2.86575 -2.136865,-3.78291 2.497327,-1.94343 z"
       id="path1216"
       inkscape:connector-curvature="0"
       sodipodi:nodetypes="cccccccc" />
  </g>
</svg>
