<?xml version="1.0" encoding="UTF-8" standalone="no"?>
<!-- Created with Inkscape (http://www.inkscape.org/) -->

<svg
   width="100"
   height="100"
   viewBox="0 0 100 100"
   version="1.1"
   id="main-svg"
   inkscape:export-filename="D:\temp\temp.png"
   inkscape:version="1.2.2 (732a01da63, 2022-12-09)"
   sodipodi:docname="Checkmark.svg"
   xmlns:inkscape="http://www.inkscape.org/namespaces/inkscape"
   xmlns:sodipodi="http://sodipodi.sourceforge.net/DTD/sodipodi-0.dtd"
   xmlns="http://www.w3.org/2000/svg"
   xmlns:svg="http://www.w3.org/2000/svg">
  <defs
     id="defs5" />
  <sodipodi:namedview
     id="base"
     pagecolor="#ffffff"
     bordercolor="#666666"
     borderopacity="1.0"
     inkscape:pageopacity="0.0"
     inkscape:pageshadow="2"
     inkscape:zoom="7"
     inkscape:cx="60.285714"
     inkscape:cy="68.142857"
     inkscape:document-units="px"
     showgrid="true"
     units="px"
     inkscape:current-layer="main-svg"
     inkscape:showpageshadow="2"
     inkscape:pagecheckerboard="0"
     inkscape:deskcolor="#d1d1d1">
    <inkscape:grid
       type="xygrid"
       id="main-grid"
       spacingx="10"
       spacingy="10" />
  </sodipodi:namedview>
  <path
     d="M 33.289015,76.294342 Q 38.799446,63.716183 45.088526,52.276048 51.437502,40.776016 58.145853,31.072865 66.052125,19.692626 70.60422,14.661362 q 2.934904,-3.234383 5.510432,-5.3307432 1.4974,-1.19792 4.731784,-1.7968799 7.846375,-1.4375039 10.960967,-1.4375039 1.377608,0 1.377608,0.9583359 0,0.89844 -1.377608,2.1562559 Q 79.828204,19.872314 66.651085,39.697889 53.533862,59.523463 44.489566,81.804774 q -3.414072,8.325543 -4.79168,10.242215 -1.317711,1.856776 -8.385439,1.856776 -4.611992,0 -5.809912,-0.89844 -1.138024,-0.89844 -4.192719,-5.69012 Q 16.038968,79.349038 9.9894718,72.940166 6.8149844,69.585991 6.8149844,67.789111 q 0,-2.515632 3.5338636,-4.911472 3.533864,-2.455736 5.809912,-2.455736 3.174488,0 7.606791,3.59376 4.4922,3.533864 9.523464,12.278679 z"
     id="path400"
     style="font-size:122.667px;line-height:100%;font-family:'Arial Unicode MS';-inkscape-font-specification:'Arial Unicode MS';text-align:center;letter-spacing:0px;word-spacing:0px;baseline-shift:baseline;text-anchor:middle;stroke-width:5;paint-order:stroke fill markers" />
</svg>
